G04 EAGLE Gerber X2 export*
%TF.Part,Single*%
%TF.FileFunction,Copper,L1,Top,Mixed*%
%TF.FilePolarity,Positive*%
%TF.GenerationSoftware,Autodesk,EAGLE,9.0.0*%
%TF.CreationDate,2018-10-21T06:38:58Z*%
G75*
%MOMM*%
%FSLAX34Y34*%
%LPD*%
%AMOC8*
5,1,8,0,0,1.08239X$1,22.5*%
G01*
%ADD10R,2.032000X0.660400*%
%ADD11C,1.879600*%
%ADD12C,1.524000*%
%ADD13P,1.429621X8X112.500000*%
%ADD14C,0.609600*%
%ADD15C,1.651000*%


D10*
X602234Y298450D03*
X540766Y298450D03*
X602234Y311150D03*
X602234Y323850D03*
X540766Y311150D03*
X540766Y323850D03*
X602234Y336550D03*
X540766Y336550D03*
X602234Y349250D03*
X540766Y349250D03*
X602234Y361950D03*
X602234Y374650D03*
X540766Y361950D03*
X540766Y374650D03*
X602234Y387350D03*
X540766Y387350D03*
X602234Y488950D03*
X540766Y488950D03*
X602234Y501650D03*
X602234Y514350D03*
X540766Y501650D03*
X540766Y514350D03*
X602234Y527050D03*
X540766Y527050D03*
X602234Y539750D03*
X540766Y539750D03*
X602234Y552450D03*
X602234Y565150D03*
X540766Y552450D03*
X540766Y565150D03*
X602234Y577850D03*
X540766Y577850D03*
X540766Y717550D03*
X602234Y717550D03*
X540766Y704850D03*
X540766Y692150D03*
X602234Y704850D03*
X602234Y692150D03*
X540766Y679450D03*
X602234Y679450D03*
X540766Y666750D03*
X602234Y666750D03*
X540766Y654050D03*
X540766Y641350D03*
X602234Y654050D03*
X602234Y641350D03*
X540766Y628650D03*
X602234Y628650D03*
D11*
X889000Y419100D03*
X889000Y444500D03*
X889000Y469900D03*
X889000Y495300D03*
X889000Y520700D03*
X889000Y546100D03*
X889000Y596900D03*
X889000Y622300D03*
X889000Y647700D03*
X889000Y673100D03*
X889000Y698500D03*
X889000Y723900D03*
X406400Y723900D03*
X406400Y698500D03*
X406400Y673100D03*
X406400Y647700D03*
X406400Y622300D03*
X406400Y596900D03*
X406400Y571500D03*
X406400Y546100D03*
X406400Y508000D03*
X406400Y482600D03*
X406400Y457200D03*
X406400Y431800D03*
X406400Y406400D03*
X406400Y381000D03*
X406400Y355600D03*
X406400Y330200D03*
X406400Y304800D03*
X406400Y279400D03*
X889000Y393700D03*
X889000Y368300D03*
D12*
X331470Y819150D02*
X316230Y819150D01*
X316230Y793750D02*
X331470Y793750D01*
X331470Y768350D02*
X316230Y768350D01*
X316230Y742950D02*
X331470Y742950D01*
X331470Y717550D02*
X316230Y717550D01*
X316230Y692150D02*
X331470Y692150D01*
X331470Y666750D02*
X316230Y666750D01*
X316230Y641350D02*
X331470Y641350D01*
X970280Y469900D02*
X985520Y469900D01*
X985520Y444500D02*
X970280Y444500D01*
X970280Y419100D02*
X985520Y419100D01*
X985520Y393700D02*
X970280Y393700D01*
X331470Y146050D02*
X316230Y146050D01*
X316230Y171450D02*
X331470Y171450D01*
X331470Y196850D02*
X316230Y196850D01*
X316230Y222250D02*
X331470Y222250D01*
X331470Y247650D02*
X316230Y247650D01*
X316230Y273050D02*
X331470Y273050D01*
X331470Y298450D02*
X316230Y298450D01*
X316230Y323850D02*
X331470Y323850D01*
X331470Y393700D02*
X316230Y393700D01*
X316230Y419100D02*
X331470Y419100D01*
X331470Y444500D02*
X316230Y444500D01*
X316230Y469900D02*
X331470Y469900D01*
X331470Y495300D02*
X316230Y495300D01*
X316230Y520700D02*
X331470Y520700D01*
X331470Y546100D02*
X316230Y546100D01*
X316230Y571500D02*
X331470Y571500D01*
D13*
X977900Y266700D03*
X977900Y292100D03*
D11*
X812800Y342900D03*
X812800Y469900D03*
D14*
X679450Y565023D02*
X666623Y565150D01*
D15*
X679450Y565023D03*
X571500Y641350D03*
D14*
X540766Y641350D01*
X602234Y565150D02*
X666623Y565150D01*
X602234Y374650D02*
X584200Y374650D01*
X577850Y381000D01*
X577850Y393700D01*
X590550Y406400D01*
X666750Y406400D01*
X679450Y419100D01*
D15*
X679450Y419100D03*
D14*
X540766Y654050D02*
X520700Y654050D01*
X514350Y647700D01*
X514350Y635000D02*
X520700Y628650D01*
X540766Y628650D01*
X514350Y635000D02*
X514350Y647700D01*
X602234Y361950D02*
X628650Y361950D01*
X635000Y368300D01*
X635000Y374650D01*
X635000Y381000D01*
X628650Y387350D01*
X602234Y387350D01*
X914400Y431800D02*
X927100Y444500D01*
X977900Y444500D01*
X704850Y374650D02*
X666750Y374650D01*
X635000Y374650D01*
X717550Y533400D02*
X717550Y552450D01*
X717550Y533400D02*
X717550Y387350D01*
X704850Y374650D01*
X933450Y292100D02*
X977900Y292100D01*
X914400Y311150D02*
X914400Y431800D01*
X914400Y311150D02*
X933450Y292100D01*
X914400Y311150D02*
X895350Y292100D01*
D15*
X895350Y292100D03*
X692150Y393700D03*
D14*
X685800Y393700D01*
X666750Y374650D01*
X654050Y577850D02*
X602234Y577850D01*
X654050Y577850D02*
X692150Y577850D01*
X717550Y552450D01*
X514350Y635000D02*
X508000Y628650D01*
D15*
X508000Y628650D03*
X653923Y596900D03*
D14*
X654050Y596773D01*
X654050Y577850D01*
X450850Y355600D02*
X406400Y355600D01*
X450850Y355600D02*
X469900Y368300D01*
D15*
X469900Y368300D03*
D14*
X666750Y552450D02*
X685800Y533400D01*
X717550Y533400D01*
X666750Y552450D02*
X602234Y552450D01*
X540766Y488950D02*
X540766Y488737D01*
X543211Y486292D01*
X540766Y298450D02*
X558800Y298450D01*
X565150Y304800D01*
X565150Y419100D01*
D15*
X565150Y419100D03*
X527050Y457200D03*
D14*
X527050Y475021D01*
X540766Y488737D01*
X602234Y717550D02*
X621284Y736600D01*
X641350Y736600D01*
D15*
X641350Y736600D03*
D14*
X540766Y692150D02*
X444500Y692150D01*
X425450Y673100D01*
X406400Y673100D01*
X406400Y647700D02*
X431800Y647700D01*
D15*
X450850Y628650D03*
X692150Y679577D03*
D14*
X602361Y679577D01*
X602234Y679450D01*
X450850Y628650D02*
X431800Y647700D01*
X589534Y609600D02*
X602234Y628650D01*
X431800Y609600D02*
X419100Y622300D01*
X406400Y622300D01*
X431800Y609600D02*
X589534Y609600D01*
X602234Y641350D02*
X628650Y641350D01*
X641350Y628650D01*
X641350Y609600D02*
X628650Y596900D01*
X406400Y596900D01*
X641350Y609600D02*
X641350Y628650D01*
X540766Y679450D02*
X540639Y679323D01*
X501650Y679323D01*
D15*
X501650Y679323D03*
X298450Y609600D03*
D14*
X323850Y635000D01*
X323850Y641350D01*
X527050Y704850D02*
X540766Y704850D01*
X527050Y704850D02*
X488950Y742950D01*
X393700Y742950D01*
X381000Y730250D01*
X381000Y679450D01*
X368300Y666750D02*
X323850Y666750D01*
X368300Y666750D02*
X381000Y679450D01*
X508000Y660400D02*
X514350Y666750D01*
D15*
X482600Y660400D03*
D14*
X514350Y666750D02*
X540766Y666750D01*
X508000Y660400D02*
X482600Y660400D01*
D15*
X292100Y692150D03*
D14*
X323850Y692150D01*
X540766Y717550D02*
X540766Y735584D01*
X533400Y742950D01*
X520700Y755650D01*
X355600Y755650D01*
X342900Y742950D02*
X323850Y742950D01*
X342900Y742950D02*
X355600Y755650D01*
X571500Y749300D02*
X571500Y666750D01*
X571500Y749300D02*
X552450Y768350D01*
X323850Y768350D01*
X584200Y654050D02*
X602234Y654050D01*
X584200Y654050D02*
X571500Y666750D01*
X602234Y704850D02*
X654050Y704850D01*
X679450Y730250D01*
X679450Y781050D01*
X641350Y819150D01*
X323850Y819150D02*
X317500Y819150D01*
X323850Y819150D02*
X641350Y819150D01*
X666750Y692150D02*
X602234Y692150D01*
X666750Y692150D02*
X698500Y723900D01*
X698500Y838200D01*
X673100Y857250D01*
X279400Y857250D01*
X260350Y831850D01*
X260350Y342900D01*
X279400Y323850D01*
X323850Y323850D01*
X330200Y323850D01*
X717550Y101600D02*
X736600Y120650D01*
X736600Y647700D01*
X717550Y666750D01*
X602234Y666750D01*
X285750Y247650D02*
X260350Y222250D01*
X285750Y247650D02*
X323850Y247650D01*
X292100Y101600D02*
X717550Y101600D01*
X260350Y133350D02*
X260350Y222250D01*
X260350Y133350D02*
X292100Y101600D01*
X495300Y349250D02*
X540766Y349250D01*
X495300Y349250D02*
X488950Y342900D01*
D15*
X488950Y342900D03*
D14*
X355600Y717550D02*
X323850Y717550D01*
X355600Y717550D02*
X361950Y717550D01*
D15*
X361950Y717550D03*
D14*
X514350Y323850D02*
X540766Y323850D01*
X514350Y323850D02*
X501650Y311150D01*
X501650Y228600D01*
X495300Y222250D01*
X381000Y222250D01*
X361950Y241300D01*
X361950Y330200D01*
X342900Y349250D01*
X292100Y349250D01*
X273050Y361950D01*
X273050Y781050D01*
X285750Y793750D01*
X323850Y793750D01*
X520700Y311150D02*
X540766Y311150D01*
X520700Y311150D02*
X514350Y304800D01*
X514350Y222250D01*
X501650Y209550D01*
X374650Y209550D01*
X349250Y234950D02*
X349250Y285750D01*
X336550Y298450D01*
X323850Y298450D01*
X349250Y234950D02*
X374650Y209550D01*
X488950Y361950D02*
X540766Y361950D01*
X488950Y361950D02*
X469900Y349250D01*
X469900Y254000D01*
D15*
X469900Y254000D03*
D14*
X336550Y222250D02*
X323850Y222250D01*
X336550Y222250D02*
X361950Y196850D01*
X539750Y196850D01*
X565150Y222250D01*
X565150Y279273D01*
X565023Y279400D01*
D15*
X565023Y279400D03*
X635000Y279400D03*
D14*
X635000Y292100D01*
X628650Y298450D01*
X602234Y298450D01*
X577850Y342900D02*
X584200Y349250D01*
X577850Y342900D02*
X577850Y215900D01*
X584200Y349250D02*
X602234Y349250D01*
X336550Y196850D02*
X323850Y196850D01*
X336550Y196850D02*
X349250Y184150D01*
X546100Y184150D01*
X577850Y215900D01*
X602234Y311150D02*
X641350Y311150D01*
X654050Y298450D01*
X654050Y190500D01*
X635000Y171450D01*
X323850Y171450D01*
X602234Y336550D02*
X698500Y336550D01*
X717550Y317500D01*
X717550Y165100D02*
X698500Y146050D01*
X323850Y146050D01*
X717550Y165100D02*
X717550Y317500D01*
X540766Y565150D02*
X438150Y565150D01*
X419100Y546100D02*
X406400Y546100D01*
X419100Y546100D02*
X438150Y565150D01*
X540766Y565150D02*
X558800Y565150D01*
X565150Y558800D01*
X540766Y374650D02*
X520700Y374650D01*
X514350Y381000D01*
X565150Y469900D02*
X565150Y558800D01*
X514350Y419100D02*
X514350Y381000D01*
X514350Y419100D02*
X565150Y469900D01*
X540766Y577850D02*
X425450Y577850D01*
X419100Y571500D01*
X406400Y571500D01*
X540766Y577850D02*
X565150Y577850D01*
X577850Y565150D02*
X577850Y457200D01*
X577850Y565150D02*
X565150Y577850D01*
X540766Y420116D02*
X540766Y387350D01*
X540766Y420116D02*
X577850Y457200D01*
X501650Y336550D02*
X488950Y323850D01*
X488950Y241300D02*
X482600Y234950D01*
X387350Y234950D02*
X374650Y247650D01*
X374650Y488950D01*
X393700Y508000D02*
X406400Y508000D01*
X412750Y508000D01*
X501650Y336550D02*
X540766Y336550D01*
X488950Y323850D02*
X488950Y241300D01*
X482600Y234950D02*
X387350Y234950D01*
X374650Y488950D02*
X393700Y508000D01*
X666750Y323850D02*
X679450Y311150D01*
D15*
X679450Y311150D03*
X450850Y482600D03*
D14*
X406400Y482600D01*
X602234Y323850D02*
X666750Y323850D01*
X540766Y539750D02*
X463550Y539750D01*
X444500Y520700D01*
D15*
X444500Y520700D03*
D14*
X355600Y546100D02*
X323850Y546100D01*
D15*
X355600Y546100D03*
D14*
X501650Y514350D02*
X540766Y514350D01*
X501650Y514350D02*
X495300Y508000D01*
D15*
X495300Y508000D03*
D14*
X520700Y501650D02*
X540766Y501650D01*
X520700Y501650D02*
X488950Y469900D01*
D15*
X488950Y450850D03*
D14*
X488950Y469900D01*
X323850Y520700D02*
X292100Y520700D01*
D15*
X292100Y520700D03*
D14*
X450850Y552450D02*
X540766Y552450D01*
X450850Y552450D02*
X425450Y527050D01*
X381000Y527050D01*
X349250Y495300D01*
X323850Y495300D01*
X602234Y488950D02*
X609600Y481584D01*
X609600Y431800D01*
D15*
X609600Y431800D03*
D14*
X355600Y469900D02*
X323850Y469900D01*
D15*
X355600Y469900D03*
D14*
X698500Y514223D02*
X698500Y514350D01*
D15*
X698500Y514223D03*
X755650Y419100D03*
D14*
X755650Y114300D01*
X723900Y82550D01*
X279400Y82550D01*
X247650Y114300D01*
X247650Y260350D01*
X292100Y304800D01*
D15*
X292100Y304800D03*
D14*
X311150Y444500D02*
X323850Y444500D01*
X311150Y444500D02*
X292100Y425450D01*
D15*
X292100Y425450D03*
D14*
X685800Y514350D02*
X698500Y514350D01*
X660400Y539750D02*
X602234Y539750D01*
X660400Y539750D02*
X685800Y514350D01*
X615950Y501650D02*
X602234Y501650D01*
X635000Y482600D02*
X635000Y431800D01*
D15*
X635000Y431800D03*
D14*
X635000Y482600D02*
X615950Y501650D01*
X355600Y419100D02*
X323850Y419100D01*
D15*
X355600Y419100D03*
D14*
X602234Y527050D02*
X647700Y527050D01*
X660400Y514350D01*
D15*
X660400Y514350D03*
X355600Y393700D03*
D14*
X323850Y393700D01*
X488950Y527050D02*
X540766Y527050D01*
X488950Y527050D02*
X469900Y508000D01*
X469900Y469900D01*
X457200Y457200D01*
X406400Y457200D01*
D15*
X431800Y431800D03*
D14*
X406400Y431800D01*
X602234Y514350D02*
X622300Y514350D01*
X647700Y488950D01*
D15*
X647700Y488950D03*
D14*
X889000Y469900D02*
X977900Y469900D01*
X889000Y469900D02*
X812800Y469900D01*
X812800Y342900D02*
X812800Y298450D01*
X844550Y266700D01*
X977900Y266700D01*
X444500Y304800D02*
X406400Y304800D01*
D15*
X444500Y304800D03*
X933450Y419100D03*
D14*
X977900Y419100D01*
X977900Y393700D02*
X977900Y342900D01*
X996950Y323850D01*
X996950Y247650D01*
X406400Y260350D02*
X406400Y279400D01*
X406400Y260350D02*
X412750Y254000D01*
D15*
X952500Y209550D03*
D14*
X958850Y209550D01*
X996950Y247650D01*
X431800Y254000D02*
X412750Y254000D01*
D15*
X431800Y254000D03*
M02*
