G04 EAGLE Gerber X2 export*
%TF.Part,Single*%
%TF.FileFunction,Copper,L2,Bot,Mixed*%
%TF.FilePolarity,Positive*%
%TF.GenerationSoftware,Autodesk,EAGLE,9.0.0*%
%TF.CreationDate,2018-10-21T06:38:58Z*%
G75*
%MOMM*%
%FSLAX34Y34*%
%LPD*%
%AMOC8*
5,1,8,0,0,1.08239X$1,22.5*%
G01*
%ADD10C,1.879600*%
%ADD11C,1.524000*%
%ADD12P,1.429621X8X112.500000*%
%ADD13C,1.651000*%
%ADD14C,0.609600*%


D10*
X889000Y419100D03*
X889000Y444500D03*
X889000Y469900D03*
X889000Y495300D03*
X889000Y520700D03*
X889000Y546100D03*
X889000Y596900D03*
X889000Y622300D03*
X889000Y647700D03*
X889000Y673100D03*
X889000Y698500D03*
X889000Y723900D03*
X406400Y723900D03*
X406400Y698500D03*
X406400Y673100D03*
X406400Y647700D03*
X406400Y622300D03*
X406400Y596900D03*
X406400Y571500D03*
X406400Y546100D03*
X406400Y508000D03*
X406400Y482600D03*
X406400Y457200D03*
X406400Y431800D03*
X406400Y406400D03*
X406400Y381000D03*
X406400Y355600D03*
X406400Y330200D03*
X406400Y304800D03*
X406400Y279400D03*
X889000Y393700D03*
X889000Y368300D03*
D11*
X331470Y819150D02*
X316230Y819150D01*
X316230Y793750D02*
X331470Y793750D01*
X331470Y768350D02*
X316230Y768350D01*
X316230Y742950D02*
X331470Y742950D01*
X331470Y717550D02*
X316230Y717550D01*
X316230Y692150D02*
X331470Y692150D01*
X331470Y666750D02*
X316230Y666750D01*
X316230Y641350D02*
X331470Y641350D01*
X970280Y469900D02*
X985520Y469900D01*
X985520Y444500D02*
X970280Y444500D01*
X970280Y419100D02*
X985520Y419100D01*
X985520Y393700D02*
X970280Y393700D01*
X331470Y146050D02*
X316230Y146050D01*
X316230Y171450D02*
X331470Y171450D01*
X331470Y196850D02*
X316230Y196850D01*
X316230Y222250D02*
X331470Y222250D01*
X331470Y247650D02*
X316230Y247650D01*
X316230Y273050D02*
X331470Y273050D01*
X331470Y298450D02*
X316230Y298450D01*
X316230Y323850D02*
X331470Y323850D01*
X331470Y393700D02*
X316230Y393700D01*
X316230Y419100D02*
X331470Y419100D01*
X331470Y444500D02*
X316230Y444500D01*
X316230Y469900D02*
X331470Y469900D01*
X331470Y495300D02*
X316230Y495300D01*
X316230Y520700D02*
X331470Y520700D01*
X331470Y546100D02*
X316230Y546100D01*
X316230Y571500D02*
X331470Y571500D01*
D12*
X977900Y266700D03*
X977900Y292100D03*
D10*
X812800Y342900D03*
X812800Y469900D03*
D13*
X679450Y565023D03*
D14*
X679450Y622300D01*
X660400Y641350D01*
X571500Y641350D01*
D13*
X571500Y641350D03*
X679450Y419100D03*
D14*
X679450Y565023D01*
D13*
X895350Y292100D03*
D14*
X895350Y323850D01*
X825500Y393700D01*
X749300Y393700D01*
D13*
X692150Y393700D03*
D14*
X749300Y393700D01*
D13*
X508000Y628650D03*
D14*
X520700Y615950D01*
X634873Y615950D02*
X653923Y596900D01*
D13*
X653923Y596900D03*
D14*
X634873Y615950D02*
X520700Y615950D01*
D13*
X469900Y368300D03*
D14*
X723900Y368300D01*
X749300Y393700D01*
D13*
X565150Y419100D03*
D14*
X565150Y425450D01*
X527050Y457200D01*
D13*
X527050Y457200D03*
X641350Y736600D03*
X450850Y628650D03*
D14*
X482600Y628650D01*
X539750Y679450D01*
X692150Y679450D01*
X692150Y679577D01*
D13*
X692150Y679577D03*
X501650Y679323D03*
D14*
X482600Y698373D01*
X482600Y844550D01*
X463550Y857250D01*
X292100Y857250D01*
X273050Y831850D01*
X273050Y635000D02*
X298450Y609600D01*
D13*
X298450Y609600D03*
D14*
X273050Y635000D02*
X273050Y831850D01*
D13*
X482600Y660400D03*
D14*
X463550Y679450D01*
X463550Y825500D01*
X463550Y831850D01*
X450850Y844550D01*
X311150Y844550D01*
X292100Y825500D01*
X292100Y692150D01*
D13*
X292100Y692150D03*
X488950Y342900D03*
X361950Y717550D03*
X469900Y254000D03*
D14*
X469900Y127000D01*
X463550Y120650D01*
X292100Y120650D01*
X292100Y273050D02*
X323850Y273050D01*
X273050Y139700D02*
X292100Y120650D01*
X273050Y139700D02*
X273050Y254000D01*
X292100Y273050D01*
D13*
X565023Y279400D03*
X635000Y279400D03*
D14*
X565023Y279400D01*
D13*
X679450Y311150D03*
D14*
X666750Y323850D01*
X469900Y323850D01*
X450850Y342900D01*
X450850Y482600D01*
D13*
X450850Y482600D03*
X444500Y520700D03*
D14*
X425450Y520700D01*
X419100Y527050D01*
X381000Y527050D01*
X381000Y571500D01*
X323850Y571500D01*
D13*
X355600Y546100D03*
X495300Y508000D03*
D14*
X323850Y539750D02*
X323850Y546100D01*
D13*
X488950Y450850D03*
D14*
X488950Y444500D01*
D13*
X292100Y520700D03*
D14*
X292100Y514350D01*
D13*
X609600Y431800D03*
D14*
X615950Y431800D01*
D13*
X355600Y469900D03*
X698500Y514223D03*
D14*
X749173Y514223D01*
X749300Y514350D01*
X755650Y508000D01*
X755650Y419100D01*
D13*
X755650Y419100D03*
X292100Y304800D03*
D14*
X292100Y425450D01*
D13*
X292100Y425450D03*
X635000Y431800D03*
X355600Y419100D03*
D14*
X361950Y419100D01*
D13*
X660400Y514350D03*
X355600Y393700D03*
X431800Y431800D03*
D14*
X431800Y488950D02*
X441325Y498475D01*
X431800Y488950D02*
X431800Y431800D01*
D13*
X647700Y488950D03*
D14*
X466725Y498475D02*
X441325Y498475D01*
X635000Y476250D02*
X647700Y488950D01*
X532490Y476250D02*
X532363Y476377D01*
X521737Y476377D01*
X521610Y476250D01*
X488950Y476250D01*
X532490Y476250D02*
X635000Y476250D01*
X488950Y476250D02*
X466725Y498475D01*
D13*
X444500Y304800D03*
D14*
X476250Y304800D01*
X501650Y279400D01*
X501650Y146050D01*
X514350Y133350D01*
X914400Y133350D02*
X933450Y152400D01*
X914400Y133350D02*
X514350Y133350D01*
X933450Y152400D02*
X933450Y419100D01*
D13*
X933450Y419100D03*
X952500Y209550D03*
X431800Y254000D03*
D14*
X431800Y260350D01*
X444500Y273050D01*
X482600Y273050D02*
X488950Y266700D01*
X488950Y127000D01*
X495300Y120650D01*
X927100Y120650D01*
X952500Y146050D01*
X952500Y209550D01*
X482600Y273050D02*
X444500Y273050D01*
M02*
