M48
;GenerationSoftware,Autodesk,EAGLE,9.0.0*%
;CreationDate,2018-10-21T06:38:58Z*%
FMAT,2
ICI,OFF
METRIC,TZ,000.000
T5C0.350
T4C0.813
T3C0.900
T2C1.016
T1C2.000
%
G90
M71
T1
X22860Y85725
T2
X40640Y72390
X40640Y69850
X40640Y67310
X40640Y64770
X40640Y62230
X40640Y59690
X40640Y57150
X40640Y54610
X40640Y50800
X40640Y45720
X40640Y43180
X40640Y40640
X40640Y38100
X40640Y35560
X40640Y48260
X40640Y33020
X40640Y30480
X40640Y27940
X88900Y39370
X88900Y36830
X32385Y81915
X32385Y79375
X32385Y76835
X32385Y74295
X32385Y71755
X32385Y69215
X32385Y66675
X32385Y64135
X97790Y46990
X97790Y44450
X97790Y41910
X97790Y39370
X32385Y14605
X32385Y17145
X32385Y19685
X32385Y22225
X32385Y24765
X32385Y29845
X32385Y32385
X32385Y39370
X32385Y41910
X32385Y44450
X88900Y62230
X32385Y46990
X32385Y49530
X32385Y52070
X32385Y54610
X32385Y57150
X88900Y41910
X88900Y44450
X88900Y46990
X88900Y49530
X88900Y52070
X88900Y54610
X88900Y59690
X32385Y27305
X88900Y64770
X88900Y67310
X88900Y69850
X88900Y72390
T3
X81280Y46990
X81280Y34290
T4
X97790Y26670
X97790Y29210
T5
X69215Y39370
X50800Y62865
X65392Y59690
X46990Y36830
X56515Y41910
X52705Y45720
X64135Y73660
X45085Y62865
X69215Y67958
X50165Y67932
X48260Y66040
X29210Y69215
X48895Y34290
X36195Y71755
X46990Y25400
X56502Y27940
X63500Y27940
X67945Y31115
X45085Y48260
X44450Y52070
X35560Y54610
X49530Y50800
X48895Y45085
X29210Y52070
X60960Y43180
X35560Y46990
X69850Y51422
X75565Y41910
X29210Y30480
X29210Y42545
X63500Y43180
X35560Y41910
X66040Y51435
X35560Y39370
X43180Y43180
X67945Y56502
X44450Y30480
X95250Y20955
X43180Y25400
X22860Y7620
X99060Y7620
X64770Y48895
X93345Y41910
X29845Y60960
X57150Y64135
X67945Y41910
X89535Y29210
X99060Y85725
M30