G04 EAGLE Gerber X2 export*
%TF.Part,Single*%
%TF.FileFunction,Profile,NP*%
%TF.FilePolarity,Positive*%
%TF.GenerationSoftware,Autodesk,EAGLE,9.0.0*%
%TF.CreationDate,2018-10-21T06:38:58Z*%
G75*
%MOMM*%
%FSLAX34Y34*%
%LPD*%
%AMOC8*
5,1,8,0,0,1.08239X$1,22.5*%
G01*
%ADD10C,0.254000*%


D10*
X196850Y44450D02*
X1028500Y44450D01*
X1028500Y892050D01*
X196850Y892050D01*
X196850Y44450D01*
X238600Y856813D02*
X238524Y855944D01*
X238372Y855084D01*
X238146Y854240D01*
X237848Y853420D01*
X237479Y852628D01*
X237042Y851872D01*
X236541Y851157D01*
X235980Y850488D01*
X235362Y849870D01*
X234693Y849309D01*
X233978Y848808D01*
X233222Y848371D01*
X232430Y848002D01*
X231610Y847704D01*
X230766Y847478D01*
X229907Y847326D01*
X229037Y847250D01*
X228163Y847250D01*
X227294Y847326D01*
X226434Y847478D01*
X225590Y847704D01*
X224770Y848002D01*
X223978Y848371D01*
X223222Y848808D01*
X222507Y849309D01*
X221838Y849870D01*
X221220Y850488D01*
X220659Y851157D01*
X220158Y851872D01*
X219721Y852628D01*
X219352Y853420D01*
X219054Y854240D01*
X218828Y855084D01*
X218676Y855944D01*
X218600Y856813D01*
X218600Y857687D01*
X218676Y858557D01*
X218828Y859416D01*
X219054Y860260D01*
X219352Y861080D01*
X219721Y861872D01*
X220158Y862628D01*
X220659Y863343D01*
X221220Y864012D01*
X221838Y864630D01*
X222507Y865191D01*
X223222Y865692D01*
X223978Y866129D01*
X224770Y866498D01*
X225590Y866796D01*
X226434Y867022D01*
X227294Y867174D01*
X228163Y867250D01*
X229037Y867250D01*
X229907Y867174D01*
X230766Y867022D01*
X231610Y866796D01*
X232430Y866498D01*
X233222Y866129D01*
X233978Y865692D01*
X234693Y865191D01*
X235362Y864630D01*
X235980Y864012D01*
X236541Y863343D01*
X237042Y862628D01*
X237479Y861872D01*
X237848Y861080D01*
X238146Y860260D01*
X238372Y859416D01*
X238524Y858557D01*
X238600Y857687D01*
X238600Y856813D01*
X230350Y76028D02*
X230283Y75690D01*
X230151Y75371D01*
X229959Y75084D01*
X229716Y74841D01*
X229429Y74649D01*
X229110Y74517D01*
X228772Y74450D01*
X228428Y74450D01*
X228090Y74517D01*
X227771Y74649D01*
X227484Y74841D01*
X227241Y75084D01*
X227049Y75371D01*
X226917Y75690D01*
X226850Y76028D01*
X226850Y76372D01*
X226917Y76710D01*
X227049Y77029D01*
X227241Y77316D01*
X227484Y77559D01*
X227771Y77751D01*
X228090Y77883D01*
X228428Y77950D01*
X228772Y77950D01*
X229110Y77883D01*
X229429Y77751D01*
X229716Y77559D01*
X229959Y77316D01*
X230151Y77029D01*
X230283Y76710D01*
X230350Y76372D01*
X230350Y76028D01*
X992350Y76028D02*
X992283Y75690D01*
X992151Y75371D01*
X991959Y75084D01*
X991716Y74841D01*
X991429Y74649D01*
X991110Y74517D01*
X990772Y74450D01*
X990428Y74450D01*
X990090Y74517D01*
X989771Y74649D01*
X989484Y74841D01*
X989241Y75084D01*
X989049Y75371D01*
X988917Y75690D01*
X988850Y76028D01*
X988850Y76372D01*
X988917Y76710D01*
X989049Y77029D01*
X989241Y77316D01*
X989484Y77559D01*
X989771Y77751D01*
X990090Y77883D01*
X990428Y77950D01*
X990772Y77950D01*
X991110Y77883D01*
X991429Y77751D01*
X991716Y77559D01*
X991959Y77316D01*
X992151Y77029D01*
X992283Y76710D01*
X992350Y76372D01*
X992350Y76028D01*
X992350Y857078D02*
X992283Y856740D01*
X992151Y856421D01*
X991959Y856134D01*
X991716Y855891D01*
X991429Y855699D01*
X991110Y855567D01*
X990772Y855500D01*
X990428Y855500D01*
X990090Y855567D01*
X989771Y855699D01*
X989484Y855891D01*
X989241Y856134D01*
X989049Y856421D01*
X988917Y856740D01*
X988850Y857078D01*
X988850Y857422D01*
X988917Y857760D01*
X989049Y858079D01*
X989241Y858366D01*
X989484Y858609D01*
X989771Y858801D01*
X990090Y858933D01*
X990428Y859000D01*
X990772Y859000D01*
X991110Y858933D01*
X991429Y858801D01*
X991716Y858609D01*
X991959Y858366D01*
X992151Y858079D01*
X992283Y857760D01*
X992350Y857422D01*
X992350Y857078D01*
X238600Y856813D02*
X238524Y855944D01*
X238372Y855084D01*
X238146Y854240D01*
X237848Y853420D01*
X237479Y852628D01*
X237042Y851872D01*
X236541Y851157D01*
X235980Y850488D01*
X235362Y849870D01*
X234693Y849309D01*
X233978Y848808D01*
X233222Y848371D01*
X232430Y848002D01*
X231610Y847704D01*
X230766Y847478D01*
X229907Y847326D01*
X229037Y847250D01*
X228163Y847250D01*
X227294Y847326D01*
X226434Y847478D01*
X225590Y847704D01*
X224770Y848002D01*
X223978Y848371D01*
X223222Y848808D01*
X222507Y849309D01*
X221838Y849870D01*
X221220Y850488D01*
X220659Y851157D01*
X220158Y851872D01*
X219721Y852628D01*
X219352Y853420D01*
X219054Y854240D01*
X218828Y855084D01*
X218676Y855944D01*
X218600Y856813D01*
X218600Y857687D01*
X218676Y858557D01*
X218828Y859416D01*
X219054Y860260D01*
X219352Y861080D01*
X219721Y861872D01*
X220158Y862628D01*
X220659Y863343D01*
X221220Y864012D01*
X221838Y864630D01*
X222507Y865191D01*
X223222Y865692D01*
X223978Y866129D01*
X224770Y866498D01*
X225590Y866796D01*
X226434Y867022D01*
X227294Y867174D01*
X228163Y867250D01*
X229037Y867250D01*
X229907Y867174D01*
X230766Y867022D01*
X231610Y866796D01*
X232430Y866498D01*
X233222Y866129D01*
X233978Y865692D01*
X234693Y865191D01*
X235362Y864630D01*
X235980Y864012D01*
X236541Y863343D01*
X237042Y862628D01*
X237479Y861872D01*
X237848Y861080D01*
X238146Y860260D01*
X238372Y859416D01*
X238524Y858557D01*
X238600Y857687D01*
X238600Y856813D01*
X230350Y76028D02*
X230283Y75690D01*
X230151Y75371D01*
X229959Y75084D01*
X229716Y74841D01*
X229429Y74649D01*
X229110Y74517D01*
X228772Y74450D01*
X228428Y74450D01*
X228090Y74517D01*
X227771Y74649D01*
X227484Y74841D01*
X227241Y75084D01*
X227049Y75371D01*
X226917Y75690D01*
X226850Y76028D01*
X226850Y76372D01*
X226917Y76710D01*
X227049Y77029D01*
X227241Y77316D01*
X227484Y77559D01*
X227771Y77751D01*
X228090Y77883D01*
X228428Y77950D01*
X228772Y77950D01*
X229110Y77883D01*
X229429Y77751D01*
X229716Y77559D01*
X229959Y77316D01*
X230151Y77029D01*
X230283Y76710D01*
X230350Y76372D01*
X230350Y76028D01*
X992350Y76028D02*
X992283Y75690D01*
X992151Y75371D01*
X991959Y75084D01*
X991716Y74841D01*
X991429Y74649D01*
X991110Y74517D01*
X990772Y74450D01*
X990428Y74450D01*
X990090Y74517D01*
X989771Y74649D01*
X989484Y74841D01*
X989241Y75084D01*
X989049Y75371D01*
X988917Y75690D01*
X988850Y76028D01*
X988850Y76372D01*
X988917Y76710D01*
X989049Y77029D01*
X989241Y77316D01*
X989484Y77559D01*
X989771Y77751D01*
X990090Y77883D01*
X990428Y77950D01*
X990772Y77950D01*
X991110Y77883D01*
X991429Y77751D01*
X991716Y77559D01*
X991959Y77316D01*
X992151Y77029D01*
X992283Y76710D01*
X992350Y76372D01*
X992350Y76028D01*
X992350Y857078D02*
X992283Y856740D01*
X992151Y856421D01*
X991959Y856134D01*
X991716Y855891D01*
X991429Y855699D01*
X991110Y855567D01*
X990772Y855500D01*
X990428Y855500D01*
X990090Y855567D01*
X989771Y855699D01*
X989484Y855891D01*
X989241Y856134D01*
X989049Y856421D01*
X988917Y856740D01*
X988850Y857078D01*
X988850Y857422D01*
X988917Y857760D01*
X989049Y858079D01*
X989241Y858366D01*
X989484Y858609D01*
X989771Y858801D01*
X990090Y858933D01*
X990428Y859000D01*
X990772Y859000D01*
X991110Y858933D01*
X991429Y858801D01*
X991716Y858609D01*
X991959Y858366D01*
X992151Y858079D01*
X992283Y857760D01*
X992350Y857422D01*
X992350Y857078D01*
M02*
