G04 EAGLE Gerber X2 export*
%TF.Part,Single*%
%TF.FileFunction,Legend,Bot,1*%
%TF.FilePolarity,Positive*%
%TF.GenerationSoftware,Autodesk,EAGLE,9.0.0*%
%TF.CreationDate,2018-10-21T06:38:59Z*%
G75*
%MOMM*%
%FSLAX34Y34*%
%LPD*%
%AMOC8*
5,1,8,0,0,1.08239X$1,22.5*%
G01*
%ADD10C,0.152400*%
%ADD11C,0.127000*%
%ADD12C,0.203200*%
%ADD13C,0.254000*%


D10*
X311150Y673100D02*
X311150Y660400D01*
X317500Y654050D01*
X330200Y654050D01*
X336550Y660400D01*
X311150Y698500D02*
X317500Y704850D01*
X311150Y698500D02*
X311150Y685800D01*
X317500Y679450D01*
X330200Y679450D01*
X336550Y685800D01*
X336550Y698500D01*
X330200Y704850D01*
X317500Y679450D02*
X311150Y673100D01*
X330200Y679450D02*
X336550Y673100D01*
X336550Y660400D01*
X311150Y736600D02*
X311150Y749300D01*
X311150Y736600D02*
X317500Y730250D01*
X330200Y730250D01*
X336550Y736600D01*
X317500Y730250D02*
X311150Y723900D01*
X311150Y711200D01*
X317500Y704850D01*
X330200Y704850D01*
X336550Y711200D01*
X336550Y723900D01*
X330200Y730250D01*
X311150Y774700D02*
X317500Y781050D01*
X311150Y774700D02*
X311150Y762000D01*
X317500Y755650D01*
X330200Y755650D01*
X336550Y762000D01*
X336550Y774700D01*
X330200Y781050D01*
X317500Y755650D02*
X311150Y749300D01*
X330200Y755650D02*
X336550Y749300D01*
X336550Y736600D01*
X311150Y812800D02*
X311150Y825500D01*
X311150Y812800D02*
X317500Y806450D01*
X330200Y806450D01*
X336550Y812800D01*
X317500Y806450D02*
X311150Y800100D01*
X311150Y787400D01*
X317500Y781050D01*
X330200Y781050D01*
X336550Y787400D01*
X336550Y800100D01*
X330200Y806450D01*
X330200Y831850D02*
X317500Y831850D01*
X311150Y825500D01*
X330200Y831850D02*
X336550Y825500D01*
X336550Y812800D01*
X311150Y647700D02*
X311150Y635000D01*
X317500Y628650D01*
X330200Y628650D01*
X336550Y635000D01*
X317500Y654050D02*
X311150Y647700D01*
X330200Y654050D02*
X336550Y647700D01*
X336550Y635000D01*
D11*
X304927Y808788D02*
X296037Y808788D01*
X295937Y808786D01*
X295838Y808780D01*
X295738Y808770D01*
X295640Y808757D01*
X295541Y808739D01*
X295444Y808718D01*
X295348Y808693D01*
X295252Y808664D01*
X295158Y808631D01*
X295065Y808595D01*
X294974Y808555D01*
X294884Y808511D01*
X294796Y808464D01*
X294710Y808414D01*
X294626Y808360D01*
X294544Y808303D01*
X294465Y808243D01*
X294387Y808179D01*
X294313Y808113D01*
X294241Y808044D01*
X294172Y807972D01*
X294106Y807898D01*
X294042Y807820D01*
X293982Y807741D01*
X293925Y807659D01*
X293871Y807575D01*
X293821Y807489D01*
X293774Y807401D01*
X293730Y807311D01*
X293690Y807220D01*
X293654Y807127D01*
X293621Y807033D01*
X293592Y806937D01*
X293567Y806841D01*
X293546Y806744D01*
X293528Y806645D01*
X293515Y806547D01*
X293505Y806447D01*
X293499Y806348D01*
X293497Y806248D01*
X293497Y804978D01*
X293497Y814769D02*
X304927Y814769D01*
X304927Y817944D01*
X304925Y818055D01*
X304919Y818165D01*
X304910Y818276D01*
X304896Y818386D01*
X304879Y818495D01*
X304858Y818604D01*
X304833Y818712D01*
X304804Y818819D01*
X304772Y818925D01*
X304736Y819030D01*
X304696Y819133D01*
X304653Y819235D01*
X304606Y819336D01*
X304555Y819435D01*
X304502Y819532D01*
X304445Y819626D01*
X304384Y819719D01*
X304321Y819810D01*
X304254Y819899D01*
X304184Y819985D01*
X304111Y820068D01*
X304036Y820150D01*
X303958Y820228D01*
X303876Y820303D01*
X303793Y820376D01*
X303707Y820446D01*
X303618Y820513D01*
X303527Y820576D01*
X303434Y820637D01*
X303340Y820694D01*
X303243Y820747D01*
X303144Y820798D01*
X303043Y820845D01*
X302941Y820888D01*
X302838Y820928D01*
X302733Y820964D01*
X302627Y820996D01*
X302520Y821025D01*
X302412Y821050D01*
X302303Y821071D01*
X302194Y821088D01*
X302084Y821102D01*
X301973Y821111D01*
X301863Y821117D01*
X301752Y821119D01*
X301641Y821117D01*
X301531Y821111D01*
X301420Y821102D01*
X301310Y821088D01*
X301201Y821071D01*
X301092Y821050D01*
X300984Y821025D01*
X300877Y820996D01*
X300771Y820964D01*
X300666Y820928D01*
X300563Y820888D01*
X300461Y820845D01*
X300360Y820798D01*
X300261Y820747D01*
X300165Y820694D01*
X300070Y820637D01*
X299977Y820576D01*
X299886Y820513D01*
X299797Y820446D01*
X299711Y820376D01*
X299628Y820303D01*
X299546Y820228D01*
X299468Y820150D01*
X299393Y820068D01*
X299320Y819985D01*
X299250Y819899D01*
X299183Y819810D01*
X299120Y819719D01*
X299059Y819626D01*
X299002Y819532D01*
X298949Y819435D01*
X298898Y819336D01*
X298851Y819235D01*
X298808Y819133D01*
X298768Y819030D01*
X298732Y818925D01*
X298700Y818819D01*
X298671Y818712D01*
X298646Y818604D01*
X298625Y818495D01*
X298608Y818386D01*
X298594Y818276D01*
X298585Y818165D01*
X298579Y818055D01*
X298577Y817944D01*
X298577Y814769D01*
X302387Y825627D02*
X304927Y828802D01*
X293497Y828802D01*
X293497Y825627D02*
X293497Y831977D01*
D10*
X965200Y425450D02*
X971550Y431800D01*
X965200Y425450D02*
X965200Y412750D01*
X971550Y406400D01*
X984250Y406400D01*
X990600Y412750D01*
X990600Y425450D01*
X984250Y431800D01*
X965200Y463550D02*
X965200Y476250D01*
X965200Y463550D02*
X971550Y457200D01*
X984250Y457200D01*
X990600Y463550D01*
X971550Y457200D02*
X965200Y450850D01*
X965200Y438150D01*
X971550Y431800D01*
X984250Y431800D01*
X990600Y438150D01*
X990600Y450850D01*
X984250Y457200D01*
X984250Y482600D02*
X971550Y482600D01*
X965200Y476250D01*
X984250Y482600D02*
X990600Y476250D01*
X990600Y463550D01*
X965200Y400050D02*
X965200Y387350D01*
X971550Y381000D01*
X984250Y381000D01*
X990600Y387350D01*
X971550Y406400D02*
X965200Y400050D01*
X984250Y406400D02*
X990600Y400050D01*
X990600Y387350D01*
D11*
X958977Y459538D02*
X950087Y459538D01*
X949987Y459536D01*
X949888Y459530D01*
X949788Y459520D01*
X949690Y459507D01*
X949591Y459489D01*
X949494Y459468D01*
X949398Y459443D01*
X949302Y459414D01*
X949208Y459381D01*
X949115Y459345D01*
X949024Y459305D01*
X948934Y459261D01*
X948846Y459214D01*
X948760Y459164D01*
X948676Y459110D01*
X948594Y459053D01*
X948515Y458993D01*
X948437Y458929D01*
X948363Y458863D01*
X948291Y458794D01*
X948222Y458722D01*
X948156Y458648D01*
X948092Y458570D01*
X948032Y458491D01*
X947975Y458409D01*
X947921Y458325D01*
X947871Y458239D01*
X947824Y458151D01*
X947780Y458061D01*
X947740Y457970D01*
X947704Y457877D01*
X947671Y457783D01*
X947642Y457687D01*
X947617Y457591D01*
X947596Y457494D01*
X947578Y457395D01*
X947565Y457297D01*
X947555Y457197D01*
X947549Y457098D01*
X947547Y456998D01*
X947547Y455728D01*
X947547Y465519D02*
X958977Y465519D01*
X958977Y468694D01*
X958975Y468805D01*
X958969Y468915D01*
X958960Y469026D01*
X958946Y469136D01*
X958929Y469245D01*
X958908Y469354D01*
X958883Y469462D01*
X958854Y469569D01*
X958822Y469675D01*
X958786Y469780D01*
X958746Y469883D01*
X958703Y469985D01*
X958656Y470086D01*
X958605Y470185D01*
X958552Y470282D01*
X958495Y470376D01*
X958434Y470469D01*
X958371Y470560D01*
X958304Y470649D01*
X958234Y470735D01*
X958161Y470818D01*
X958086Y470900D01*
X958008Y470978D01*
X957926Y471053D01*
X957843Y471126D01*
X957757Y471196D01*
X957668Y471263D01*
X957577Y471326D01*
X957484Y471387D01*
X957390Y471444D01*
X957293Y471497D01*
X957194Y471548D01*
X957093Y471595D01*
X956991Y471638D01*
X956888Y471678D01*
X956783Y471714D01*
X956677Y471746D01*
X956570Y471775D01*
X956462Y471800D01*
X956353Y471821D01*
X956244Y471838D01*
X956134Y471852D01*
X956023Y471861D01*
X955913Y471867D01*
X955802Y471869D01*
X955691Y471867D01*
X955581Y471861D01*
X955470Y471852D01*
X955360Y471838D01*
X955251Y471821D01*
X955142Y471800D01*
X955034Y471775D01*
X954927Y471746D01*
X954821Y471714D01*
X954716Y471678D01*
X954613Y471638D01*
X954511Y471595D01*
X954410Y471548D01*
X954311Y471497D01*
X954215Y471444D01*
X954120Y471387D01*
X954027Y471326D01*
X953936Y471263D01*
X953847Y471196D01*
X953761Y471126D01*
X953678Y471053D01*
X953596Y470978D01*
X953518Y470900D01*
X953443Y470818D01*
X953370Y470735D01*
X953300Y470649D01*
X953233Y470560D01*
X953170Y470469D01*
X953109Y470376D01*
X953052Y470282D01*
X952999Y470185D01*
X952948Y470086D01*
X952901Y469985D01*
X952858Y469883D01*
X952818Y469780D01*
X952782Y469675D01*
X952750Y469569D01*
X952721Y469462D01*
X952696Y469354D01*
X952675Y469245D01*
X952658Y469136D01*
X952644Y469026D01*
X952635Y468915D01*
X952629Y468805D01*
X952627Y468694D01*
X952627Y465519D01*
X958978Y479870D02*
X958976Y479974D01*
X958970Y480079D01*
X958961Y480183D01*
X958948Y480286D01*
X958930Y480389D01*
X958910Y480491D01*
X958885Y480593D01*
X958857Y480693D01*
X958825Y480793D01*
X958789Y480891D01*
X958750Y480988D01*
X958708Y481083D01*
X958662Y481177D01*
X958612Y481269D01*
X958560Y481359D01*
X958504Y481447D01*
X958444Y481533D01*
X958382Y481617D01*
X958317Y481698D01*
X958249Y481777D01*
X958177Y481854D01*
X958104Y481927D01*
X958027Y481999D01*
X957948Y482067D01*
X957867Y482132D01*
X957783Y482194D01*
X957697Y482254D01*
X957609Y482310D01*
X957519Y482362D01*
X957427Y482412D01*
X957333Y482458D01*
X957238Y482500D01*
X957141Y482539D01*
X957043Y482575D01*
X956943Y482607D01*
X956843Y482635D01*
X956741Y482660D01*
X956639Y482680D01*
X956536Y482698D01*
X956433Y482711D01*
X956329Y482720D01*
X956224Y482726D01*
X956120Y482728D01*
X958977Y479870D02*
X958975Y479752D01*
X958969Y479633D01*
X958960Y479515D01*
X958947Y479398D01*
X958929Y479281D01*
X958909Y479164D01*
X958884Y479048D01*
X958856Y478933D01*
X958823Y478820D01*
X958788Y478707D01*
X958748Y478595D01*
X958706Y478485D01*
X958659Y478376D01*
X958609Y478268D01*
X958556Y478163D01*
X958499Y478059D01*
X958439Y477957D01*
X958376Y477857D01*
X958309Y477759D01*
X958240Y477663D01*
X958167Y477570D01*
X958091Y477479D01*
X958013Y477390D01*
X957931Y477304D01*
X957847Y477221D01*
X957761Y477140D01*
X957671Y477063D01*
X957580Y476988D01*
X957486Y476916D01*
X957389Y476847D01*
X957291Y476782D01*
X957190Y476719D01*
X957087Y476660D01*
X956983Y476604D01*
X956877Y476552D01*
X956769Y476503D01*
X956660Y476458D01*
X956549Y476416D01*
X956437Y476378D01*
X953898Y481775D02*
X953973Y481851D01*
X954052Y481926D01*
X954133Y481997D01*
X954217Y482066D01*
X954303Y482131D01*
X954391Y482193D01*
X954481Y482253D01*
X954573Y482309D01*
X954668Y482362D01*
X954764Y482411D01*
X954862Y482457D01*
X954961Y482500D01*
X955062Y482539D01*
X955164Y482574D01*
X955267Y482606D01*
X955371Y482634D01*
X955476Y482659D01*
X955583Y482680D01*
X955689Y482697D01*
X955796Y482710D01*
X955904Y482719D01*
X956012Y482725D01*
X956120Y482727D01*
X953897Y481775D02*
X947547Y476377D01*
X947547Y482727D01*
D10*
X336550Y304800D02*
X336550Y292100D01*
X336550Y304800D02*
X330200Y311150D01*
X317500Y311150D01*
X311150Y304800D01*
X336550Y266700D02*
X330200Y260350D01*
X336550Y266700D02*
X336550Y279400D01*
X330200Y285750D01*
X317500Y285750D01*
X311150Y279400D01*
X311150Y266700D01*
X317500Y260350D01*
X330200Y285750D02*
X336550Y292100D01*
X317500Y285750D02*
X311150Y292100D01*
X311150Y304800D01*
X336550Y228600D02*
X336550Y215900D01*
X336550Y228600D02*
X330200Y234950D01*
X317500Y234950D01*
X311150Y228600D01*
X330200Y234950D02*
X336550Y241300D01*
X336550Y254000D01*
X330200Y260350D01*
X317500Y260350D01*
X311150Y254000D01*
X311150Y241300D01*
X317500Y234950D01*
X336550Y190500D02*
X330200Y184150D01*
X336550Y190500D02*
X336550Y203200D01*
X330200Y209550D01*
X317500Y209550D01*
X311150Y203200D01*
X311150Y190500D01*
X317500Y184150D01*
X330200Y209550D02*
X336550Y215900D01*
X317500Y209550D02*
X311150Y215900D01*
X311150Y228600D01*
X336550Y152400D02*
X336550Y139700D01*
X336550Y152400D02*
X330200Y158750D01*
X317500Y158750D01*
X311150Y152400D01*
X330200Y158750D02*
X336550Y165100D01*
X336550Y177800D01*
X330200Y184150D01*
X317500Y184150D01*
X311150Y177800D01*
X311150Y165100D01*
X317500Y158750D01*
X317500Y133350D02*
X330200Y133350D01*
X336550Y139700D01*
X317500Y133350D02*
X311150Y139700D01*
X311150Y152400D01*
X336550Y317500D02*
X336550Y330200D01*
X330200Y336550D01*
X317500Y336550D01*
X311150Y330200D01*
X330200Y311150D02*
X336550Y317500D01*
X317500Y311150D02*
X311150Y317500D01*
X311150Y330200D01*
D11*
X345313Y137033D02*
X354203Y137033D01*
X345313Y137033D02*
X345213Y137031D01*
X345114Y137025D01*
X345014Y137015D01*
X344916Y137002D01*
X344817Y136984D01*
X344720Y136963D01*
X344624Y136938D01*
X344528Y136909D01*
X344434Y136876D01*
X344341Y136840D01*
X344250Y136800D01*
X344160Y136756D01*
X344072Y136709D01*
X343986Y136659D01*
X343902Y136605D01*
X343820Y136548D01*
X343741Y136488D01*
X343663Y136424D01*
X343589Y136358D01*
X343517Y136289D01*
X343448Y136217D01*
X343382Y136143D01*
X343318Y136065D01*
X343258Y135986D01*
X343201Y135904D01*
X343147Y135820D01*
X343097Y135734D01*
X343050Y135646D01*
X343006Y135556D01*
X342966Y135465D01*
X342930Y135372D01*
X342897Y135278D01*
X342868Y135182D01*
X342843Y135086D01*
X342822Y134989D01*
X342804Y134890D01*
X342791Y134792D01*
X342781Y134692D01*
X342775Y134593D01*
X342773Y134493D01*
X342773Y133223D01*
X342773Y143013D02*
X354203Y143013D01*
X354203Y146188D01*
X354201Y146299D01*
X354195Y146409D01*
X354186Y146520D01*
X354172Y146630D01*
X354155Y146739D01*
X354134Y146848D01*
X354109Y146956D01*
X354080Y147063D01*
X354048Y147169D01*
X354012Y147274D01*
X353972Y147377D01*
X353929Y147479D01*
X353882Y147580D01*
X353831Y147679D01*
X353778Y147776D01*
X353721Y147870D01*
X353660Y147963D01*
X353597Y148054D01*
X353530Y148143D01*
X353460Y148229D01*
X353387Y148312D01*
X353312Y148394D01*
X353234Y148472D01*
X353152Y148547D01*
X353069Y148620D01*
X352983Y148690D01*
X352894Y148757D01*
X352803Y148820D01*
X352710Y148881D01*
X352616Y148938D01*
X352519Y148991D01*
X352420Y149042D01*
X352319Y149089D01*
X352217Y149132D01*
X352114Y149172D01*
X352009Y149208D01*
X351903Y149240D01*
X351796Y149269D01*
X351688Y149294D01*
X351579Y149315D01*
X351470Y149332D01*
X351360Y149346D01*
X351249Y149355D01*
X351139Y149361D01*
X351028Y149363D01*
X350917Y149361D01*
X350807Y149355D01*
X350696Y149346D01*
X350586Y149332D01*
X350477Y149315D01*
X350368Y149294D01*
X350260Y149269D01*
X350153Y149240D01*
X350047Y149208D01*
X349942Y149172D01*
X349839Y149132D01*
X349737Y149089D01*
X349636Y149042D01*
X349537Y148991D01*
X349441Y148938D01*
X349346Y148881D01*
X349253Y148820D01*
X349162Y148757D01*
X349073Y148690D01*
X348987Y148620D01*
X348904Y148547D01*
X348822Y148472D01*
X348744Y148394D01*
X348669Y148312D01*
X348596Y148229D01*
X348526Y148143D01*
X348459Y148054D01*
X348396Y147963D01*
X348335Y147870D01*
X348278Y147776D01*
X348225Y147679D01*
X348174Y147580D01*
X348127Y147479D01*
X348084Y147377D01*
X348044Y147274D01*
X348008Y147169D01*
X347976Y147063D01*
X347947Y146956D01*
X347922Y146848D01*
X347901Y146739D01*
X347884Y146630D01*
X347870Y146520D01*
X347861Y146409D01*
X347855Y146299D01*
X347853Y146188D01*
X347853Y143013D01*
X342773Y153872D02*
X342773Y157047D01*
X342775Y157158D01*
X342781Y157268D01*
X342790Y157379D01*
X342804Y157489D01*
X342821Y157598D01*
X342842Y157707D01*
X342867Y157815D01*
X342896Y157922D01*
X342928Y158028D01*
X342964Y158133D01*
X343004Y158236D01*
X343047Y158338D01*
X343094Y158439D01*
X343145Y158538D01*
X343198Y158635D01*
X343255Y158729D01*
X343316Y158822D01*
X343379Y158913D01*
X343446Y159002D01*
X343516Y159088D01*
X343589Y159171D01*
X343664Y159253D01*
X343742Y159331D01*
X343824Y159406D01*
X343907Y159479D01*
X343993Y159549D01*
X344082Y159616D01*
X344173Y159679D01*
X344266Y159740D01*
X344361Y159797D01*
X344457Y159850D01*
X344556Y159901D01*
X344657Y159948D01*
X344759Y159991D01*
X344862Y160031D01*
X344967Y160067D01*
X345073Y160099D01*
X345180Y160128D01*
X345288Y160153D01*
X345397Y160174D01*
X345506Y160191D01*
X345616Y160205D01*
X345727Y160214D01*
X345837Y160220D01*
X345948Y160222D01*
X346059Y160220D01*
X346169Y160214D01*
X346280Y160205D01*
X346390Y160191D01*
X346499Y160174D01*
X346608Y160153D01*
X346716Y160128D01*
X346823Y160099D01*
X346929Y160067D01*
X347034Y160031D01*
X347137Y159991D01*
X347239Y159948D01*
X347340Y159901D01*
X347439Y159850D01*
X347536Y159797D01*
X347630Y159740D01*
X347723Y159679D01*
X347814Y159616D01*
X347903Y159549D01*
X347989Y159479D01*
X348072Y159406D01*
X348154Y159331D01*
X348232Y159253D01*
X348307Y159171D01*
X348380Y159088D01*
X348450Y159002D01*
X348517Y158913D01*
X348580Y158822D01*
X348641Y158729D01*
X348698Y158635D01*
X348751Y158538D01*
X348802Y158439D01*
X348849Y158338D01*
X348892Y158236D01*
X348932Y158133D01*
X348968Y158028D01*
X349000Y157922D01*
X349029Y157815D01*
X349054Y157707D01*
X349075Y157598D01*
X349092Y157489D01*
X349106Y157379D01*
X349115Y157268D01*
X349121Y157158D01*
X349123Y157047D01*
X354203Y157682D02*
X354203Y153872D01*
X354203Y157682D02*
X354201Y157782D01*
X354195Y157881D01*
X354185Y157981D01*
X354172Y158079D01*
X354154Y158178D01*
X354133Y158275D01*
X354108Y158371D01*
X354079Y158467D01*
X354046Y158561D01*
X354010Y158654D01*
X353970Y158745D01*
X353926Y158835D01*
X353879Y158923D01*
X353829Y159009D01*
X353775Y159093D01*
X353718Y159175D01*
X353658Y159254D01*
X353594Y159332D01*
X353528Y159406D01*
X353459Y159478D01*
X353387Y159547D01*
X353313Y159613D01*
X353235Y159677D01*
X353156Y159737D01*
X353074Y159794D01*
X352990Y159848D01*
X352904Y159898D01*
X352816Y159945D01*
X352726Y159989D01*
X352635Y160029D01*
X352542Y160065D01*
X352448Y160098D01*
X352352Y160127D01*
X352256Y160152D01*
X352159Y160173D01*
X352060Y160191D01*
X351962Y160204D01*
X351862Y160214D01*
X351763Y160220D01*
X351663Y160222D01*
X351563Y160220D01*
X351464Y160214D01*
X351364Y160204D01*
X351266Y160191D01*
X351167Y160173D01*
X351070Y160152D01*
X350974Y160127D01*
X350878Y160098D01*
X350784Y160065D01*
X350691Y160029D01*
X350600Y159989D01*
X350510Y159945D01*
X350422Y159898D01*
X350336Y159848D01*
X350252Y159794D01*
X350170Y159737D01*
X350091Y159677D01*
X350013Y159613D01*
X349939Y159547D01*
X349867Y159478D01*
X349798Y159406D01*
X349732Y159332D01*
X349668Y159254D01*
X349608Y159175D01*
X349551Y159093D01*
X349497Y159009D01*
X349447Y158923D01*
X349400Y158835D01*
X349356Y158745D01*
X349316Y158654D01*
X349280Y158561D01*
X349247Y158467D01*
X349218Y158371D01*
X349193Y158275D01*
X349172Y158178D01*
X349154Y158079D01*
X349141Y157981D01*
X349131Y157881D01*
X349125Y157782D01*
X349123Y157682D01*
X349123Y155142D01*
D10*
X336550Y539750D02*
X336550Y552450D01*
X330200Y558800D01*
X317500Y558800D01*
X311150Y552450D01*
X336550Y514350D02*
X330200Y508000D01*
X336550Y514350D02*
X336550Y527050D01*
X330200Y533400D01*
X317500Y533400D01*
X311150Y527050D01*
X311150Y514350D01*
X317500Y508000D01*
X330200Y533400D02*
X336550Y539750D01*
X317500Y533400D02*
X311150Y539750D01*
X311150Y552450D01*
X336550Y476250D02*
X336550Y463550D01*
X336550Y476250D02*
X330200Y482600D01*
X317500Y482600D01*
X311150Y476250D01*
X330200Y482600D02*
X336550Y488950D01*
X336550Y501650D01*
X330200Y508000D01*
X317500Y508000D01*
X311150Y501650D01*
X311150Y488950D01*
X317500Y482600D01*
X336550Y438150D02*
X330200Y431800D01*
X336550Y438150D02*
X336550Y450850D01*
X330200Y457200D01*
X317500Y457200D01*
X311150Y450850D01*
X311150Y438150D01*
X317500Y431800D01*
X330200Y457200D02*
X336550Y463550D01*
X317500Y457200D02*
X311150Y463550D01*
X311150Y476250D01*
X336550Y400050D02*
X336550Y387350D01*
X336550Y400050D02*
X330200Y406400D01*
X317500Y406400D01*
X311150Y400050D01*
X330200Y406400D02*
X336550Y412750D01*
X336550Y425450D01*
X330200Y431800D01*
X317500Y431800D01*
X311150Y425450D01*
X311150Y412750D01*
X317500Y406400D01*
X317500Y381000D02*
X330200Y381000D01*
X336550Y387350D01*
X317500Y381000D02*
X311150Y387350D01*
X311150Y400050D01*
X336550Y565150D02*
X336550Y577850D01*
X330200Y584200D01*
X317500Y584200D01*
X311150Y577850D01*
X330200Y558800D02*
X336550Y565150D01*
X317500Y558800D02*
X311150Y565150D01*
X311150Y577850D01*
D11*
X345313Y384683D02*
X354203Y384683D01*
X345313Y384683D02*
X345213Y384681D01*
X345114Y384675D01*
X345014Y384665D01*
X344916Y384652D01*
X344817Y384634D01*
X344720Y384613D01*
X344624Y384588D01*
X344528Y384559D01*
X344434Y384526D01*
X344341Y384490D01*
X344250Y384450D01*
X344160Y384406D01*
X344072Y384359D01*
X343986Y384309D01*
X343902Y384255D01*
X343820Y384198D01*
X343741Y384138D01*
X343663Y384074D01*
X343589Y384008D01*
X343517Y383939D01*
X343448Y383867D01*
X343382Y383793D01*
X343318Y383715D01*
X343258Y383636D01*
X343201Y383554D01*
X343147Y383470D01*
X343097Y383384D01*
X343050Y383296D01*
X343006Y383206D01*
X342966Y383115D01*
X342930Y383022D01*
X342897Y382928D01*
X342868Y382832D01*
X342843Y382736D01*
X342822Y382639D01*
X342804Y382540D01*
X342791Y382442D01*
X342781Y382342D01*
X342775Y382243D01*
X342773Y382143D01*
X342773Y380873D01*
X342773Y390663D02*
X354203Y390663D01*
X354203Y393838D01*
X354201Y393949D01*
X354195Y394059D01*
X354186Y394170D01*
X354172Y394280D01*
X354155Y394389D01*
X354134Y394498D01*
X354109Y394606D01*
X354080Y394713D01*
X354048Y394819D01*
X354012Y394924D01*
X353972Y395027D01*
X353929Y395129D01*
X353882Y395230D01*
X353831Y395329D01*
X353778Y395426D01*
X353721Y395520D01*
X353660Y395613D01*
X353597Y395704D01*
X353530Y395793D01*
X353460Y395879D01*
X353387Y395962D01*
X353312Y396044D01*
X353234Y396122D01*
X353152Y396197D01*
X353069Y396270D01*
X352983Y396340D01*
X352894Y396407D01*
X352803Y396470D01*
X352710Y396531D01*
X352616Y396588D01*
X352519Y396641D01*
X352420Y396692D01*
X352319Y396739D01*
X352217Y396782D01*
X352114Y396822D01*
X352009Y396858D01*
X351903Y396890D01*
X351796Y396919D01*
X351688Y396944D01*
X351579Y396965D01*
X351470Y396982D01*
X351360Y396996D01*
X351249Y397005D01*
X351139Y397011D01*
X351028Y397013D01*
X350917Y397011D01*
X350807Y397005D01*
X350696Y396996D01*
X350586Y396982D01*
X350477Y396965D01*
X350368Y396944D01*
X350260Y396919D01*
X350153Y396890D01*
X350047Y396858D01*
X349942Y396822D01*
X349839Y396782D01*
X349737Y396739D01*
X349636Y396692D01*
X349537Y396641D01*
X349441Y396588D01*
X349346Y396531D01*
X349253Y396470D01*
X349162Y396407D01*
X349073Y396340D01*
X348987Y396270D01*
X348904Y396197D01*
X348822Y396122D01*
X348744Y396044D01*
X348669Y395962D01*
X348596Y395879D01*
X348526Y395793D01*
X348459Y395704D01*
X348396Y395613D01*
X348335Y395520D01*
X348278Y395426D01*
X348225Y395329D01*
X348174Y395230D01*
X348127Y395129D01*
X348084Y395027D01*
X348044Y394924D01*
X348008Y394819D01*
X347976Y394713D01*
X347947Y394606D01*
X347922Y394498D01*
X347901Y394389D01*
X347884Y394280D01*
X347870Y394170D01*
X347861Y394059D01*
X347855Y393949D01*
X347853Y393838D01*
X347853Y390663D01*
X345313Y401522D02*
X354203Y404062D01*
X345313Y401522D02*
X345313Y407872D01*
X347853Y405967D02*
X342773Y405967D01*
D12*
X958850Y304800D02*
X996950Y304800D01*
D13*
X997566Y304326D01*
X998171Y303837D01*
X998763Y303333D01*
X999343Y302815D01*
X999910Y302283D01*
X1000464Y301737D01*
X1001004Y301178D01*
X1001530Y300605D01*
X1002043Y300020D01*
X1002540Y299423D01*
X1003023Y298814D01*
X1003491Y298193D01*
X1003944Y297560D01*
X1004381Y296917D01*
X1004802Y296263D01*
X1005206Y295599D01*
X1005595Y294926D01*
X1005967Y294243D01*
X1006322Y293551D01*
X1006660Y292851D01*
X1006981Y292143D01*
X1007284Y291427D01*
X1007570Y290703D01*
X1007838Y289974D01*
X1008088Y289237D01*
X1008319Y288495D01*
X1008533Y287747D01*
X1008728Y286995D01*
X1008905Y286237D01*
X1009063Y285476D01*
X1009203Y284711D01*
X1009323Y283943D01*
X1009425Y283172D01*
X1009508Y282399D01*
X1009572Y281624D01*
X1009617Y280848D01*
X1009643Y280071D01*
X1009650Y279293D01*
X1009638Y278516D01*
X1009607Y277739D01*
X1009556Y276963D01*
X1009487Y276188D01*
X1009399Y275416D01*
X1009292Y274646D01*
X1009166Y273878D01*
X1009022Y273114D01*
X1008858Y272354D01*
X1008676Y271598D01*
X1008476Y270847D01*
X1008258Y270100D01*
X1008021Y269360D01*
X1007766Y268625D01*
X1007493Y267897D01*
X1007202Y267176D01*
X1006894Y266462D01*
X1006569Y265756D01*
X1006226Y265058D01*
X1005866Y264368D01*
X1005490Y263688D01*
X1005097Y263017D01*
X1004687Y262356D01*
X1004262Y261705D01*
X1003821Y261065D01*
X1003364Y260436D01*
X1002892Y259818D01*
X1002405Y259212D01*
X1001903Y258618D01*
X1001387Y258036D01*
X1000857Y257467D01*
X1000313Y256912D01*
X999755Y256369D01*
X999185Y255841D01*
X998602Y255327D01*
X998006Y254827D01*
X997398Y254342D01*
X996779Y253872D01*
X996148Y253418D01*
X995506Y252979D01*
X994854Y252555D01*
X994191Y252148D01*
X993519Y251757D01*
X992837Y251383D01*
X992147Y251026D01*
X991448Y250686D01*
X990740Y250362D01*
X990026Y250057D01*
X989303Y249768D01*
X988574Y249498D01*
X987839Y249246D01*
X987097Y249011D01*
X986350Y248795D01*
X985598Y248597D01*
X984842Y248418D01*
X984081Y248257D01*
X983317Y248115D01*
X982549Y247992D01*
X981778Y247888D01*
X981005Y247802D01*
X980231Y247736D01*
X979455Y247688D01*
X978678Y247660D01*
X977900Y247650D01*
X977122Y247660D01*
X976345Y247688D01*
X975569Y247736D01*
X974795Y247802D01*
X974022Y247888D01*
X973251Y247992D01*
X972483Y248115D01*
X971719Y248257D01*
X970958Y248418D01*
X970202Y248597D01*
X969450Y248795D01*
X968703Y249011D01*
X967961Y249246D01*
X967226Y249498D01*
X966497Y249768D01*
X965774Y250057D01*
X965060Y250362D01*
X964352Y250686D01*
X963653Y251026D01*
X962963Y251383D01*
X962281Y251757D01*
X961609Y252148D01*
X960946Y252555D01*
X960294Y252979D01*
X959652Y253418D01*
X959021Y253872D01*
X958402Y254342D01*
X957794Y254827D01*
X957198Y255327D01*
X956615Y255841D01*
X956045Y256369D01*
X955487Y256912D01*
X954943Y257467D01*
X954413Y258036D01*
X953897Y258618D01*
X953395Y259212D01*
X952908Y259818D01*
X952436Y260436D01*
X951979Y261065D01*
X951538Y261705D01*
X951113Y262356D01*
X950703Y263017D01*
X950310Y263688D01*
X949934Y264368D01*
X949574Y265058D01*
X949231Y265756D01*
X948906Y266462D01*
X948598Y267176D01*
X948307Y267897D01*
X948034Y268625D01*
X947779Y269360D01*
X947542Y270100D01*
X947324Y270847D01*
X947124Y271598D01*
X946942Y272354D01*
X946778Y273114D01*
X946634Y273878D01*
X946508Y274646D01*
X946401Y275416D01*
X946313Y276188D01*
X946244Y276963D01*
X946193Y277739D01*
X946162Y278516D01*
X946150Y279293D01*
X946157Y280071D01*
X946183Y280848D01*
X946228Y281624D01*
X946292Y282399D01*
X946375Y283172D01*
X946477Y283943D01*
X946597Y284711D01*
X946737Y285476D01*
X946895Y286237D01*
X947072Y286995D01*
X947267Y287747D01*
X947481Y288495D01*
X947712Y289237D01*
X947962Y289974D01*
X948230Y290703D01*
X948516Y291427D01*
X948819Y292143D01*
X949140Y292851D01*
X949478Y293551D01*
X949833Y294243D01*
X950205Y294926D01*
X950594Y295599D01*
X950998Y296263D01*
X951419Y296917D01*
X951856Y297560D01*
X952309Y298193D01*
X952777Y298814D01*
X953260Y299423D01*
X953757Y300020D01*
X954270Y300605D01*
X954796Y301178D01*
X955336Y301737D01*
X955890Y302283D01*
X956457Y302815D01*
X957037Y303333D01*
X957629Y303837D01*
X958234Y304326D01*
X958850Y304800D01*
D10*
X952500Y279400D02*
X952508Y280023D01*
X952531Y280646D01*
X952569Y281269D01*
X952622Y281890D01*
X952691Y282509D01*
X952775Y283127D01*
X952874Y283742D01*
X952988Y284355D01*
X953117Y284965D01*
X953261Y285572D01*
X953420Y286175D01*
X953594Y286773D01*
X953782Y287368D01*
X953985Y287957D01*
X954202Y288541D01*
X954433Y289120D01*
X954679Y289693D01*
X954939Y290260D01*
X955212Y290820D01*
X955499Y291373D01*
X955800Y291920D01*
X956114Y292458D01*
X956441Y292989D01*
X956781Y293511D01*
X957133Y294026D01*
X957499Y294531D01*
X957876Y295027D01*
X958266Y295514D01*
X958667Y295991D01*
X959080Y296458D01*
X959504Y296914D01*
X959939Y297361D01*
X960386Y297796D01*
X960842Y298220D01*
X961309Y298633D01*
X961786Y299034D01*
X962273Y299424D01*
X962769Y299801D01*
X963274Y300167D01*
X963789Y300519D01*
X964311Y300859D01*
X964842Y301186D01*
X965380Y301500D01*
X965927Y301801D01*
X966480Y302088D01*
X967040Y302361D01*
X967607Y302621D01*
X968180Y302867D01*
X968759Y303098D01*
X969343Y303315D01*
X969932Y303518D01*
X970527Y303706D01*
X971125Y303880D01*
X971728Y304039D01*
X972335Y304183D01*
X972945Y304312D01*
X973558Y304426D01*
X974173Y304525D01*
X974791Y304609D01*
X975410Y304678D01*
X976031Y304731D01*
X976654Y304769D01*
X977277Y304792D01*
X977900Y304800D01*
X978523Y304792D01*
X979146Y304769D01*
X979769Y304731D01*
X980390Y304678D01*
X981009Y304609D01*
X981627Y304525D01*
X982242Y304426D01*
X982855Y304312D01*
X983465Y304183D01*
X984072Y304039D01*
X984675Y303880D01*
X985273Y303706D01*
X985868Y303518D01*
X986457Y303315D01*
X987041Y303098D01*
X987620Y302867D01*
X988193Y302621D01*
X988760Y302361D01*
X989320Y302088D01*
X989873Y301801D01*
X990420Y301500D01*
X990958Y301186D01*
X991489Y300859D01*
X992011Y300519D01*
X992526Y300167D01*
X993031Y299801D01*
X993527Y299424D01*
X994014Y299034D01*
X994491Y298633D01*
X994958Y298220D01*
X995414Y297796D01*
X995861Y297361D01*
X996296Y296914D01*
X996720Y296458D01*
X997133Y295991D01*
X997534Y295514D01*
X997924Y295027D01*
X998301Y294531D01*
X998667Y294026D01*
X999019Y293511D01*
X999359Y292989D01*
X999686Y292458D01*
X1000000Y291920D01*
X1000301Y291373D01*
X1000588Y290820D01*
X1000861Y290260D01*
X1001121Y289693D01*
X1001367Y289120D01*
X1001598Y288541D01*
X1001815Y287957D01*
X1002018Y287368D01*
X1002206Y286773D01*
X1002380Y286175D01*
X1002539Y285572D01*
X1002683Y284965D01*
X1002812Y284355D01*
X1002926Y283742D01*
X1003025Y283127D01*
X1003109Y282509D01*
X1003178Y281890D01*
X1003231Y281269D01*
X1003269Y280646D01*
X1003292Y280023D01*
X1003300Y279400D01*
X1003292Y278777D01*
X1003269Y278154D01*
X1003231Y277531D01*
X1003178Y276910D01*
X1003109Y276291D01*
X1003025Y275673D01*
X1002926Y275058D01*
X1002812Y274445D01*
X1002683Y273835D01*
X1002539Y273228D01*
X1002380Y272625D01*
X1002206Y272027D01*
X1002018Y271432D01*
X1001815Y270843D01*
X1001598Y270259D01*
X1001367Y269680D01*
X1001121Y269107D01*
X1000861Y268540D01*
X1000588Y267980D01*
X1000301Y267427D01*
X1000000Y266880D01*
X999686Y266342D01*
X999359Y265811D01*
X999019Y265289D01*
X998667Y264774D01*
X998301Y264269D01*
X997924Y263773D01*
X997534Y263286D01*
X997133Y262809D01*
X996720Y262342D01*
X996296Y261886D01*
X995861Y261439D01*
X995414Y261004D01*
X994958Y260580D01*
X994491Y260167D01*
X994014Y259766D01*
X993527Y259376D01*
X993031Y258999D01*
X992526Y258633D01*
X992011Y258281D01*
X991489Y257941D01*
X990958Y257614D01*
X990420Y257300D01*
X989873Y256999D01*
X989320Y256712D01*
X988760Y256439D01*
X988193Y256179D01*
X987620Y255933D01*
X987041Y255702D01*
X986457Y255485D01*
X985868Y255282D01*
X985273Y255094D01*
X984675Y254920D01*
X984072Y254761D01*
X983465Y254617D01*
X982855Y254488D01*
X982242Y254374D01*
X981627Y254275D01*
X981009Y254191D01*
X980390Y254122D01*
X979769Y254069D01*
X979146Y254031D01*
X978523Y254008D01*
X977900Y254000D01*
X977277Y254008D01*
X976654Y254031D01*
X976031Y254069D01*
X975410Y254122D01*
X974791Y254191D01*
X974173Y254275D01*
X973558Y254374D01*
X972945Y254488D01*
X972335Y254617D01*
X971728Y254761D01*
X971125Y254920D01*
X970527Y255094D01*
X969932Y255282D01*
X969343Y255485D01*
X968759Y255702D01*
X968180Y255933D01*
X967607Y256179D01*
X967040Y256439D01*
X966480Y256712D01*
X965927Y256999D01*
X965380Y257300D01*
X964842Y257614D01*
X964311Y257941D01*
X963789Y258281D01*
X963274Y258633D01*
X962769Y258999D01*
X962273Y259376D01*
X961786Y259766D01*
X961309Y260167D01*
X960842Y260580D01*
X960386Y261004D01*
X959939Y261439D01*
X959504Y261886D01*
X959080Y262342D01*
X958667Y262809D01*
X958266Y263286D01*
X957876Y263773D01*
X957499Y264269D01*
X957133Y264774D01*
X956781Y265289D01*
X956441Y265811D01*
X956114Y266342D01*
X955800Y266880D01*
X955499Y267427D01*
X955212Y267980D01*
X954939Y268540D01*
X954679Y269107D01*
X954433Y269680D01*
X954202Y270259D01*
X953985Y270843D01*
X953782Y271432D01*
X953594Y272027D01*
X953420Y272625D01*
X953261Y273228D01*
X953117Y273835D01*
X952988Y274445D01*
X952874Y275058D01*
X952775Y275673D01*
X952691Y276291D01*
X952622Y276910D01*
X952569Y277531D01*
X952531Y278154D01*
X952508Y278777D01*
X952500Y279400D01*
D11*
X983869Y311785D02*
X995299Y311785D01*
X983869Y311785D02*
X983869Y316865D01*
X983869Y321691D02*
X983869Y326771D01*
X983869Y321691D02*
X995299Y321691D01*
X995299Y326771D01*
X990219Y325501D02*
X990219Y321691D01*
X995299Y331572D02*
X983869Y331572D01*
X995299Y331572D02*
X995299Y334747D01*
X995297Y334858D01*
X995291Y334968D01*
X995282Y335079D01*
X995268Y335189D01*
X995251Y335298D01*
X995230Y335407D01*
X995205Y335515D01*
X995176Y335622D01*
X995144Y335728D01*
X995108Y335833D01*
X995068Y335936D01*
X995025Y336038D01*
X994978Y336139D01*
X994927Y336238D01*
X994874Y336335D01*
X994817Y336429D01*
X994756Y336522D01*
X994693Y336613D01*
X994626Y336702D01*
X994556Y336788D01*
X994483Y336871D01*
X994408Y336953D01*
X994330Y337031D01*
X994248Y337106D01*
X994165Y337179D01*
X994079Y337249D01*
X993990Y337316D01*
X993899Y337379D01*
X993806Y337440D01*
X993712Y337497D01*
X993615Y337550D01*
X993516Y337601D01*
X993415Y337648D01*
X993313Y337691D01*
X993210Y337731D01*
X993105Y337767D01*
X992999Y337799D01*
X992892Y337828D01*
X992784Y337853D01*
X992675Y337874D01*
X992566Y337891D01*
X992456Y337905D01*
X992345Y337914D01*
X992235Y337920D01*
X992124Y337922D01*
X987044Y337922D01*
X986933Y337920D01*
X986823Y337914D01*
X986712Y337905D01*
X986602Y337891D01*
X986493Y337874D01*
X986384Y337853D01*
X986276Y337828D01*
X986169Y337799D01*
X986063Y337767D01*
X985958Y337731D01*
X985855Y337691D01*
X985753Y337648D01*
X985652Y337601D01*
X985553Y337550D01*
X985457Y337497D01*
X985362Y337440D01*
X985269Y337379D01*
X985178Y337316D01*
X985089Y337249D01*
X985003Y337179D01*
X984920Y337106D01*
X984838Y337031D01*
X984760Y336953D01*
X984685Y336871D01*
X984612Y336788D01*
X984542Y336702D01*
X984475Y336613D01*
X984412Y336522D01*
X984351Y336429D01*
X984294Y336335D01*
X984241Y336238D01*
X984190Y336139D01*
X984143Y336038D01*
X984100Y335936D01*
X984060Y335833D01*
X984024Y335728D01*
X983992Y335622D01*
X983963Y335515D01*
X983938Y335407D01*
X983917Y335298D01*
X983900Y335189D01*
X983886Y335079D01*
X983877Y334968D01*
X983871Y334858D01*
X983869Y334747D01*
X983869Y331572D01*
X992759Y343383D02*
X995299Y346558D01*
X983869Y346558D01*
X983869Y343383D02*
X983869Y349733D01*
D12*
X829300Y361400D02*
X796300Y361400D01*
X829300Y361400D02*
X829300Y451400D01*
X796300Y451400D01*
X796300Y361400D01*
D11*
X838835Y362585D02*
X845693Y362585D01*
X845693Y364490D01*
X845691Y364575D01*
X845685Y364661D01*
X845676Y364746D01*
X845662Y364830D01*
X845645Y364914D01*
X845624Y364997D01*
X845600Y365079D01*
X845572Y365159D01*
X845540Y365239D01*
X845504Y365317D01*
X845466Y365393D01*
X845423Y365467D01*
X845378Y365539D01*
X845329Y365610D01*
X845277Y365678D01*
X845223Y365743D01*
X845165Y365806D01*
X845104Y365867D01*
X845041Y365925D01*
X844976Y365979D01*
X844908Y366031D01*
X844837Y366080D01*
X844765Y366125D01*
X844691Y366168D01*
X844615Y366206D01*
X844537Y366242D01*
X844457Y366274D01*
X844377Y366302D01*
X844295Y366326D01*
X844212Y366347D01*
X844128Y366364D01*
X844044Y366378D01*
X843959Y366387D01*
X843873Y366393D01*
X843788Y366395D01*
X843703Y366393D01*
X843617Y366387D01*
X843532Y366378D01*
X843448Y366364D01*
X843364Y366347D01*
X843281Y366326D01*
X843199Y366302D01*
X843119Y366274D01*
X843039Y366242D01*
X842961Y366206D01*
X842885Y366168D01*
X842811Y366125D01*
X842739Y366080D01*
X842668Y366031D01*
X842600Y365979D01*
X842535Y365925D01*
X842472Y365867D01*
X842411Y365806D01*
X842353Y365743D01*
X842299Y365678D01*
X842247Y365610D01*
X842198Y365539D01*
X842153Y365467D01*
X842110Y365393D01*
X842072Y365317D01*
X842036Y365239D01*
X842004Y365159D01*
X841976Y365079D01*
X841952Y364997D01*
X841931Y364914D01*
X841914Y364830D01*
X841900Y364746D01*
X841891Y364661D01*
X841885Y364575D01*
X841883Y364490D01*
X841883Y362585D01*
X841883Y364871D02*
X838835Y366395D01*
X844169Y369831D02*
X845693Y371736D01*
X838835Y371736D01*
X838835Y369831D02*
X838835Y373641D01*
M02*
