G04 EAGLE Gerber X2 export*
%TF.Part,Single*%
%TF.FileFunction,Legend,Top,1*%
%TF.FilePolarity,Positive*%
%TF.GenerationSoftware,Autodesk,EAGLE,9.0.0*%
%TF.CreationDate,2018-10-21T06:38:59Z*%
G75*
%MOMM*%
%FSLAX34Y34*%
%LPD*%
%AMOC8*
5,1,8,0,0,1.08239X$1,22.5*%
G01*
%ADD10C,0.152400*%
%ADD11C,0.050800*%
%ADD12C,0.127000*%


D10*
X551942Y389890D02*
X551942Y295910D01*
X591058Y389890D02*
X591056Y390012D01*
X591050Y390134D01*
X591040Y390256D01*
X591027Y390377D01*
X591009Y390498D01*
X590988Y390618D01*
X590962Y390738D01*
X590933Y390856D01*
X590901Y390974D01*
X590864Y391091D01*
X590824Y391206D01*
X590780Y391320D01*
X590732Y391432D01*
X590681Y391543D01*
X590626Y391652D01*
X590568Y391760D01*
X590506Y391865D01*
X590441Y391968D01*
X590373Y392070D01*
X590301Y392169D01*
X590227Y392265D01*
X590149Y392360D01*
X590068Y392451D01*
X589985Y392541D01*
X589899Y392627D01*
X589809Y392710D01*
X589718Y392791D01*
X589623Y392869D01*
X589527Y392943D01*
X589428Y393015D01*
X589326Y393083D01*
X589223Y393148D01*
X589118Y393210D01*
X589010Y393268D01*
X588901Y393323D01*
X588790Y393374D01*
X588678Y393422D01*
X588564Y393466D01*
X588449Y393506D01*
X588332Y393543D01*
X588214Y393575D01*
X588096Y393604D01*
X587976Y393630D01*
X587856Y393651D01*
X587735Y393669D01*
X587614Y393682D01*
X587492Y393692D01*
X587370Y393698D01*
X587248Y393700D01*
X551942Y295910D02*
X551944Y295788D01*
X551950Y295666D01*
X551960Y295544D01*
X551973Y295423D01*
X551991Y295302D01*
X552012Y295182D01*
X552038Y295062D01*
X552067Y294944D01*
X552099Y294826D01*
X552136Y294709D01*
X552176Y294594D01*
X552220Y294480D01*
X552268Y294368D01*
X552319Y294257D01*
X552374Y294148D01*
X552432Y294040D01*
X552494Y293935D01*
X552559Y293832D01*
X552627Y293730D01*
X552699Y293631D01*
X552773Y293535D01*
X552851Y293440D01*
X552932Y293349D01*
X553015Y293259D01*
X553101Y293173D01*
X553191Y293090D01*
X553282Y293009D01*
X553377Y292931D01*
X553473Y292857D01*
X553572Y292785D01*
X553674Y292717D01*
X553777Y292652D01*
X553882Y292590D01*
X553990Y292532D01*
X554099Y292477D01*
X554210Y292426D01*
X554322Y292378D01*
X554436Y292334D01*
X554551Y292294D01*
X554668Y292257D01*
X554786Y292225D01*
X554904Y292196D01*
X555024Y292170D01*
X555144Y292149D01*
X555265Y292131D01*
X555386Y292118D01*
X555508Y292108D01*
X555630Y292102D01*
X555752Y292100D01*
X551942Y389890D02*
X551944Y390012D01*
X551950Y390134D01*
X551960Y390256D01*
X551973Y390377D01*
X551991Y390498D01*
X552012Y390618D01*
X552038Y390738D01*
X552067Y390856D01*
X552099Y390974D01*
X552136Y391091D01*
X552176Y391206D01*
X552220Y391320D01*
X552268Y391432D01*
X552319Y391543D01*
X552374Y391652D01*
X552432Y391760D01*
X552494Y391865D01*
X552559Y391968D01*
X552627Y392070D01*
X552699Y392169D01*
X552773Y392265D01*
X552851Y392360D01*
X552932Y392451D01*
X553015Y392541D01*
X553101Y392627D01*
X553191Y392710D01*
X553282Y392791D01*
X553377Y392869D01*
X553473Y392943D01*
X553572Y393015D01*
X553674Y393083D01*
X553777Y393148D01*
X553882Y393210D01*
X553990Y393268D01*
X554099Y393323D01*
X554210Y393374D01*
X554322Y393422D01*
X554436Y393466D01*
X554551Y393506D01*
X554668Y393543D01*
X554786Y393575D01*
X554904Y393604D01*
X555024Y393630D01*
X555144Y393651D01*
X555265Y393669D01*
X555386Y393682D01*
X555508Y393692D01*
X555630Y393698D01*
X555752Y393700D01*
X591058Y295910D02*
X591056Y295788D01*
X591050Y295666D01*
X591040Y295544D01*
X591027Y295423D01*
X591009Y295302D01*
X590988Y295182D01*
X590962Y295062D01*
X590933Y294944D01*
X590901Y294826D01*
X590864Y294709D01*
X590824Y294594D01*
X590780Y294480D01*
X590732Y294368D01*
X590681Y294257D01*
X590626Y294148D01*
X590568Y294040D01*
X590506Y293935D01*
X590441Y293832D01*
X590373Y293730D01*
X590301Y293631D01*
X590227Y293535D01*
X590149Y293440D01*
X590068Y293349D01*
X589985Y293259D01*
X589899Y293173D01*
X589809Y293090D01*
X589718Y293009D01*
X589623Y292931D01*
X589527Y292857D01*
X589428Y292785D01*
X589326Y292717D01*
X589223Y292652D01*
X589118Y292590D01*
X589010Y292532D01*
X588901Y292477D01*
X588790Y292426D01*
X588678Y292378D01*
X588564Y292334D01*
X588449Y292294D01*
X588332Y292257D01*
X588214Y292225D01*
X588096Y292196D01*
X587976Y292170D01*
X587856Y292149D01*
X587735Y292131D01*
X587614Y292118D01*
X587492Y292108D01*
X587370Y292102D01*
X587248Y292100D01*
X591058Y295910D02*
X591058Y389890D01*
X587248Y393700D02*
X555752Y393700D01*
X555752Y292100D02*
X566420Y292100D01*
X576580Y292100D01*
X587248Y292100D01*
X576580Y292100D02*
X576578Y292241D01*
X576572Y292382D01*
X576562Y292523D01*
X576549Y292664D01*
X576531Y292804D01*
X576509Y292943D01*
X576484Y293082D01*
X576455Y293221D01*
X576422Y293358D01*
X576385Y293494D01*
X576344Y293629D01*
X576300Y293764D01*
X576252Y293896D01*
X576200Y294028D01*
X576145Y294158D01*
X576086Y294286D01*
X576023Y294413D01*
X575957Y294537D01*
X575888Y294660D01*
X575815Y294781D01*
X575739Y294900D01*
X575659Y295017D01*
X575576Y295131D01*
X575491Y295244D01*
X575402Y295353D01*
X575310Y295461D01*
X575215Y295565D01*
X575117Y295667D01*
X575016Y295766D01*
X574913Y295863D01*
X574807Y295956D01*
X574699Y296046D01*
X574588Y296134D01*
X574475Y296218D01*
X574359Y296299D01*
X574241Y296377D01*
X574121Y296452D01*
X573999Y296523D01*
X573875Y296591D01*
X573749Y296655D01*
X573622Y296716D01*
X573493Y296773D01*
X573362Y296826D01*
X573230Y296876D01*
X573097Y296923D01*
X572962Y296965D01*
X572826Y297004D01*
X572689Y297039D01*
X572552Y297070D01*
X572413Y297097D01*
X572274Y297121D01*
X572134Y297140D01*
X571994Y297156D01*
X571853Y297168D01*
X571712Y297176D01*
X571571Y297180D01*
X571429Y297180D01*
X571288Y297176D01*
X571147Y297168D01*
X571006Y297156D01*
X570866Y297140D01*
X570726Y297121D01*
X570587Y297097D01*
X570448Y297070D01*
X570311Y297039D01*
X570174Y297004D01*
X570038Y296965D01*
X569903Y296923D01*
X569770Y296876D01*
X569638Y296826D01*
X569507Y296773D01*
X569378Y296716D01*
X569251Y296655D01*
X569125Y296591D01*
X569001Y296523D01*
X568879Y296452D01*
X568759Y296377D01*
X568641Y296299D01*
X568525Y296218D01*
X568412Y296134D01*
X568301Y296046D01*
X568193Y295956D01*
X568087Y295863D01*
X567984Y295766D01*
X567883Y295667D01*
X567785Y295565D01*
X567690Y295461D01*
X567598Y295353D01*
X567509Y295244D01*
X567424Y295131D01*
X567341Y295017D01*
X567261Y294900D01*
X567185Y294781D01*
X567112Y294660D01*
X567043Y294537D01*
X566977Y294413D01*
X566914Y294286D01*
X566855Y294158D01*
X566800Y294028D01*
X566748Y293896D01*
X566700Y293764D01*
X566656Y293629D01*
X566615Y293494D01*
X566578Y293358D01*
X566545Y293221D01*
X566516Y293082D01*
X566491Y292943D01*
X566469Y292804D01*
X566451Y292664D01*
X566438Y292523D01*
X566428Y292382D01*
X566422Y292241D01*
X566420Y292100D01*
D11*
X587502Y292100D02*
X587502Y393700D01*
D12*
X569341Y287655D02*
X569341Y276225D01*
X568071Y276225D02*
X570611Y276225D01*
X570611Y287655D02*
X568071Y287655D01*
X577813Y276225D02*
X580353Y276225D01*
X577813Y276225D02*
X577713Y276227D01*
X577614Y276233D01*
X577514Y276243D01*
X577416Y276256D01*
X577317Y276274D01*
X577220Y276295D01*
X577124Y276320D01*
X577028Y276349D01*
X576934Y276382D01*
X576841Y276418D01*
X576750Y276458D01*
X576660Y276502D01*
X576572Y276549D01*
X576486Y276599D01*
X576402Y276653D01*
X576320Y276710D01*
X576241Y276770D01*
X576163Y276834D01*
X576089Y276900D01*
X576017Y276969D01*
X575948Y277041D01*
X575882Y277115D01*
X575818Y277193D01*
X575758Y277272D01*
X575701Y277354D01*
X575647Y277438D01*
X575597Y277524D01*
X575550Y277612D01*
X575506Y277702D01*
X575466Y277793D01*
X575430Y277886D01*
X575397Y277980D01*
X575368Y278076D01*
X575343Y278172D01*
X575322Y278269D01*
X575304Y278368D01*
X575291Y278466D01*
X575281Y278566D01*
X575275Y278665D01*
X575273Y278765D01*
X575273Y285115D01*
X575275Y285215D01*
X575281Y285314D01*
X575291Y285414D01*
X575304Y285512D01*
X575322Y285611D01*
X575343Y285708D01*
X575368Y285804D01*
X575397Y285900D01*
X575430Y285994D01*
X575466Y286087D01*
X575506Y286178D01*
X575550Y286268D01*
X575597Y286356D01*
X575647Y286442D01*
X575701Y286526D01*
X575758Y286608D01*
X575818Y286687D01*
X575882Y286765D01*
X575948Y286839D01*
X576017Y286911D01*
X576089Y286980D01*
X576163Y287046D01*
X576241Y287110D01*
X576320Y287170D01*
X576402Y287227D01*
X576486Y287281D01*
X576572Y287331D01*
X576660Y287378D01*
X576750Y287422D01*
X576841Y287462D01*
X576934Y287498D01*
X577028Y287531D01*
X577124Y287560D01*
X577220Y287585D01*
X577317Y287606D01*
X577416Y287624D01*
X577514Y287637D01*
X577614Y287647D01*
X577713Y287653D01*
X577813Y287655D01*
X580353Y287655D01*
X584835Y285115D02*
X588010Y287655D01*
X588010Y276225D01*
X584835Y276225D02*
X591185Y276225D01*
D10*
X551942Y486410D02*
X551942Y580390D01*
X587248Y584200D02*
X587370Y584198D01*
X587492Y584192D01*
X587614Y584182D01*
X587735Y584169D01*
X587856Y584151D01*
X587976Y584130D01*
X588096Y584104D01*
X588214Y584075D01*
X588332Y584043D01*
X588449Y584006D01*
X588564Y583966D01*
X588678Y583922D01*
X588790Y583874D01*
X588901Y583823D01*
X589010Y583768D01*
X589118Y583710D01*
X589223Y583648D01*
X589326Y583583D01*
X589428Y583515D01*
X589527Y583443D01*
X589623Y583369D01*
X589718Y583291D01*
X589809Y583210D01*
X589899Y583127D01*
X589985Y583041D01*
X590068Y582951D01*
X590149Y582860D01*
X590227Y582765D01*
X590301Y582669D01*
X590373Y582570D01*
X590441Y582468D01*
X590506Y582365D01*
X590568Y582260D01*
X590626Y582152D01*
X590681Y582043D01*
X590732Y581932D01*
X590780Y581820D01*
X590824Y581706D01*
X590864Y581591D01*
X590901Y581474D01*
X590933Y581356D01*
X590962Y581238D01*
X590988Y581118D01*
X591009Y580998D01*
X591027Y580877D01*
X591040Y580756D01*
X591050Y580634D01*
X591056Y580512D01*
X591058Y580390D01*
X551942Y486410D02*
X551944Y486288D01*
X551950Y486166D01*
X551960Y486044D01*
X551973Y485923D01*
X551991Y485802D01*
X552012Y485682D01*
X552038Y485562D01*
X552067Y485444D01*
X552099Y485326D01*
X552136Y485209D01*
X552176Y485094D01*
X552220Y484980D01*
X552268Y484868D01*
X552319Y484757D01*
X552374Y484648D01*
X552432Y484540D01*
X552494Y484435D01*
X552559Y484332D01*
X552627Y484230D01*
X552699Y484131D01*
X552773Y484035D01*
X552851Y483940D01*
X552932Y483849D01*
X553015Y483759D01*
X553101Y483673D01*
X553191Y483590D01*
X553282Y483509D01*
X553377Y483431D01*
X553473Y483357D01*
X553572Y483285D01*
X553674Y483217D01*
X553777Y483152D01*
X553882Y483090D01*
X553990Y483032D01*
X554099Y482977D01*
X554210Y482926D01*
X554322Y482878D01*
X554436Y482834D01*
X554551Y482794D01*
X554668Y482757D01*
X554786Y482725D01*
X554904Y482696D01*
X555024Y482670D01*
X555144Y482649D01*
X555265Y482631D01*
X555386Y482618D01*
X555508Y482608D01*
X555630Y482602D01*
X555752Y482600D01*
X551942Y580390D02*
X551944Y580512D01*
X551950Y580634D01*
X551960Y580756D01*
X551973Y580877D01*
X551991Y580998D01*
X552012Y581118D01*
X552038Y581238D01*
X552067Y581356D01*
X552099Y581474D01*
X552136Y581591D01*
X552176Y581706D01*
X552220Y581820D01*
X552268Y581932D01*
X552319Y582043D01*
X552374Y582152D01*
X552432Y582260D01*
X552494Y582365D01*
X552559Y582468D01*
X552627Y582570D01*
X552699Y582669D01*
X552773Y582765D01*
X552851Y582860D01*
X552932Y582951D01*
X553015Y583041D01*
X553101Y583127D01*
X553191Y583210D01*
X553282Y583291D01*
X553377Y583369D01*
X553473Y583443D01*
X553572Y583515D01*
X553674Y583583D01*
X553777Y583648D01*
X553882Y583710D01*
X553990Y583768D01*
X554099Y583823D01*
X554210Y583874D01*
X554322Y583922D01*
X554436Y583966D01*
X554551Y584006D01*
X554668Y584043D01*
X554786Y584075D01*
X554904Y584104D01*
X555024Y584130D01*
X555144Y584151D01*
X555265Y584169D01*
X555386Y584182D01*
X555508Y584192D01*
X555630Y584198D01*
X555752Y584200D01*
X591058Y486410D02*
X591056Y486288D01*
X591050Y486166D01*
X591040Y486044D01*
X591027Y485923D01*
X591009Y485802D01*
X590988Y485682D01*
X590962Y485562D01*
X590933Y485444D01*
X590901Y485326D01*
X590864Y485209D01*
X590824Y485094D01*
X590780Y484980D01*
X590732Y484868D01*
X590681Y484757D01*
X590626Y484648D01*
X590568Y484540D01*
X590506Y484435D01*
X590441Y484332D01*
X590373Y484230D01*
X590301Y484131D01*
X590227Y484035D01*
X590149Y483940D01*
X590068Y483849D01*
X589985Y483759D01*
X589899Y483673D01*
X589809Y483590D01*
X589718Y483509D01*
X589623Y483431D01*
X589527Y483357D01*
X589428Y483285D01*
X589326Y483217D01*
X589223Y483152D01*
X589118Y483090D01*
X589010Y483032D01*
X588901Y482977D01*
X588790Y482926D01*
X588678Y482878D01*
X588564Y482834D01*
X588449Y482794D01*
X588332Y482757D01*
X588214Y482725D01*
X588096Y482696D01*
X587976Y482670D01*
X587856Y482649D01*
X587735Y482631D01*
X587614Y482618D01*
X587492Y482608D01*
X587370Y482602D01*
X587248Y482600D01*
X591058Y486410D02*
X591058Y580390D01*
X587248Y584200D02*
X555752Y584200D01*
X555752Y482600D02*
X566420Y482600D01*
X576580Y482600D01*
X587248Y482600D01*
X576580Y482600D02*
X576578Y482741D01*
X576572Y482882D01*
X576562Y483023D01*
X576549Y483164D01*
X576531Y483304D01*
X576509Y483443D01*
X576484Y483582D01*
X576455Y483721D01*
X576422Y483858D01*
X576385Y483994D01*
X576344Y484129D01*
X576300Y484264D01*
X576252Y484396D01*
X576200Y484528D01*
X576145Y484658D01*
X576086Y484786D01*
X576023Y484913D01*
X575957Y485037D01*
X575888Y485160D01*
X575815Y485281D01*
X575739Y485400D01*
X575659Y485517D01*
X575576Y485631D01*
X575491Y485744D01*
X575402Y485853D01*
X575310Y485961D01*
X575215Y486065D01*
X575117Y486167D01*
X575016Y486266D01*
X574913Y486363D01*
X574807Y486456D01*
X574699Y486546D01*
X574588Y486634D01*
X574475Y486718D01*
X574359Y486799D01*
X574241Y486877D01*
X574121Y486952D01*
X573999Y487023D01*
X573875Y487091D01*
X573749Y487155D01*
X573622Y487216D01*
X573493Y487273D01*
X573362Y487326D01*
X573230Y487376D01*
X573097Y487423D01*
X572962Y487465D01*
X572826Y487504D01*
X572689Y487539D01*
X572552Y487570D01*
X572413Y487597D01*
X572274Y487621D01*
X572134Y487640D01*
X571994Y487656D01*
X571853Y487668D01*
X571712Y487676D01*
X571571Y487680D01*
X571429Y487680D01*
X571288Y487676D01*
X571147Y487668D01*
X571006Y487656D01*
X570866Y487640D01*
X570726Y487621D01*
X570587Y487597D01*
X570448Y487570D01*
X570311Y487539D01*
X570174Y487504D01*
X570038Y487465D01*
X569903Y487423D01*
X569770Y487376D01*
X569638Y487326D01*
X569507Y487273D01*
X569378Y487216D01*
X569251Y487155D01*
X569125Y487091D01*
X569001Y487023D01*
X568879Y486952D01*
X568759Y486877D01*
X568641Y486799D01*
X568525Y486718D01*
X568412Y486634D01*
X568301Y486546D01*
X568193Y486456D01*
X568087Y486363D01*
X567984Y486266D01*
X567883Y486167D01*
X567785Y486065D01*
X567690Y485961D01*
X567598Y485853D01*
X567509Y485744D01*
X567424Y485631D01*
X567341Y485517D01*
X567261Y485400D01*
X567185Y485281D01*
X567112Y485160D01*
X567043Y485037D01*
X566977Y484913D01*
X566914Y484786D01*
X566855Y484658D01*
X566800Y484528D01*
X566748Y484396D01*
X566700Y484264D01*
X566656Y484129D01*
X566615Y483994D01*
X566578Y483858D01*
X566545Y483721D01*
X566516Y483582D01*
X566491Y483443D01*
X566469Y483304D01*
X566451Y483164D01*
X566438Y483023D01*
X566428Y482882D01*
X566422Y482741D01*
X566420Y482600D01*
D11*
X587502Y482600D02*
X587502Y584200D01*
D12*
X569341Y478155D02*
X569341Y466725D01*
X568071Y466725D02*
X570611Y466725D01*
X570611Y478155D02*
X568071Y478155D01*
X577813Y466725D02*
X580353Y466725D01*
X577813Y466725D02*
X577713Y466727D01*
X577614Y466733D01*
X577514Y466743D01*
X577416Y466756D01*
X577317Y466774D01*
X577220Y466795D01*
X577124Y466820D01*
X577028Y466849D01*
X576934Y466882D01*
X576841Y466918D01*
X576750Y466958D01*
X576660Y467002D01*
X576572Y467049D01*
X576486Y467099D01*
X576402Y467153D01*
X576320Y467210D01*
X576241Y467270D01*
X576163Y467334D01*
X576089Y467400D01*
X576017Y467469D01*
X575948Y467541D01*
X575882Y467615D01*
X575818Y467693D01*
X575758Y467772D01*
X575701Y467854D01*
X575647Y467938D01*
X575597Y468024D01*
X575550Y468112D01*
X575506Y468202D01*
X575466Y468293D01*
X575430Y468386D01*
X575397Y468480D01*
X575368Y468576D01*
X575343Y468672D01*
X575322Y468769D01*
X575304Y468868D01*
X575291Y468966D01*
X575281Y469066D01*
X575275Y469165D01*
X575273Y469265D01*
X575273Y475615D01*
X575275Y475715D01*
X575281Y475814D01*
X575291Y475914D01*
X575304Y476012D01*
X575322Y476111D01*
X575343Y476208D01*
X575368Y476304D01*
X575397Y476400D01*
X575430Y476494D01*
X575466Y476587D01*
X575506Y476678D01*
X575550Y476768D01*
X575597Y476856D01*
X575647Y476942D01*
X575701Y477026D01*
X575758Y477108D01*
X575818Y477187D01*
X575882Y477265D01*
X575948Y477339D01*
X576017Y477411D01*
X576089Y477480D01*
X576163Y477546D01*
X576241Y477610D01*
X576320Y477670D01*
X576402Y477727D01*
X576486Y477781D01*
X576572Y477831D01*
X576660Y477878D01*
X576750Y477922D01*
X576841Y477962D01*
X576934Y477998D01*
X577028Y478031D01*
X577124Y478060D01*
X577220Y478085D01*
X577317Y478106D01*
X577416Y478124D01*
X577514Y478137D01*
X577614Y478147D01*
X577713Y478153D01*
X577813Y478155D01*
X580353Y478155D01*
X588328Y478156D02*
X588432Y478154D01*
X588537Y478148D01*
X588641Y478139D01*
X588744Y478126D01*
X588847Y478108D01*
X588949Y478088D01*
X589051Y478063D01*
X589151Y478035D01*
X589251Y478003D01*
X589349Y477967D01*
X589446Y477928D01*
X589541Y477886D01*
X589635Y477840D01*
X589727Y477790D01*
X589817Y477738D01*
X589905Y477682D01*
X589991Y477622D01*
X590075Y477560D01*
X590156Y477495D01*
X590235Y477427D01*
X590312Y477355D01*
X590385Y477282D01*
X590457Y477205D01*
X590525Y477126D01*
X590590Y477045D01*
X590652Y476961D01*
X590712Y476875D01*
X590768Y476787D01*
X590820Y476697D01*
X590870Y476605D01*
X590916Y476511D01*
X590958Y476416D01*
X590997Y476319D01*
X591033Y476221D01*
X591065Y476121D01*
X591093Y476021D01*
X591118Y475919D01*
X591138Y475817D01*
X591156Y475714D01*
X591169Y475611D01*
X591178Y475507D01*
X591184Y475402D01*
X591186Y475298D01*
X588328Y478155D02*
X588210Y478153D01*
X588091Y478147D01*
X587973Y478138D01*
X587856Y478125D01*
X587739Y478107D01*
X587622Y478087D01*
X587506Y478062D01*
X587391Y478034D01*
X587278Y478001D01*
X587165Y477966D01*
X587053Y477926D01*
X586943Y477884D01*
X586834Y477837D01*
X586726Y477787D01*
X586621Y477734D01*
X586517Y477677D01*
X586415Y477617D01*
X586315Y477554D01*
X586217Y477487D01*
X586121Y477418D01*
X586028Y477345D01*
X585937Y477269D01*
X585848Y477191D01*
X585762Y477109D01*
X585679Y477025D01*
X585598Y476939D01*
X585521Y476849D01*
X585446Y476758D01*
X585374Y476664D01*
X585305Y476567D01*
X585240Y476469D01*
X585177Y476368D01*
X585118Y476265D01*
X585062Y476161D01*
X585010Y476055D01*
X584961Y475947D01*
X584916Y475838D01*
X584874Y475727D01*
X584836Y475615D01*
X590233Y473076D02*
X590309Y473151D01*
X590384Y473230D01*
X590455Y473311D01*
X590524Y473395D01*
X590589Y473481D01*
X590651Y473569D01*
X590711Y473659D01*
X590767Y473751D01*
X590820Y473846D01*
X590869Y473942D01*
X590915Y474040D01*
X590958Y474139D01*
X590997Y474240D01*
X591032Y474342D01*
X591064Y474445D01*
X591092Y474549D01*
X591117Y474654D01*
X591138Y474761D01*
X591155Y474867D01*
X591168Y474974D01*
X591177Y475082D01*
X591183Y475190D01*
X591185Y475298D01*
X590233Y473075D02*
X584835Y466725D01*
X591185Y466725D01*
D10*
X591058Y626110D02*
X591058Y720090D01*
X551942Y626110D02*
X551944Y625988D01*
X551950Y625866D01*
X551960Y625744D01*
X551973Y625623D01*
X551991Y625502D01*
X552012Y625382D01*
X552038Y625262D01*
X552067Y625144D01*
X552099Y625026D01*
X552136Y624909D01*
X552176Y624794D01*
X552220Y624680D01*
X552268Y624568D01*
X552319Y624457D01*
X552374Y624348D01*
X552432Y624240D01*
X552494Y624135D01*
X552559Y624032D01*
X552627Y623930D01*
X552699Y623831D01*
X552773Y623735D01*
X552851Y623640D01*
X552932Y623549D01*
X553015Y623459D01*
X553101Y623373D01*
X553191Y623290D01*
X553282Y623209D01*
X553377Y623131D01*
X553473Y623057D01*
X553572Y622985D01*
X553674Y622917D01*
X553777Y622852D01*
X553882Y622790D01*
X553990Y622732D01*
X554099Y622677D01*
X554210Y622626D01*
X554322Y622578D01*
X554436Y622534D01*
X554551Y622494D01*
X554668Y622457D01*
X554786Y622425D01*
X554904Y622396D01*
X555024Y622370D01*
X555144Y622349D01*
X555265Y622331D01*
X555386Y622318D01*
X555508Y622308D01*
X555630Y622302D01*
X555752Y622300D01*
X591058Y720090D02*
X591056Y720212D01*
X591050Y720334D01*
X591040Y720456D01*
X591027Y720577D01*
X591009Y720698D01*
X590988Y720818D01*
X590962Y720938D01*
X590933Y721056D01*
X590901Y721174D01*
X590864Y721291D01*
X590824Y721406D01*
X590780Y721520D01*
X590732Y721632D01*
X590681Y721743D01*
X590626Y721852D01*
X590568Y721960D01*
X590506Y722065D01*
X590441Y722168D01*
X590373Y722270D01*
X590301Y722369D01*
X590227Y722465D01*
X590149Y722560D01*
X590068Y722651D01*
X589985Y722741D01*
X589899Y722827D01*
X589809Y722910D01*
X589718Y722991D01*
X589623Y723069D01*
X589527Y723143D01*
X589428Y723215D01*
X589326Y723283D01*
X589223Y723348D01*
X589118Y723410D01*
X589010Y723468D01*
X588901Y723523D01*
X588790Y723574D01*
X588678Y723622D01*
X588564Y723666D01*
X588449Y723706D01*
X588332Y723743D01*
X588214Y723775D01*
X588096Y723804D01*
X587976Y723830D01*
X587856Y723851D01*
X587735Y723869D01*
X587614Y723882D01*
X587492Y723892D01*
X587370Y723898D01*
X587248Y723900D01*
X591058Y626110D02*
X591056Y625988D01*
X591050Y625866D01*
X591040Y625744D01*
X591027Y625623D01*
X591009Y625502D01*
X590988Y625382D01*
X590962Y625262D01*
X590933Y625144D01*
X590901Y625026D01*
X590864Y624909D01*
X590824Y624794D01*
X590780Y624680D01*
X590732Y624568D01*
X590681Y624457D01*
X590626Y624348D01*
X590568Y624240D01*
X590506Y624135D01*
X590441Y624032D01*
X590373Y623930D01*
X590301Y623831D01*
X590227Y623735D01*
X590149Y623640D01*
X590068Y623549D01*
X589985Y623459D01*
X589899Y623373D01*
X589809Y623290D01*
X589718Y623209D01*
X589623Y623131D01*
X589527Y623057D01*
X589428Y622985D01*
X589326Y622917D01*
X589223Y622852D01*
X589118Y622790D01*
X589010Y622732D01*
X588901Y622677D01*
X588790Y622626D01*
X588678Y622578D01*
X588564Y622534D01*
X588449Y622494D01*
X588332Y622457D01*
X588214Y622425D01*
X588096Y622396D01*
X587976Y622370D01*
X587856Y622349D01*
X587735Y622331D01*
X587614Y622318D01*
X587492Y622308D01*
X587370Y622302D01*
X587248Y622300D01*
X551942Y720090D02*
X551944Y720212D01*
X551950Y720334D01*
X551960Y720456D01*
X551973Y720577D01*
X551991Y720698D01*
X552012Y720818D01*
X552038Y720938D01*
X552067Y721056D01*
X552099Y721174D01*
X552136Y721291D01*
X552176Y721406D01*
X552220Y721520D01*
X552268Y721632D01*
X552319Y721743D01*
X552374Y721852D01*
X552432Y721960D01*
X552494Y722065D01*
X552559Y722168D01*
X552627Y722270D01*
X552699Y722369D01*
X552773Y722465D01*
X552851Y722560D01*
X552932Y722651D01*
X553015Y722741D01*
X553101Y722827D01*
X553191Y722910D01*
X553282Y722991D01*
X553377Y723069D01*
X553473Y723143D01*
X553572Y723215D01*
X553674Y723283D01*
X553777Y723348D01*
X553882Y723410D01*
X553990Y723468D01*
X554099Y723523D01*
X554210Y723574D01*
X554322Y723622D01*
X554436Y723666D01*
X554551Y723706D01*
X554668Y723743D01*
X554786Y723775D01*
X554904Y723804D01*
X555024Y723830D01*
X555144Y723851D01*
X555265Y723869D01*
X555386Y723882D01*
X555508Y723892D01*
X555630Y723898D01*
X555752Y723900D01*
X551942Y720090D02*
X551942Y626110D01*
X555752Y622300D02*
X587248Y622300D01*
X587248Y723900D02*
X576580Y723900D01*
X566420Y723900D01*
X555752Y723900D01*
X566420Y723900D02*
X566422Y723759D01*
X566428Y723618D01*
X566438Y723477D01*
X566451Y723336D01*
X566469Y723196D01*
X566491Y723057D01*
X566516Y722918D01*
X566545Y722779D01*
X566578Y722642D01*
X566615Y722506D01*
X566656Y722371D01*
X566700Y722236D01*
X566748Y722104D01*
X566800Y721972D01*
X566855Y721842D01*
X566914Y721714D01*
X566977Y721587D01*
X567043Y721463D01*
X567112Y721340D01*
X567185Y721219D01*
X567261Y721100D01*
X567341Y720983D01*
X567424Y720869D01*
X567509Y720756D01*
X567598Y720647D01*
X567690Y720539D01*
X567785Y720435D01*
X567883Y720333D01*
X567984Y720234D01*
X568087Y720137D01*
X568193Y720044D01*
X568301Y719954D01*
X568412Y719866D01*
X568525Y719782D01*
X568641Y719701D01*
X568759Y719623D01*
X568879Y719548D01*
X569001Y719477D01*
X569125Y719409D01*
X569251Y719345D01*
X569378Y719284D01*
X569507Y719227D01*
X569638Y719174D01*
X569770Y719124D01*
X569903Y719077D01*
X570038Y719035D01*
X570174Y718996D01*
X570311Y718961D01*
X570448Y718930D01*
X570587Y718903D01*
X570726Y718879D01*
X570866Y718860D01*
X571006Y718844D01*
X571147Y718832D01*
X571288Y718824D01*
X571429Y718820D01*
X571571Y718820D01*
X571712Y718824D01*
X571853Y718832D01*
X571994Y718844D01*
X572134Y718860D01*
X572274Y718879D01*
X572413Y718903D01*
X572552Y718930D01*
X572689Y718961D01*
X572826Y718996D01*
X572962Y719035D01*
X573097Y719077D01*
X573230Y719124D01*
X573362Y719174D01*
X573493Y719227D01*
X573622Y719284D01*
X573749Y719345D01*
X573875Y719409D01*
X573999Y719477D01*
X574121Y719548D01*
X574241Y719623D01*
X574359Y719701D01*
X574475Y719782D01*
X574588Y719866D01*
X574699Y719954D01*
X574807Y720044D01*
X574913Y720137D01*
X575016Y720234D01*
X575117Y720333D01*
X575215Y720435D01*
X575310Y720539D01*
X575402Y720647D01*
X575491Y720756D01*
X575576Y720869D01*
X575659Y720983D01*
X575739Y721100D01*
X575815Y721219D01*
X575888Y721340D01*
X575957Y721463D01*
X576023Y721587D01*
X576086Y721714D01*
X576145Y721842D01*
X576200Y721972D01*
X576252Y722104D01*
X576300Y722236D01*
X576344Y722371D01*
X576385Y722506D01*
X576422Y722642D01*
X576455Y722779D01*
X576484Y722918D01*
X576509Y723057D01*
X576531Y723196D01*
X576549Y723336D01*
X576562Y723477D01*
X576572Y723618D01*
X576578Y723759D01*
X576580Y723900D01*
D11*
X555498Y723900D02*
X555498Y622300D01*
D12*
X553085Y728345D02*
X553085Y739775D01*
X551815Y728345D02*
X554355Y728345D01*
X554355Y739775D02*
X551815Y739775D01*
X561557Y728345D02*
X564097Y728345D01*
X561557Y728345D02*
X561457Y728347D01*
X561358Y728353D01*
X561258Y728363D01*
X561160Y728376D01*
X561061Y728394D01*
X560964Y728415D01*
X560868Y728440D01*
X560772Y728469D01*
X560678Y728502D01*
X560585Y728538D01*
X560494Y728578D01*
X560404Y728622D01*
X560316Y728669D01*
X560230Y728719D01*
X560146Y728773D01*
X560064Y728830D01*
X559985Y728890D01*
X559907Y728954D01*
X559833Y729020D01*
X559761Y729089D01*
X559692Y729161D01*
X559626Y729235D01*
X559562Y729313D01*
X559502Y729392D01*
X559445Y729474D01*
X559391Y729558D01*
X559341Y729644D01*
X559294Y729732D01*
X559250Y729822D01*
X559210Y729913D01*
X559174Y730006D01*
X559141Y730100D01*
X559112Y730196D01*
X559087Y730292D01*
X559066Y730389D01*
X559048Y730488D01*
X559035Y730586D01*
X559025Y730686D01*
X559019Y730785D01*
X559017Y730885D01*
X559017Y737235D01*
X559019Y737335D01*
X559025Y737434D01*
X559035Y737534D01*
X559048Y737632D01*
X559066Y737731D01*
X559087Y737828D01*
X559112Y737924D01*
X559141Y738020D01*
X559174Y738114D01*
X559210Y738207D01*
X559250Y738298D01*
X559294Y738388D01*
X559341Y738476D01*
X559391Y738562D01*
X559445Y738646D01*
X559502Y738728D01*
X559562Y738807D01*
X559626Y738885D01*
X559692Y738959D01*
X559761Y739031D01*
X559833Y739100D01*
X559907Y739166D01*
X559985Y739230D01*
X560064Y739290D01*
X560146Y739347D01*
X560230Y739401D01*
X560316Y739451D01*
X560404Y739498D01*
X560494Y739542D01*
X560585Y739582D01*
X560678Y739618D01*
X560772Y739651D01*
X560868Y739680D01*
X560964Y739705D01*
X561061Y739726D01*
X561160Y739744D01*
X561258Y739757D01*
X561358Y739767D01*
X561457Y739773D01*
X561557Y739775D01*
X564097Y739775D01*
X568579Y728345D02*
X571754Y728345D01*
X571865Y728347D01*
X571975Y728353D01*
X572086Y728362D01*
X572196Y728376D01*
X572305Y728393D01*
X572414Y728414D01*
X572522Y728439D01*
X572629Y728468D01*
X572735Y728500D01*
X572840Y728536D01*
X572943Y728576D01*
X573045Y728619D01*
X573146Y728666D01*
X573245Y728717D01*
X573342Y728770D01*
X573436Y728827D01*
X573529Y728888D01*
X573620Y728951D01*
X573709Y729018D01*
X573795Y729088D01*
X573878Y729161D01*
X573960Y729236D01*
X574038Y729314D01*
X574113Y729396D01*
X574186Y729479D01*
X574256Y729565D01*
X574323Y729654D01*
X574386Y729745D01*
X574447Y729838D01*
X574504Y729933D01*
X574557Y730029D01*
X574608Y730128D01*
X574655Y730229D01*
X574698Y730331D01*
X574738Y730434D01*
X574774Y730539D01*
X574806Y730645D01*
X574835Y730752D01*
X574860Y730860D01*
X574881Y730969D01*
X574898Y731078D01*
X574912Y731188D01*
X574921Y731299D01*
X574927Y731409D01*
X574929Y731520D01*
X574927Y731631D01*
X574921Y731741D01*
X574912Y731852D01*
X574898Y731962D01*
X574881Y732071D01*
X574860Y732180D01*
X574835Y732288D01*
X574806Y732395D01*
X574774Y732501D01*
X574738Y732606D01*
X574698Y732709D01*
X574655Y732811D01*
X574608Y732912D01*
X574557Y733011D01*
X574504Y733107D01*
X574447Y733202D01*
X574386Y733295D01*
X574323Y733386D01*
X574256Y733475D01*
X574186Y733561D01*
X574113Y733644D01*
X574038Y733726D01*
X573960Y733804D01*
X573878Y733879D01*
X573795Y733952D01*
X573709Y734022D01*
X573620Y734089D01*
X573529Y734152D01*
X573436Y734213D01*
X573342Y734270D01*
X573245Y734323D01*
X573146Y734374D01*
X573045Y734421D01*
X572943Y734464D01*
X572840Y734504D01*
X572735Y734540D01*
X572629Y734572D01*
X572522Y734601D01*
X572414Y734626D01*
X572305Y734647D01*
X572196Y734664D01*
X572086Y734678D01*
X571975Y734687D01*
X571865Y734693D01*
X571754Y734695D01*
X572389Y739775D02*
X568579Y739775D01*
X572389Y739775D02*
X572489Y739773D01*
X572588Y739767D01*
X572688Y739757D01*
X572786Y739744D01*
X572885Y739726D01*
X572982Y739705D01*
X573078Y739680D01*
X573174Y739651D01*
X573268Y739618D01*
X573361Y739582D01*
X573452Y739542D01*
X573542Y739498D01*
X573630Y739451D01*
X573716Y739401D01*
X573800Y739347D01*
X573882Y739290D01*
X573961Y739230D01*
X574039Y739166D01*
X574113Y739100D01*
X574185Y739031D01*
X574254Y738959D01*
X574320Y738885D01*
X574384Y738807D01*
X574444Y738728D01*
X574501Y738646D01*
X574555Y738562D01*
X574605Y738476D01*
X574652Y738388D01*
X574696Y738298D01*
X574736Y738207D01*
X574772Y738114D01*
X574805Y738020D01*
X574834Y737924D01*
X574859Y737828D01*
X574880Y737731D01*
X574898Y737632D01*
X574911Y737534D01*
X574921Y737434D01*
X574927Y737335D01*
X574929Y737235D01*
X574927Y737135D01*
X574921Y737036D01*
X574911Y736936D01*
X574898Y736838D01*
X574880Y736739D01*
X574859Y736642D01*
X574834Y736546D01*
X574805Y736450D01*
X574772Y736356D01*
X574736Y736263D01*
X574696Y736172D01*
X574652Y736082D01*
X574605Y735994D01*
X574555Y735908D01*
X574501Y735824D01*
X574444Y735742D01*
X574384Y735663D01*
X574320Y735585D01*
X574254Y735511D01*
X574185Y735439D01*
X574113Y735370D01*
X574039Y735304D01*
X573961Y735240D01*
X573882Y735180D01*
X573800Y735123D01*
X573716Y735069D01*
X573630Y735019D01*
X573542Y734972D01*
X573452Y734928D01*
X573361Y734888D01*
X573268Y734852D01*
X573174Y734819D01*
X573078Y734790D01*
X572982Y734765D01*
X572885Y734744D01*
X572786Y734726D01*
X572688Y734713D01*
X572588Y734703D01*
X572489Y734697D01*
X572389Y734695D01*
X569849Y734695D01*
D10*
X853449Y495780D02*
X854888Y495780D01*
X854888Y490982D01*
X852009Y490982D01*
X851923Y490984D01*
X851837Y490990D01*
X851751Y490999D01*
X851666Y491013D01*
X851582Y491030D01*
X851498Y491051D01*
X851416Y491076D01*
X851335Y491104D01*
X851255Y491136D01*
X851176Y491172D01*
X851100Y491211D01*
X851025Y491254D01*
X850952Y491299D01*
X850881Y491348D01*
X850813Y491401D01*
X850746Y491456D01*
X850683Y491514D01*
X850622Y491575D01*
X850564Y491638D01*
X850509Y491705D01*
X850456Y491773D01*
X850407Y491844D01*
X850362Y491917D01*
X850319Y491992D01*
X850280Y492068D01*
X850244Y492147D01*
X850212Y492227D01*
X850184Y492308D01*
X850159Y492390D01*
X850138Y492474D01*
X850121Y492558D01*
X850107Y492643D01*
X850098Y492729D01*
X850092Y492815D01*
X850090Y492901D01*
X850090Y497699D01*
X850092Y497785D01*
X850098Y497871D01*
X850107Y497957D01*
X850121Y498042D01*
X850138Y498126D01*
X850159Y498210D01*
X850184Y498292D01*
X850212Y498373D01*
X850244Y498453D01*
X850280Y498532D01*
X850319Y498608D01*
X850362Y498683D01*
X850407Y498756D01*
X850456Y498827D01*
X850509Y498895D01*
X850564Y498962D01*
X850622Y499025D01*
X850683Y499086D01*
X850746Y499144D01*
X850813Y499199D01*
X850881Y499251D01*
X850952Y499301D01*
X851025Y499346D01*
X851100Y499389D01*
X851176Y499428D01*
X851255Y499464D01*
X851335Y499496D01*
X851416Y499524D01*
X851498Y499549D01*
X851582Y499570D01*
X851666Y499587D01*
X851751Y499601D01*
X851837Y499610D01*
X851923Y499616D01*
X852009Y499618D01*
X854888Y499618D01*
X859844Y499618D02*
X859844Y490982D01*
X864641Y490982D02*
X859844Y499618D01*
X864641Y499618D02*
X864641Y490982D01*
X869597Y490982D02*
X869597Y499618D01*
X871996Y499618D01*
X872093Y499616D01*
X872189Y499610D01*
X872285Y499601D01*
X872381Y499587D01*
X872476Y499570D01*
X872570Y499548D01*
X872663Y499523D01*
X872756Y499495D01*
X872847Y499462D01*
X872936Y499426D01*
X873024Y499386D01*
X873111Y499343D01*
X873196Y499297D01*
X873278Y499247D01*
X873359Y499193D01*
X873437Y499137D01*
X873513Y499077D01*
X873587Y499015D01*
X873658Y498949D01*
X873726Y498881D01*
X873792Y498810D01*
X873854Y498736D01*
X873914Y498660D01*
X873970Y498582D01*
X874024Y498501D01*
X874074Y498419D01*
X874120Y498334D01*
X874163Y498247D01*
X874203Y498159D01*
X874239Y498070D01*
X874272Y497979D01*
X874300Y497886D01*
X874325Y497793D01*
X874347Y497699D01*
X874364Y497604D01*
X874378Y497508D01*
X874387Y497412D01*
X874393Y497316D01*
X874395Y497219D01*
X874395Y493381D01*
X874393Y493284D01*
X874387Y493188D01*
X874378Y493092D01*
X874364Y492996D01*
X874347Y492901D01*
X874325Y492807D01*
X874300Y492714D01*
X874272Y492621D01*
X874239Y492530D01*
X874203Y492441D01*
X874163Y492353D01*
X874120Y492266D01*
X874074Y492182D01*
X874024Y492099D01*
X873970Y492018D01*
X873914Y491940D01*
X873854Y491864D01*
X873792Y491790D01*
X873726Y491719D01*
X873658Y491651D01*
X873587Y491585D01*
X873513Y491523D01*
X873437Y491463D01*
X873359Y491407D01*
X873278Y491353D01*
X873196Y491303D01*
X873111Y491257D01*
X873024Y491214D01*
X872936Y491174D01*
X872847Y491138D01*
X872756Y491105D01*
X872663Y491077D01*
X872570Y491052D01*
X872476Y491030D01*
X872381Y491013D01*
X872285Y490999D01*
X872189Y490990D01*
X872093Y490984D01*
X871996Y490982D01*
X869597Y490982D01*
X854888Y521180D02*
X853449Y521180D01*
X854888Y521180D02*
X854888Y516382D01*
X852009Y516382D01*
X851923Y516384D01*
X851837Y516390D01*
X851751Y516399D01*
X851666Y516413D01*
X851582Y516430D01*
X851498Y516451D01*
X851416Y516476D01*
X851335Y516504D01*
X851255Y516536D01*
X851176Y516572D01*
X851100Y516611D01*
X851025Y516654D01*
X850952Y516699D01*
X850881Y516748D01*
X850813Y516801D01*
X850746Y516856D01*
X850683Y516914D01*
X850622Y516975D01*
X850564Y517038D01*
X850509Y517105D01*
X850456Y517173D01*
X850407Y517244D01*
X850362Y517317D01*
X850319Y517392D01*
X850280Y517468D01*
X850244Y517547D01*
X850212Y517627D01*
X850184Y517708D01*
X850159Y517790D01*
X850138Y517874D01*
X850121Y517958D01*
X850107Y518043D01*
X850098Y518129D01*
X850092Y518215D01*
X850090Y518301D01*
X850090Y523099D01*
X850092Y523185D01*
X850098Y523271D01*
X850107Y523357D01*
X850121Y523442D01*
X850138Y523526D01*
X850159Y523610D01*
X850184Y523692D01*
X850212Y523773D01*
X850244Y523853D01*
X850280Y523932D01*
X850319Y524008D01*
X850362Y524083D01*
X850407Y524156D01*
X850456Y524227D01*
X850509Y524295D01*
X850564Y524362D01*
X850622Y524425D01*
X850683Y524486D01*
X850746Y524544D01*
X850813Y524599D01*
X850881Y524651D01*
X850952Y524701D01*
X851025Y524746D01*
X851100Y524789D01*
X851176Y524828D01*
X851255Y524864D01*
X851335Y524896D01*
X851416Y524924D01*
X851498Y524949D01*
X851582Y524970D01*
X851666Y524987D01*
X851751Y525001D01*
X851837Y525010D01*
X851923Y525016D01*
X852009Y525018D01*
X854888Y525018D01*
X859844Y525018D02*
X859844Y516382D01*
X864641Y516382D02*
X859844Y525018D01*
X864641Y525018D02*
X864641Y516382D01*
X869597Y516382D02*
X869597Y525018D01*
X871996Y525018D01*
X872093Y525016D01*
X872189Y525010D01*
X872285Y525001D01*
X872381Y524987D01*
X872476Y524970D01*
X872570Y524948D01*
X872663Y524923D01*
X872756Y524895D01*
X872847Y524862D01*
X872936Y524826D01*
X873024Y524786D01*
X873111Y524743D01*
X873196Y524697D01*
X873278Y524647D01*
X873359Y524593D01*
X873437Y524537D01*
X873513Y524477D01*
X873587Y524415D01*
X873658Y524349D01*
X873726Y524281D01*
X873792Y524210D01*
X873854Y524136D01*
X873914Y524060D01*
X873970Y523982D01*
X874024Y523901D01*
X874074Y523819D01*
X874120Y523734D01*
X874163Y523647D01*
X874203Y523559D01*
X874239Y523470D01*
X874272Y523379D01*
X874300Y523286D01*
X874325Y523193D01*
X874347Y523099D01*
X874364Y523004D01*
X874378Y522908D01*
X874387Y522812D01*
X874393Y522716D01*
X874395Y522619D01*
X874395Y518781D01*
X874393Y518684D01*
X874387Y518588D01*
X874378Y518492D01*
X874364Y518396D01*
X874347Y518301D01*
X874325Y518207D01*
X874300Y518114D01*
X874272Y518021D01*
X874239Y517930D01*
X874203Y517841D01*
X874163Y517753D01*
X874120Y517666D01*
X874074Y517582D01*
X874024Y517499D01*
X873970Y517418D01*
X873914Y517340D01*
X873854Y517264D01*
X873792Y517190D01*
X873726Y517119D01*
X873658Y517051D01*
X873587Y516985D01*
X873513Y516923D01*
X873437Y516863D01*
X873359Y516807D01*
X873278Y516753D01*
X873196Y516703D01*
X873111Y516657D01*
X873024Y516614D01*
X872936Y516574D01*
X872847Y516538D01*
X872756Y516505D01*
X872663Y516477D01*
X872570Y516452D01*
X872476Y516430D01*
X872381Y516413D01*
X872285Y516399D01*
X872189Y516390D01*
X872093Y516384D01*
X871996Y516382D01*
X869597Y516382D01*
X855497Y468940D02*
X849740Y468940D01*
X852619Y466062D02*
X852619Y471819D01*
X859974Y465582D02*
X862852Y465582D01*
X862938Y465584D01*
X863024Y465590D01*
X863110Y465599D01*
X863195Y465613D01*
X863279Y465630D01*
X863363Y465651D01*
X863445Y465676D01*
X863526Y465704D01*
X863606Y465736D01*
X863685Y465772D01*
X863761Y465811D01*
X863836Y465854D01*
X863909Y465899D01*
X863980Y465949D01*
X864048Y466001D01*
X864115Y466056D01*
X864178Y466114D01*
X864239Y466175D01*
X864297Y466238D01*
X864352Y466305D01*
X864405Y466373D01*
X864454Y466444D01*
X864499Y466517D01*
X864542Y466592D01*
X864581Y466668D01*
X864617Y466747D01*
X864649Y466827D01*
X864677Y466908D01*
X864702Y466991D01*
X864723Y467074D01*
X864740Y467158D01*
X864754Y467243D01*
X864763Y467329D01*
X864769Y467415D01*
X864771Y467501D01*
X864771Y468461D01*
X864769Y468547D01*
X864763Y468633D01*
X864754Y468719D01*
X864740Y468804D01*
X864723Y468888D01*
X864702Y468972D01*
X864677Y469054D01*
X864649Y469135D01*
X864617Y469215D01*
X864581Y469294D01*
X864542Y469370D01*
X864499Y469445D01*
X864454Y469518D01*
X864405Y469589D01*
X864352Y469657D01*
X864297Y469724D01*
X864239Y469787D01*
X864178Y469848D01*
X864115Y469906D01*
X864048Y469961D01*
X863980Y470014D01*
X863909Y470063D01*
X863836Y470108D01*
X863761Y470151D01*
X863685Y470190D01*
X863606Y470226D01*
X863526Y470258D01*
X863445Y470286D01*
X863363Y470311D01*
X863279Y470332D01*
X863195Y470349D01*
X863110Y470363D01*
X863024Y470372D01*
X862938Y470378D01*
X862852Y470380D01*
X859974Y470380D01*
X859974Y474218D01*
X864771Y474218D01*
X868638Y474218D02*
X871516Y465582D01*
X874395Y474218D01*
X852613Y423418D02*
X852613Y414782D01*
X852613Y423418D02*
X855012Y423418D01*
X855109Y423416D01*
X855205Y423410D01*
X855301Y423401D01*
X855397Y423387D01*
X855492Y423370D01*
X855586Y423348D01*
X855679Y423323D01*
X855772Y423295D01*
X855863Y423262D01*
X855952Y423226D01*
X856040Y423186D01*
X856127Y423143D01*
X856212Y423097D01*
X856294Y423047D01*
X856375Y422993D01*
X856453Y422937D01*
X856529Y422877D01*
X856603Y422815D01*
X856674Y422749D01*
X856742Y422681D01*
X856808Y422610D01*
X856870Y422536D01*
X856930Y422460D01*
X856986Y422382D01*
X857040Y422301D01*
X857090Y422219D01*
X857136Y422134D01*
X857179Y422047D01*
X857219Y421959D01*
X857255Y421870D01*
X857288Y421779D01*
X857316Y421686D01*
X857341Y421593D01*
X857363Y421499D01*
X857380Y421404D01*
X857394Y421308D01*
X857403Y421212D01*
X857409Y421116D01*
X857411Y421019D01*
X857409Y420922D01*
X857403Y420826D01*
X857394Y420730D01*
X857380Y420634D01*
X857363Y420539D01*
X857341Y420445D01*
X857316Y420352D01*
X857288Y420259D01*
X857255Y420168D01*
X857219Y420079D01*
X857179Y419991D01*
X857136Y419904D01*
X857090Y419820D01*
X857040Y419737D01*
X856986Y419656D01*
X856930Y419578D01*
X856870Y419502D01*
X856808Y419428D01*
X856742Y419357D01*
X856674Y419289D01*
X856603Y419223D01*
X856529Y419161D01*
X856453Y419101D01*
X856375Y419045D01*
X856294Y418991D01*
X856212Y418941D01*
X856127Y418895D01*
X856040Y418852D01*
X855952Y418812D01*
X855863Y418776D01*
X855772Y418743D01*
X855679Y418715D01*
X855586Y418690D01*
X855492Y418668D01*
X855397Y418651D01*
X855301Y418637D01*
X855205Y418628D01*
X855109Y418622D01*
X855012Y418620D01*
X852613Y418620D01*
X855492Y418620D02*
X857411Y414782D01*
X864246Y414782D02*
X864332Y414784D01*
X864418Y414790D01*
X864504Y414799D01*
X864589Y414813D01*
X864673Y414830D01*
X864757Y414851D01*
X864839Y414876D01*
X864920Y414904D01*
X865000Y414936D01*
X865079Y414972D01*
X865155Y415011D01*
X865230Y415054D01*
X865303Y415099D01*
X865374Y415149D01*
X865442Y415201D01*
X865509Y415256D01*
X865572Y415314D01*
X865633Y415375D01*
X865691Y415438D01*
X865746Y415505D01*
X865799Y415573D01*
X865848Y415644D01*
X865893Y415717D01*
X865936Y415792D01*
X865975Y415868D01*
X866011Y415947D01*
X866043Y416027D01*
X866071Y416108D01*
X866096Y416190D01*
X866117Y416274D01*
X866134Y416358D01*
X866148Y416443D01*
X866157Y416529D01*
X866163Y416615D01*
X866165Y416701D01*
X864246Y414782D02*
X864123Y414784D01*
X864000Y414789D01*
X863877Y414799D01*
X863755Y414812D01*
X863633Y414829D01*
X863511Y414849D01*
X863391Y414873D01*
X863271Y414901D01*
X863152Y414932D01*
X863034Y414967D01*
X862917Y415006D01*
X862801Y415048D01*
X862687Y415094D01*
X862574Y415143D01*
X862463Y415195D01*
X862353Y415251D01*
X862245Y415310D01*
X862139Y415373D01*
X862034Y415438D01*
X861932Y415507D01*
X861832Y415579D01*
X861735Y415654D01*
X861639Y415731D01*
X861546Y415812D01*
X861455Y415895D01*
X861367Y415981D01*
X861608Y421499D02*
X861610Y421585D01*
X861616Y421671D01*
X861625Y421757D01*
X861639Y421842D01*
X861656Y421926D01*
X861677Y422010D01*
X861702Y422092D01*
X861730Y422173D01*
X861762Y422253D01*
X861798Y422332D01*
X861837Y422408D01*
X861880Y422483D01*
X861925Y422556D01*
X861974Y422627D01*
X862027Y422695D01*
X862082Y422762D01*
X862140Y422825D01*
X862201Y422886D01*
X862264Y422944D01*
X862331Y422999D01*
X862399Y423052D01*
X862470Y423101D01*
X862543Y423146D01*
X862618Y423189D01*
X862694Y423228D01*
X862773Y423264D01*
X862853Y423296D01*
X862934Y423324D01*
X863016Y423349D01*
X863100Y423370D01*
X863184Y423387D01*
X863269Y423401D01*
X863355Y423410D01*
X863441Y423416D01*
X863527Y423418D01*
X863643Y423416D01*
X863758Y423411D01*
X863874Y423401D01*
X863989Y423388D01*
X864103Y423372D01*
X864217Y423351D01*
X864331Y423327D01*
X864443Y423299D01*
X864554Y423268D01*
X864665Y423233D01*
X864774Y423195D01*
X864882Y423153D01*
X864988Y423108D01*
X865094Y423059D01*
X865197Y423007D01*
X865299Y422952D01*
X865398Y422893D01*
X865496Y422831D01*
X865592Y422766D01*
X865686Y422698D01*
X862567Y419820D02*
X862493Y419866D01*
X862420Y419916D01*
X862350Y419969D01*
X862282Y420025D01*
X862217Y420084D01*
X862154Y420146D01*
X862095Y420211D01*
X862038Y420278D01*
X861984Y420348D01*
X861934Y420420D01*
X861887Y420494D01*
X861843Y420570D01*
X861803Y420649D01*
X861767Y420729D01*
X861734Y420810D01*
X861705Y420893D01*
X861679Y420978D01*
X861657Y421063D01*
X861640Y421149D01*
X861626Y421236D01*
X861616Y421323D01*
X861610Y421411D01*
X861608Y421499D01*
X865206Y418380D02*
X865280Y418334D01*
X865353Y418284D01*
X865423Y418231D01*
X865491Y418175D01*
X865556Y418116D01*
X865619Y418054D01*
X865678Y417989D01*
X865735Y417922D01*
X865789Y417852D01*
X865839Y417780D01*
X865886Y417706D01*
X865930Y417630D01*
X865970Y417551D01*
X866006Y417471D01*
X866039Y417390D01*
X866068Y417307D01*
X866094Y417222D01*
X866116Y417137D01*
X866133Y417051D01*
X866147Y416964D01*
X866157Y416877D01*
X866163Y416789D01*
X866165Y416701D01*
X865206Y418380D02*
X862567Y419820D01*
X871996Y423418D02*
X871996Y414782D01*
X869597Y423418D02*
X874395Y423418D01*
X857061Y541782D02*
X854182Y550418D01*
X859940Y550418D02*
X857061Y541782D01*
X864376Y541782D02*
X864376Y550418D01*
X863417Y541782D02*
X865336Y541782D01*
X865336Y550418D02*
X863417Y550418D01*
X869597Y550418D02*
X869597Y541782D01*
X874395Y541782D02*
X869597Y550418D01*
X874395Y550418D02*
X874395Y541782D01*
X842696Y443540D02*
X836939Y443540D01*
X839817Y440662D02*
X839817Y446419D01*
X847172Y440182D02*
X849571Y440182D01*
X849668Y440184D01*
X849764Y440190D01*
X849860Y440199D01*
X849956Y440213D01*
X850051Y440230D01*
X850145Y440252D01*
X850238Y440277D01*
X850331Y440305D01*
X850422Y440338D01*
X850511Y440374D01*
X850599Y440414D01*
X850686Y440457D01*
X850771Y440503D01*
X850853Y440553D01*
X850934Y440607D01*
X851012Y440663D01*
X851088Y440723D01*
X851162Y440785D01*
X851233Y440851D01*
X851301Y440919D01*
X851367Y440990D01*
X851429Y441064D01*
X851489Y441140D01*
X851545Y441218D01*
X851599Y441299D01*
X851649Y441382D01*
X851695Y441466D01*
X851738Y441553D01*
X851778Y441641D01*
X851814Y441730D01*
X851847Y441821D01*
X851875Y441914D01*
X851900Y442007D01*
X851922Y442101D01*
X851939Y442196D01*
X851953Y442292D01*
X851962Y442388D01*
X851968Y442484D01*
X851970Y442581D01*
X851968Y442678D01*
X851962Y442774D01*
X851953Y442870D01*
X851939Y442966D01*
X851922Y443061D01*
X851900Y443155D01*
X851875Y443248D01*
X851847Y443341D01*
X851814Y443432D01*
X851778Y443521D01*
X851738Y443609D01*
X851695Y443696D01*
X851649Y443781D01*
X851599Y443863D01*
X851545Y443944D01*
X851489Y444022D01*
X851429Y444098D01*
X851367Y444172D01*
X851301Y444243D01*
X851233Y444311D01*
X851162Y444377D01*
X851088Y444439D01*
X851012Y444499D01*
X850934Y444555D01*
X850853Y444609D01*
X850771Y444659D01*
X850686Y444705D01*
X850599Y444748D01*
X850511Y444788D01*
X850422Y444824D01*
X850331Y444857D01*
X850238Y444885D01*
X850145Y444910D01*
X850051Y444932D01*
X849956Y444949D01*
X849860Y444963D01*
X849764Y444972D01*
X849668Y444978D01*
X849571Y444980D01*
X850051Y448818D02*
X847172Y448818D01*
X850051Y448818D02*
X850137Y448816D01*
X850223Y448810D01*
X850309Y448801D01*
X850394Y448787D01*
X850478Y448770D01*
X850562Y448749D01*
X850644Y448724D01*
X850725Y448696D01*
X850805Y448664D01*
X850884Y448628D01*
X850960Y448589D01*
X851035Y448546D01*
X851108Y448501D01*
X851179Y448452D01*
X851247Y448399D01*
X851314Y448344D01*
X851377Y448286D01*
X851438Y448225D01*
X851496Y448162D01*
X851551Y448095D01*
X851604Y448027D01*
X851653Y447956D01*
X851698Y447883D01*
X851741Y447808D01*
X851780Y447732D01*
X851816Y447653D01*
X851848Y447573D01*
X851876Y447492D01*
X851901Y447410D01*
X851922Y447326D01*
X851939Y447242D01*
X851953Y447157D01*
X851962Y447071D01*
X851968Y446985D01*
X851970Y446899D01*
X851968Y446813D01*
X851962Y446727D01*
X851953Y446641D01*
X851939Y446556D01*
X851922Y446472D01*
X851901Y446388D01*
X851876Y446306D01*
X851848Y446225D01*
X851816Y446145D01*
X851780Y446066D01*
X851741Y445990D01*
X851698Y445915D01*
X851653Y445842D01*
X851604Y445771D01*
X851551Y445703D01*
X851496Y445636D01*
X851438Y445573D01*
X851377Y445512D01*
X851314Y445454D01*
X851247Y445399D01*
X851179Y445346D01*
X851108Y445297D01*
X851035Y445252D01*
X850960Y445209D01*
X850884Y445170D01*
X850805Y445134D01*
X850725Y445102D01*
X850644Y445074D01*
X850562Y445049D01*
X850478Y445028D01*
X850394Y445011D01*
X850309Y444997D01*
X850223Y444988D01*
X850137Y444982D01*
X850051Y444980D01*
X848131Y444980D01*
X855732Y440662D02*
X855732Y440182D01*
X855732Y440662D02*
X856211Y440662D01*
X856211Y440182D01*
X855732Y440182D01*
X859974Y440182D02*
X862372Y440182D01*
X862469Y440184D01*
X862565Y440190D01*
X862661Y440199D01*
X862757Y440213D01*
X862852Y440230D01*
X862946Y440252D01*
X863039Y440277D01*
X863132Y440305D01*
X863223Y440338D01*
X863312Y440374D01*
X863400Y440414D01*
X863487Y440457D01*
X863572Y440503D01*
X863654Y440553D01*
X863735Y440607D01*
X863813Y440663D01*
X863889Y440723D01*
X863963Y440785D01*
X864034Y440851D01*
X864102Y440919D01*
X864168Y440990D01*
X864230Y441064D01*
X864290Y441140D01*
X864346Y441218D01*
X864400Y441299D01*
X864450Y441382D01*
X864496Y441466D01*
X864539Y441553D01*
X864579Y441641D01*
X864615Y441730D01*
X864648Y441821D01*
X864676Y441914D01*
X864701Y442007D01*
X864723Y442101D01*
X864740Y442196D01*
X864754Y442292D01*
X864763Y442388D01*
X864769Y442484D01*
X864771Y442581D01*
X864769Y442678D01*
X864763Y442774D01*
X864754Y442870D01*
X864740Y442966D01*
X864723Y443061D01*
X864701Y443155D01*
X864676Y443248D01*
X864648Y443341D01*
X864615Y443432D01*
X864579Y443521D01*
X864539Y443609D01*
X864496Y443696D01*
X864450Y443781D01*
X864400Y443863D01*
X864346Y443944D01*
X864290Y444022D01*
X864230Y444098D01*
X864168Y444172D01*
X864102Y444243D01*
X864034Y444311D01*
X863963Y444377D01*
X863889Y444439D01*
X863813Y444499D01*
X863735Y444555D01*
X863654Y444609D01*
X863572Y444659D01*
X863487Y444705D01*
X863400Y444748D01*
X863312Y444788D01*
X863223Y444824D01*
X863132Y444857D01*
X863039Y444885D01*
X862946Y444910D01*
X862852Y444932D01*
X862757Y444949D01*
X862661Y444963D01*
X862565Y444972D01*
X862469Y444978D01*
X862372Y444980D01*
X862852Y448818D02*
X859974Y448818D01*
X862852Y448818D02*
X862938Y448816D01*
X863024Y448810D01*
X863110Y448801D01*
X863195Y448787D01*
X863279Y448770D01*
X863363Y448749D01*
X863445Y448724D01*
X863526Y448696D01*
X863606Y448664D01*
X863685Y448628D01*
X863761Y448589D01*
X863836Y448546D01*
X863909Y448501D01*
X863980Y448452D01*
X864048Y448399D01*
X864115Y448344D01*
X864178Y448286D01*
X864239Y448225D01*
X864297Y448162D01*
X864352Y448095D01*
X864405Y448027D01*
X864454Y447956D01*
X864499Y447883D01*
X864542Y447808D01*
X864581Y447732D01*
X864617Y447653D01*
X864649Y447573D01*
X864677Y447492D01*
X864702Y447410D01*
X864723Y447326D01*
X864740Y447242D01*
X864754Y447157D01*
X864763Y447071D01*
X864769Y446985D01*
X864771Y446899D01*
X864769Y446813D01*
X864763Y446727D01*
X864754Y446641D01*
X864740Y446556D01*
X864723Y446472D01*
X864702Y446388D01*
X864677Y446306D01*
X864649Y446225D01*
X864617Y446145D01*
X864581Y446066D01*
X864542Y445990D01*
X864499Y445915D01*
X864454Y445842D01*
X864405Y445771D01*
X864352Y445703D01*
X864297Y445636D01*
X864239Y445573D01*
X864178Y445512D01*
X864115Y445454D01*
X864048Y445399D01*
X863980Y445346D01*
X863909Y445297D01*
X863836Y445252D01*
X863761Y445209D01*
X863685Y445170D01*
X863606Y445134D01*
X863526Y445102D01*
X863445Y445074D01*
X863363Y445049D01*
X863279Y445028D01*
X863195Y445011D01*
X863110Y444997D01*
X863024Y444988D01*
X862938Y444982D01*
X862852Y444980D01*
X860933Y444980D01*
X868638Y448818D02*
X871516Y440182D01*
X874395Y448818D01*
X869597Y596900D02*
X869599Y597070D01*
X869605Y597240D01*
X869615Y597409D01*
X869629Y597579D01*
X869648Y597748D01*
X869670Y597916D01*
X869696Y598084D01*
X869726Y598251D01*
X869761Y598417D01*
X869799Y598583D01*
X869841Y598748D01*
X869887Y598911D01*
X869937Y599074D01*
X869991Y599235D01*
X870048Y599395D01*
X870110Y599553D01*
X870175Y599710D01*
X870244Y599865D01*
X870317Y600019D01*
X870345Y600095D01*
X870377Y600170D01*
X870412Y600244D01*
X870450Y600316D01*
X870492Y600386D01*
X870537Y600454D01*
X870585Y600520D01*
X870636Y600584D01*
X870690Y600645D01*
X870746Y600704D01*
X870806Y600760D01*
X870867Y600813D01*
X870931Y600863D01*
X870998Y600911D01*
X871066Y600955D01*
X871137Y600996D01*
X871209Y601034D01*
X871283Y601068D01*
X871358Y601099D01*
X871435Y601127D01*
X871513Y601151D01*
X871592Y601171D01*
X871672Y601188D01*
X871752Y601201D01*
X871833Y601211D01*
X871914Y601216D01*
X871996Y601218D01*
X872078Y601216D01*
X872159Y601211D01*
X872240Y601201D01*
X872320Y601188D01*
X872400Y601171D01*
X872479Y601151D01*
X872557Y601127D01*
X872634Y601099D01*
X872709Y601068D01*
X872783Y601034D01*
X872855Y600996D01*
X872926Y600955D01*
X872994Y600911D01*
X873061Y600863D01*
X873125Y600813D01*
X873186Y600760D01*
X873246Y600704D01*
X873302Y600645D01*
X873356Y600584D01*
X873407Y600520D01*
X873455Y600454D01*
X873500Y600386D01*
X873542Y600316D01*
X873580Y600244D01*
X873615Y600170D01*
X873647Y600095D01*
X873675Y600019D01*
X873748Y599865D01*
X873817Y599710D01*
X873882Y599553D01*
X873944Y599395D01*
X874001Y599235D01*
X874055Y599074D01*
X874105Y598911D01*
X874151Y598748D01*
X874193Y598583D01*
X874231Y598417D01*
X874266Y598251D01*
X874296Y598084D01*
X874322Y597916D01*
X874344Y597748D01*
X874363Y597579D01*
X874377Y597409D01*
X874387Y597240D01*
X874393Y597070D01*
X874395Y596900D01*
X869597Y596900D02*
X869599Y596730D01*
X869605Y596560D01*
X869615Y596391D01*
X869629Y596221D01*
X869648Y596052D01*
X869670Y595884D01*
X869696Y595716D01*
X869726Y595549D01*
X869761Y595383D01*
X869799Y595217D01*
X869841Y595052D01*
X869887Y594889D01*
X869937Y594727D01*
X869991Y594565D01*
X870048Y594406D01*
X870110Y594247D01*
X870175Y594090D01*
X870244Y593935D01*
X870317Y593781D01*
X870345Y593705D01*
X870377Y593630D01*
X870412Y593556D01*
X870450Y593484D01*
X870492Y593414D01*
X870537Y593346D01*
X870585Y593280D01*
X870636Y593216D01*
X870690Y593155D01*
X870746Y593096D01*
X870806Y593040D01*
X870867Y592987D01*
X870931Y592937D01*
X870998Y592889D01*
X871066Y592845D01*
X871137Y592804D01*
X871209Y592766D01*
X871283Y592732D01*
X871358Y592701D01*
X871435Y592673D01*
X871513Y592649D01*
X871592Y592629D01*
X871672Y592612D01*
X871752Y592599D01*
X871833Y592589D01*
X871914Y592584D01*
X871996Y592582D01*
X873675Y593781D02*
X873748Y593935D01*
X873817Y594090D01*
X873882Y594247D01*
X873944Y594406D01*
X874001Y594565D01*
X874055Y594727D01*
X874105Y594889D01*
X874151Y595052D01*
X874193Y595217D01*
X874231Y595383D01*
X874266Y595549D01*
X874296Y595716D01*
X874322Y595884D01*
X874344Y596052D01*
X874363Y596221D01*
X874377Y596391D01*
X874387Y596560D01*
X874393Y596730D01*
X874395Y596900D01*
X873675Y593781D02*
X873647Y593705D01*
X873615Y593630D01*
X873580Y593556D01*
X873542Y593484D01*
X873500Y593414D01*
X873455Y593346D01*
X873407Y593280D01*
X873356Y593216D01*
X873302Y593155D01*
X873246Y593096D01*
X873186Y593040D01*
X873125Y592987D01*
X873061Y592937D01*
X872994Y592889D01*
X872926Y592845D01*
X872855Y592804D01*
X872783Y592766D01*
X872709Y592732D01*
X872634Y592701D01*
X872557Y592673D01*
X872479Y592649D01*
X872400Y592629D01*
X872320Y592612D01*
X872240Y592599D01*
X872159Y592589D01*
X872078Y592584D01*
X871996Y592582D01*
X870077Y594501D02*
X873915Y599299D01*
X869597Y624699D02*
X871996Y626618D01*
X871996Y617982D01*
X869597Y617982D02*
X874395Y617982D01*
X874395Y649859D02*
X874393Y649951D01*
X874387Y650042D01*
X874378Y650133D01*
X874364Y650224D01*
X874347Y650314D01*
X874325Y650403D01*
X874300Y650491D01*
X874272Y650578D01*
X874239Y650664D01*
X874203Y650748D01*
X874164Y650831D01*
X874121Y650912D01*
X874074Y650991D01*
X874025Y651068D01*
X873972Y651143D01*
X873916Y651215D01*
X873857Y651285D01*
X873795Y651353D01*
X873730Y651418D01*
X873662Y651480D01*
X873592Y651539D01*
X873520Y651595D01*
X873445Y651648D01*
X873368Y651697D01*
X873289Y651744D01*
X873208Y651787D01*
X873125Y651826D01*
X873041Y651862D01*
X872955Y651895D01*
X872868Y651923D01*
X872780Y651948D01*
X872691Y651970D01*
X872601Y651987D01*
X872510Y652001D01*
X872419Y652010D01*
X872328Y652016D01*
X872236Y652018D01*
X872133Y652016D01*
X872031Y652010D01*
X871929Y652001D01*
X871827Y651988D01*
X871726Y651971D01*
X871625Y651950D01*
X871526Y651926D01*
X871427Y651897D01*
X871330Y651866D01*
X871233Y651830D01*
X871138Y651792D01*
X871045Y651749D01*
X870953Y651703D01*
X870863Y651654D01*
X870775Y651602D01*
X870688Y651546D01*
X870604Y651487D01*
X870523Y651426D01*
X870443Y651361D01*
X870366Y651293D01*
X870291Y651222D01*
X870220Y651149D01*
X870151Y651073D01*
X870084Y650995D01*
X870021Y650914D01*
X869961Y650831D01*
X869904Y650746D01*
X869850Y650659D01*
X869799Y650569D01*
X869752Y650478D01*
X869708Y650386D01*
X869667Y650291D01*
X869630Y650196D01*
X869597Y650099D01*
X873675Y648180D02*
X873742Y648246D01*
X873806Y648315D01*
X873867Y648386D01*
X873925Y648460D01*
X873980Y648536D01*
X874032Y648614D01*
X874081Y648694D01*
X874127Y648776D01*
X874169Y648860D01*
X874208Y648946D01*
X874243Y649033D01*
X874274Y649121D01*
X874302Y649211D01*
X874327Y649301D01*
X874348Y649393D01*
X874365Y649485D01*
X874378Y649578D01*
X874387Y649671D01*
X874393Y649765D01*
X874395Y649859D01*
X873675Y648180D02*
X869597Y643382D01*
X874395Y643382D01*
X871996Y668782D02*
X869597Y668782D01*
X871996Y668782D02*
X872093Y668784D01*
X872189Y668790D01*
X872285Y668799D01*
X872381Y668813D01*
X872476Y668830D01*
X872570Y668852D01*
X872663Y668877D01*
X872756Y668905D01*
X872847Y668938D01*
X872936Y668974D01*
X873024Y669014D01*
X873111Y669057D01*
X873196Y669103D01*
X873278Y669153D01*
X873359Y669207D01*
X873437Y669263D01*
X873513Y669323D01*
X873587Y669385D01*
X873658Y669451D01*
X873726Y669519D01*
X873792Y669590D01*
X873854Y669664D01*
X873914Y669740D01*
X873970Y669818D01*
X874024Y669899D01*
X874074Y669982D01*
X874120Y670066D01*
X874163Y670153D01*
X874203Y670241D01*
X874239Y670330D01*
X874272Y670421D01*
X874300Y670514D01*
X874325Y670607D01*
X874347Y670701D01*
X874364Y670796D01*
X874378Y670892D01*
X874387Y670988D01*
X874393Y671084D01*
X874395Y671181D01*
X874393Y671278D01*
X874387Y671374D01*
X874378Y671470D01*
X874364Y671566D01*
X874347Y671661D01*
X874325Y671755D01*
X874300Y671848D01*
X874272Y671941D01*
X874239Y672032D01*
X874203Y672121D01*
X874163Y672209D01*
X874120Y672296D01*
X874074Y672381D01*
X874024Y672463D01*
X873970Y672544D01*
X873914Y672622D01*
X873854Y672698D01*
X873792Y672772D01*
X873726Y672843D01*
X873658Y672911D01*
X873587Y672977D01*
X873513Y673039D01*
X873437Y673099D01*
X873359Y673155D01*
X873278Y673209D01*
X873196Y673259D01*
X873111Y673305D01*
X873024Y673348D01*
X872936Y673388D01*
X872847Y673424D01*
X872756Y673457D01*
X872663Y673485D01*
X872570Y673510D01*
X872476Y673532D01*
X872381Y673549D01*
X872285Y673563D01*
X872189Y673572D01*
X872093Y673578D01*
X871996Y673580D01*
X872476Y677418D02*
X869597Y677418D01*
X872476Y677418D02*
X872562Y677416D01*
X872648Y677410D01*
X872734Y677401D01*
X872819Y677387D01*
X872903Y677370D01*
X872987Y677349D01*
X873069Y677324D01*
X873150Y677296D01*
X873230Y677264D01*
X873309Y677228D01*
X873385Y677189D01*
X873460Y677146D01*
X873533Y677101D01*
X873604Y677052D01*
X873672Y676999D01*
X873739Y676944D01*
X873802Y676886D01*
X873863Y676825D01*
X873921Y676762D01*
X873976Y676695D01*
X874029Y676627D01*
X874078Y676556D01*
X874123Y676483D01*
X874166Y676408D01*
X874205Y676332D01*
X874241Y676253D01*
X874273Y676173D01*
X874301Y676092D01*
X874326Y676010D01*
X874347Y675926D01*
X874364Y675842D01*
X874378Y675757D01*
X874387Y675671D01*
X874393Y675585D01*
X874395Y675499D01*
X874393Y675413D01*
X874387Y675327D01*
X874378Y675241D01*
X874364Y675156D01*
X874347Y675072D01*
X874326Y674988D01*
X874301Y674906D01*
X874273Y674825D01*
X874241Y674745D01*
X874205Y674666D01*
X874166Y674590D01*
X874123Y674515D01*
X874078Y674442D01*
X874029Y674371D01*
X873976Y674303D01*
X873921Y674236D01*
X873863Y674173D01*
X873802Y674112D01*
X873739Y674054D01*
X873672Y673999D01*
X873604Y673946D01*
X873533Y673897D01*
X873460Y673852D01*
X873385Y673809D01*
X873309Y673770D01*
X873230Y673734D01*
X873150Y673702D01*
X873069Y673674D01*
X872987Y673649D01*
X872903Y673628D01*
X872819Y673611D01*
X872734Y673597D01*
X872648Y673588D01*
X872562Y673582D01*
X872476Y673580D01*
X870557Y673580D01*
X869597Y696101D02*
X871516Y702818D01*
X869597Y696101D02*
X874395Y696101D01*
X872956Y698020D02*
X872956Y694182D01*
X872476Y719582D02*
X869597Y719582D01*
X872476Y719582D02*
X872562Y719584D01*
X872648Y719590D01*
X872734Y719599D01*
X872819Y719613D01*
X872903Y719630D01*
X872987Y719651D01*
X873069Y719676D01*
X873150Y719704D01*
X873230Y719736D01*
X873309Y719772D01*
X873385Y719811D01*
X873460Y719854D01*
X873533Y719899D01*
X873604Y719949D01*
X873672Y720001D01*
X873739Y720056D01*
X873802Y720114D01*
X873863Y720175D01*
X873921Y720238D01*
X873976Y720305D01*
X874029Y720373D01*
X874078Y720444D01*
X874123Y720517D01*
X874166Y720592D01*
X874205Y720668D01*
X874241Y720747D01*
X874273Y720827D01*
X874301Y720908D01*
X874326Y720991D01*
X874347Y721074D01*
X874364Y721158D01*
X874378Y721243D01*
X874387Y721329D01*
X874393Y721415D01*
X874395Y721501D01*
X874395Y722461D01*
X874393Y722547D01*
X874387Y722633D01*
X874378Y722719D01*
X874364Y722804D01*
X874347Y722888D01*
X874326Y722972D01*
X874301Y723054D01*
X874273Y723135D01*
X874241Y723215D01*
X874205Y723294D01*
X874166Y723370D01*
X874123Y723445D01*
X874078Y723518D01*
X874029Y723589D01*
X873976Y723657D01*
X873921Y723724D01*
X873863Y723787D01*
X873802Y723848D01*
X873739Y723906D01*
X873672Y723961D01*
X873604Y724014D01*
X873533Y724063D01*
X873460Y724108D01*
X873385Y724151D01*
X873309Y724190D01*
X873230Y724226D01*
X873150Y724258D01*
X873069Y724286D01*
X872987Y724311D01*
X872903Y724332D01*
X872819Y724349D01*
X872734Y724363D01*
X872648Y724372D01*
X872562Y724378D01*
X872476Y724380D01*
X869597Y724380D01*
X869597Y728218D01*
X874395Y728218D01*
X850519Y640092D02*
X859155Y637213D01*
X859155Y642970D02*
X850519Y640092D01*
X856996Y642251D02*
X856996Y637933D01*
X859155Y647012D02*
X853398Y647012D01*
X853398Y649411D01*
X853400Y649486D01*
X853406Y649561D01*
X853416Y649636D01*
X853429Y649710D01*
X853447Y649783D01*
X853468Y649856D01*
X853494Y649927D01*
X853522Y649996D01*
X853555Y650064D01*
X853591Y650130D01*
X853630Y650195D01*
X853673Y650257D01*
X853719Y650317D01*
X853768Y650374D01*
X853819Y650429D01*
X853874Y650480D01*
X853931Y650529D01*
X853991Y650575D01*
X854053Y650618D01*
X854117Y650657D01*
X854184Y650693D01*
X854252Y650726D01*
X854321Y650754D01*
X854392Y650780D01*
X854465Y650801D01*
X854538Y650819D01*
X854612Y650832D01*
X854687Y650842D01*
X854762Y650848D01*
X854837Y650850D01*
X859155Y650850D01*
X855797Y656853D02*
X855797Y659012D01*
X855797Y656853D02*
X855799Y656772D01*
X855805Y656691D01*
X855815Y656610D01*
X855828Y656530D01*
X855846Y656451D01*
X855867Y656373D01*
X855892Y656296D01*
X855921Y656220D01*
X855953Y656145D01*
X855989Y656073D01*
X856029Y656002D01*
X856072Y655933D01*
X856118Y655866D01*
X856167Y655802D01*
X856219Y655740D01*
X856275Y655680D01*
X856333Y655624D01*
X856393Y655570D01*
X856457Y655519D01*
X856522Y655471D01*
X856590Y655427D01*
X856660Y655386D01*
X856732Y655348D01*
X856805Y655314D01*
X856881Y655283D01*
X856957Y655256D01*
X857035Y655233D01*
X857114Y655214D01*
X857193Y655198D01*
X857274Y655186D01*
X857354Y655178D01*
X857435Y655174D01*
X857517Y655174D01*
X857598Y655178D01*
X857678Y655186D01*
X857759Y655198D01*
X857838Y655214D01*
X857917Y655233D01*
X857995Y655256D01*
X858071Y655283D01*
X858147Y655314D01*
X858220Y655348D01*
X858292Y655386D01*
X858362Y655427D01*
X858430Y655471D01*
X858495Y655519D01*
X858559Y655570D01*
X858619Y655624D01*
X858677Y655680D01*
X858733Y655740D01*
X858785Y655802D01*
X858834Y655866D01*
X858880Y655933D01*
X858923Y656002D01*
X858963Y656073D01*
X858999Y656145D01*
X859031Y656220D01*
X859060Y656296D01*
X859085Y656373D01*
X859106Y656451D01*
X859124Y656530D01*
X859137Y656610D01*
X859147Y656691D01*
X859153Y656772D01*
X859155Y656853D01*
X859155Y659012D01*
X854837Y659012D01*
X854837Y659011D02*
X854762Y659009D01*
X854687Y659003D01*
X854612Y658993D01*
X854538Y658980D01*
X854465Y658962D01*
X854392Y658941D01*
X854321Y658915D01*
X854252Y658887D01*
X854184Y658854D01*
X854118Y658818D01*
X854053Y658779D01*
X853991Y658736D01*
X853931Y658690D01*
X853874Y658641D01*
X853819Y658590D01*
X853768Y658535D01*
X853719Y658478D01*
X853673Y658418D01*
X853630Y658356D01*
X853591Y658292D01*
X853555Y658225D01*
X853522Y658157D01*
X853494Y658088D01*
X853468Y658017D01*
X853447Y657944D01*
X853429Y657871D01*
X853416Y657797D01*
X853406Y657722D01*
X853400Y657647D01*
X853398Y657572D01*
X853398Y655653D01*
X850519Y663509D02*
X857716Y663509D01*
X857716Y663510D02*
X857791Y663512D01*
X857866Y663518D01*
X857941Y663528D01*
X858015Y663541D01*
X858088Y663559D01*
X858161Y663580D01*
X858232Y663606D01*
X858301Y663634D01*
X858369Y663667D01*
X858436Y663703D01*
X858500Y663742D01*
X858562Y663785D01*
X858622Y663831D01*
X858679Y663880D01*
X858734Y663931D01*
X858785Y663986D01*
X858834Y664043D01*
X858880Y664103D01*
X858923Y664165D01*
X858962Y664230D01*
X858998Y664296D01*
X859031Y664364D01*
X859059Y664433D01*
X859085Y664504D01*
X859106Y664577D01*
X859124Y664650D01*
X859137Y664724D01*
X859147Y664799D01*
X859153Y664874D01*
X859155Y664949D01*
X857236Y668348D02*
X855317Y668348D01*
X855231Y668350D01*
X855145Y668356D01*
X855059Y668365D01*
X854974Y668379D01*
X854890Y668396D01*
X854806Y668417D01*
X854724Y668442D01*
X854643Y668470D01*
X854563Y668502D01*
X854484Y668538D01*
X854408Y668577D01*
X854333Y668620D01*
X854260Y668665D01*
X854189Y668714D01*
X854121Y668767D01*
X854054Y668822D01*
X853991Y668880D01*
X853930Y668941D01*
X853872Y669004D01*
X853817Y669071D01*
X853764Y669139D01*
X853715Y669210D01*
X853670Y669283D01*
X853627Y669358D01*
X853588Y669434D01*
X853552Y669513D01*
X853520Y669593D01*
X853492Y669674D01*
X853467Y669756D01*
X853446Y669840D01*
X853429Y669924D01*
X853415Y670009D01*
X853406Y670095D01*
X853400Y670181D01*
X853398Y670267D01*
X853400Y670353D01*
X853406Y670439D01*
X853415Y670525D01*
X853429Y670610D01*
X853446Y670694D01*
X853467Y670778D01*
X853492Y670860D01*
X853520Y670941D01*
X853552Y671021D01*
X853588Y671100D01*
X853627Y671176D01*
X853670Y671251D01*
X853715Y671324D01*
X853764Y671395D01*
X853817Y671463D01*
X853872Y671530D01*
X853930Y671593D01*
X853991Y671654D01*
X854054Y671712D01*
X854121Y671767D01*
X854189Y671820D01*
X854260Y671869D01*
X854333Y671914D01*
X854408Y671957D01*
X854484Y671996D01*
X854563Y672032D01*
X854643Y672064D01*
X854724Y672092D01*
X854806Y672117D01*
X854890Y672138D01*
X854974Y672155D01*
X855059Y672169D01*
X855145Y672178D01*
X855231Y672184D01*
X855317Y672186D01*
X857236Y672186D01*
X857322Y672184D01*
X857408Y672178D01*
X857494Y672169D01*
X857579Y672155D01*
X857663Y672138D01*
X857747Y672117D01*
X857829Y672092D01*
X857910Y672064D01*
X857990Y672032D01*
X858069Y671996D01*
X858145Y671957D01*
X858220Y671914D01*
X858293Y671869D01*
X858364Y671820D01*
X858432Y671767D01*
X858499Y671712D01*
X858562Y671654D01*
X858623Y671593D01*
X858681Y671530D01*
X858736Y671463D01*
X858789Y671395D01*
X858838Y671324D01*
X858883Y671251D01*
X858926Y671176D01*
X858965Y671100D01*
X859001Y671021D01*
X859033Y670941D01*
X859061Y670860D01*
X859086Y670778D01*
X859107Y670694D01*
X859124Y670610D01*
X859138Y670525D01*
X859147Y670439D01*
X859153Y670353D01*
X859155Y670267D01*
X859153Y670181D01*
X859147Y670095D01*
X859138Y670009D01*
X859124Y669924D01*
X859107Y669840D01*
X859086Y669756D01*
X859061Y669674D01*
X859033Y669593D01*
X859001Y669513D01*
X858965Y669434D01*
X858926Y669358D01*
X858883Y669283D01*
X858838Y669210D01*
X858789Y669139D01*
X858736Y669071D01*
X858681Y669004D01*
X858623Y668941D01*
X858562Y668880D01*
X858499Y668822D01*
X858432Y668767D01*
X858364Y668714D01*
X858293Y668665D01*
X858220Y668620D01*
X858145Y668577D01*
X858069Y668538D01*
X857990Y668502D01*
X857910Y668470D01*
X857829Y668442D01*
X857747Y668417D01*
X857663Y668396D01*
X857579Y668379D01*
X857494Y668365D01*
X857408Y668356D01*
X857322Y668350D01*
X857236Y668348D01*
X859155Y677644D02*
X859155Y680043D01*
X859155Y677644D02*
X859153Y677569D01*
X859147Y677494D01*
X859137Y677419D01*
X859124Y677345D01*
X859106Y677272D01*
X859085Y677199D01*
X859059Y677128D01*
X859031Y677059D01*
X858998Y676991D01*
X858962Y676925D01*
X858923Y676860D01*
X858880Y676798D01*
X858834Y676738D01*
X858785Y676681D01*
X858734Y676626D01*
X858679Y676575D01*
X858622Y676526D01*
X858562Y676480D01*
X858500Y676437D01*
X858436Y676398D01*
X858369Y676362D01*
X858301Y676329D01*
X858232Y676301D01*
X858161Y676275D01*
X858088Y676254D01*
X858015Y676236D01*
X857941Y676223D01*
X857866Y676213D01*
X857791Y676207D01*
X857716Y676205D01*
X854837Y676205D01*
X854762Y676207D01*
X854687Y676213D01*
X854612Y676223D01*
X854538Y676236D01*
X854465Y676254D01*
X854392Y676275D01*
X854321Y676301D01*
X854252Y676329D01*
X854184Y676362D01*
X854118Y676398D01*
X854053Y676437D01*
X853991Y676480D01*
X853931Y676526D01*
X853874Y676575D01*
X853819Y676626D01*
X853768Y676681D01*
X853719Y676738D01*
X853673Y676798D01*
X853630Y676860D01*
X853591Y676925D01*
X853555Y676991D01*
X853522Y677059D01*
X853494Y677128D01*
X853468Y677199D01*
X853447Y677272D01*
X853429Y677345D01*
X853416Y677419D01*
X853406Y677494D01*
X853400Y677569D01*
X853398Y677644D01*
X853398Y680043D01*
X860594Y680043D01*
X860594Y680042D02*
X860669Y680040D01*
X860744Y680034D01*
X860819Y680024D01*
X860893Y680011D01*
X860966Y679993D01*
X861039Y679972D01*
X861110Y679946D01*
X861179Y679918D01*
X861247Y679885D01*
X861314Y679849D01*
X861378Y679810D01*
X861440Y679767D01*
X861500Y679721D01*
X861557Y679672D01*
X861612Y679621D01*
X861663Y679566D01*
X861712Y679509D01*
X861758Y679449D01*
X861801Y679387D01*
X861840Y679323D01*
X861876Y679256D01*
X861909Y679188D01*
X861937Y679119D01*
X861963Y679048D01*
X861984Y678975D01*
X862002Y678902D01*
X862015Y678828D01*
X862025Y678753D01*
X862031Y678678D01*
X862033Y678603D01*
X862034Y678603D02*
X862034Y676684D01*
X859155Y690079D02*
X850519Y690079D01*
X859155Y689119D02*
X859155Y691038D01*
X850519Y691038D02*
X850519Y689119D01*
X853398Y695170D02*
X859155Y695170D01*
X853398Y695170D02*
X853398Y697569D01*
X853400Y697644D01*
X853406Y697719D01*
X853416Y697794D01*
X853429Y697868D01*
X853447Y697941D01*
X853468Y698014D01*
X853494Y698085D01*
X853522Y698154D01*
X853555Y698222D01*
X853591Y698288D01*
X853630Y698353D01*
X853673Y698415D01*
X853719Y698475D01*
X853768Y698532D01*
X853819Y698587D01*
X853874Y698638D01*
X853931Y698687D01*
X853991Y698733D01*
X854053Y698776D01*
X854117Y698815D01*
X854184Y698851D01*
X854252Y698884D01*
X854321Y698912D01*
X854392Y698938D01*
X854465Y698959D01*
X854538Y698977D01*
X854612Y698990D01*
X854687Y699000D01*
X854762Y699006D01*
X854837Y699008D01*
X859155Y699008D01*
X424660Y356080D02*
X423220Y356080D01*
X424660Y356080D02*
X424660Y351282D01*
X421781Y351282D01*
X421695Y351284D01*
X421609Y351290D01*
X421523Y351299D01*
X421438Y351313D01*
X421354Y351330D01*
X421270Y351351D01*
X421188Y351376D01*
X421107Y351404D01*
X421027Y351436D01*
X420948Y351472D01*
X420872Y351511D01*
X420797Y351554D01*
X420724Y351599D01*
X420653Y351648D01*
X420585Y351701D01*
X420518Y351756D01*
X420455Y351814D01*
X420394Y351875D01*
X420336Y351938D01*
X420281Y352005D01*
X420228Y352073D01*
X420179Y352144D01*
X420134Y352217D01*
X420091Y352292D01*
X420052Y352368D01*
X420016Y352447D01*
X419984Y352527D01*
X419956Y352608D01*
X419931Y352690D01*
X419910Y352774D01*
X419893Y352858D01*
X419879Y352943D01*
X419870Y353029D01*
X419864Y353115D01*
X419862Y353201D01*
X419862Y357999D01*
X419864Y358085D01*
X419870Y358171D01*
X419879Y358257D01*
X419893Y358342D01*
X419910Y358426D01*
X419931Y358510D01*
X419956Y358592D01*
X419984Y358673D01*
X420016Y358753D01*
X420052Y358832D01*
X420091Y358908D01*
X420134Y358983D01*
X420179Y359056D01*
X420228Y359127D01*
X420281Y359195D01*
X420336Y359262D01*
X420394Y359325D01*
X420455Y359386D01*
X420518Y359444D01*
X420585Y359499D01*
X420653Y359551D01*
X420724Y359601D01*
X420797Y359646D01*
X420872Y359689D01*
X420948Y359728D01*
X421027Y359764D01*
X421107Y359796D01*
X421188Y359824D01*
X421270Y359849D01*
X421354Y359870D01*
X421438Y359887D01*
X421523Y359901D01*
X421609Y359910D01*
X421695Y359916D01*
X421781Y359918D01*
X424660Y359918D01*
X429616Y359918D02*
X429616Y351282D01*
X434413Y351282D02*
X429616Y359918D01*
X434413Y359918D02*
X434413Y351282D01*
X439369Y351282D02*
X439369Y359918D01*
X441768Y359918D01*
X441865Y359916D01*
X441961Y359910D01*
X442057Y359901D01*
X442153Y359887D01*
X442248Y359870D01*
X442342Y359848D01*
X442435Y359823D01*
X442528Y359795D01*
X442619Y359762D01*
X442708Y359726D01*
X442796Y359686D01*
X442883Y359643D01*
X442968Y359597D01*
X443050Y359547D01*
X443131Y359493D01*
X443209Y359437D01*
X443285Y359377D01*
X443359Y359315D01*
X443430Y359249D01*
X443498Y359181D01*
X443564Y359110D01*
X443626Y359036D01*
X443686Y358960D01*
X443742Y358882D01*
X443796Y358801D01*
X443846Y358719D01*
X443892Y358634D01*
X443935Y358547D01*
X443975Y358459D01*
X444011Y358370D01*
X444044Y358279D01*
X444072Y358186D01*
X444097Y358093D01*
X444119Y357999D01*
X444136Y357904D01*
X444150Y357808D01*
X444159Y357712D01*
X444165Y357616D01*
X444167Y357519D01*
X444167Y353681D01*
X444165Y353584D01*
X444159Y353488D01*
X444150Y353392D01*
X444136Y353296D01*
X444119Y353201D01*
X444097Y353107D01*
X444072Y353014D01*
X444044Y352921D01*
X444011Y352830D01*
X443975Y352741D01*
X443935Y352653D01*
X443892Y352566D01*
X443846Y352482D01*
X443796Y352399D01*
X443742Y352318D01*
X443686Y352240D01*
X443626Y352164D01*
X443564Y352090D01*
X443498Y352019D01*
X443430Y351951D01*
X443359Y351885D01*
X443285Y351823D01*
X443209Y351763D01*
X443131Y351707D01*
X443050Y351653D01*
X442968Y351603D01*
X442883Y351557D01*
X442796Y351514D01*
X442708Y351474D01*
X442619Y351438D01*
X442528Y351405D01*
X442435Y351377D01*
X442342Y351352D01*
X442248Y351330D01*
X442153Y351313D01*
X442057Y351299D01*
X441961Y351290D01*
X441865Y351284D01*
X441768Y351282D01*
X439369Y351282D01*
X419862Y383399D02*
X422261Y385318D01*
X422261Y376682D01*
X419862Y376682D02*
X424660Y376682D01*
X429006Y376682D02*
X431405Y376682D01*
X431502Y376684D01*
X431598Y376690D01*
X431694Y376699D01*
X431790Y376713D01*
X431885Y376730D01*
X431979Y376752D01*
X432072Y376777D01*
X432165Y376805D01*
X432256Y376838D01*
X432345Y376874D01*
X432433Y376914D01*
X432520Y376957D01*
X432605Y377003D01*
X432687Y377053D01*
X432768Y377107D01*
X432846Y377163D01*
X432922Y377223D01*
X432996Y377285D01*
X433067Y377351D01*
X433135Y377419D01*
X433201Y377490D01*
X433263Y377564D01*
X433323Y377640D01*
X433379Y377718D01*
X433433Y377799D01*
X433483Y377882D01*
X433529Y377966D01*
X433572Y378053D01*
X433612Y378141D01*
X433648Y378230D01*
X433681Y378321D01*
X433709Y378414D01*
X433734Y378507D01*
X433756Y378601D01*
X433773Y378696D01*
X433787Y378792D01*
X433796Y378888D01*
X433802Y378984D01*
X433804Y379081D01*
X433802Y379178D01*
X433796Y379274D01*
X433787Y379370D01*
X433773Y379466D01*
X433756Y379561D01*
X433734Y379655D01*
X433709Y379748D01*
X433681Y379841D01*
X433648Y379932D01*
X433612Y380021D01*
X433572Y380109D01*
X433529Y380196D01*
X433483Y380281D01*
X433433Y380363D01*
X433379Y380444D01*
X433323Y380522D01*
X433263Y380598D01*
X433201Y380672D01*
X433135Y380743D01*
X433067Y380811D01*
X432996Y380877D01*
X432922Y380939D01*
X432846Y380999D01*
X432768Y381055D01*
X432687Y381109D01*
X432605Y381159D01*
X432520Y381205D01*
X432433Y381248D01*
X432345Y381288D01*
X432256Y381324D01*
X432165Y381357D01*
X432072Y381385D01*
X431979Y381410D01*
X431885Y381432D01*
X431790Y381449D01*
X431694Y381463D01*
X431598Y381472D01*
X431502Y381478D01*
X431405Y381480D01*
X431885Y385318D02*
X429006Y385318D01*
X431885Y385318D02*
X431971Y385316D01*
X432057Y385310D01*
X432143Y385301D01*
X432228Y385287D01*
X432312Y385270D01*
X432396Y385249D01*
X432478Y385224D01*
X432559Y385196D01*
X432639Y385164D01*
X432718Y385128D01*
X432794Y385089D01*
X432869Y385046D01*
X432942Y385001D01*
X433013Y384952D01*
X433081Y384899D01*
X433148Y384844D01*
X433211Y384786D01*
X433272Y384725D01*
X433330Y384662D01*
X433385Y384595D01*
X433438Y384527D01*
X433487Y384456D01*
X433532Y384383D01*
X433575Y384308D01*
X433614Y384232D01*
X433650Y384153D01*
X433682Y384073D01*
X433710Y383992D01*
X433735Y383910D01*
X433756Y383826D01*
X433773Y383742D01*
X433787Y383657D01*
X433796Y383571D01*
X433802Y383485D01*
X433804Y383399D01*
X433802Y383313D01*
X433796Y383227D01*
X433787Y383141D01*
X433773Y383056D01*
X433756Y382972D01*
X433735Y382888D01*
X433710Y382806D01*
X433682Y382725D01*
X433650Y382645D01*
X433614Y382566D01*
X433575Y382490D01*
X433532Y382415D01*
X433487Y382342D01*
X433438Y382271D01*
X433385Y382203D01*
X433330Y382136D01*
X433272Y382073D01*
X433211Y382012D01*
X433148Y381954D01*
X433081Y381899D01*
X433013Y381846D01*
X432942Y381797D01*
X432869Y381752D01*
X432794Y381709D01*
X432718Y381670D01*
X432639Y381634D01*
X432559Y381602D01*
X432478Y381574D01*
X432396Y381549D01*
X432312Y381528D01*
X432228Y381511D01*
X432143Y381497D01*
X432057Y381488D01*
X431971Y381482D01*
X431885Y381480D01*
X429966Y381480D01*
X419862Y408799D02*
X422261Y410718D01*
X422261Y402082D01*
X419862Y402082D02*
X424660Y402082D01*
X431645Y410718D02*
X431737Y410716D01*
X431828Y410710D01*
X431919Y410701D01*
X432010Y410687D01*
X432100Y410670D01*
X432189Y410648D01*
X432277Y410623D01*
X432364Y410595D01*
X432450Y410562D01*
X432534Y410526D01*
X432617Y410487D01*
X432698Y410444D01*
X432777Y410397D01*
X432854Y410348D01*
X432929Y410295D01*
X433001Y410239D01*
X433071Y410180D01*
X433139Y410118D01*
X433204Y410053D01*
X433266Y409985D01*
X433325Y409915D01*
X433381Y409843D01*
X433434Y409768D01*
X433483Y409691D01*
X433530Y409612D01*
X433573Y409531D01*
X433612Y409448D01*
X433648Y409364D01*
X433681Y409278D01*
X433709Y409191D01*
X433734Y409103D01*
X433756Y409014D01*
X433773Y408924D01*
X433787Y408833D01*
X433796Y408742D01*
X433802Y408651D01*
X433804Y408559D01*
X431645Y410718D02*
X431542Y410716D01*
X431440Y410710D01*
X431338Y410701D01*
X431236Y410688D01*
X431135Y410671D01*
X431034Y410650D01*
X430935Y410626D01*
X430836Y410597D01*
X430739Y410566D01*
X430642Y410530D01*
X430547Y410492D01*
X430454Y410449D01*
X430362Y410403D01*
X430272Y410354D01*
X430184Y410302D01*
X430097Y410246D01*
X430013Y410187D01*
X429932Y410126D01*
X429852Y410061D01*
X429775Y409993D01*
X429700Y409922D01*
X429629Y409849D01*
X429560Y409773D01*
X429493Y409695D01*
X429430Y409614D01*
X429370Y409531D01*
X429313Y409446D01*
X429259Y409359D01*
X429208Y409269D01*
X429161Y409178D01*
X429117Y409086D01*
X429076Y408991D01*
X429039Y408896D01*
X429006Y408799D01*
X433084Y406880D02*
X433151Y406946D01*
X433215Y407015D01*
X433276Y407086D01*
X433334Y407160D01*
X433389Y407236D01*
X433441Y407314D01*
X433490Y407394D01*
X433536Y407476D01*
X433578Y407560D01*
X433617Y407646D01*
X433652Y407733D01*
X433683Y407821D01*
X433711Y407911D01*
X433736Y408001D01*
X433757Y408093D01*
X433774Y408185D01*
X433787Y408278D01*
X433796Y408371D01*
X433802Y408465D01*
X433804Y408559D01*
X433084Y406880D02*
X429006Y402082D01*
X433804Y402082D01*
X419862Y434199D02*
X422261Y436118D01*
X422261Y427482D01*
X419862Y427482D02*
X424660Y427482D01*
X429006Y434199D02*
X431405Y436118D01*
X431405Y427482D01*
X429006Y427482D02*
X433804Y427482D01*
X422741Y334518D02*
X419862Y325882D01*
X425619Y325882D02*
X422741Y334518D01*
X424900Y328041D02*
X420582Y328041D01*
X429875Y325882D02*
X429875Y334518D01*
X432274Y334518D01*
X432371Y334516D01*
X432467Y334510D01*
X432563Y334501D01*
X432659Y334487D01*
X432754Y334470D01*
X432848Y334448D01*
X432941Y334423D01*
X433034Y334395D01*
X433125Y334362D01*
X433214Y334326D01*
X433302Y334286D01*
X433389Y334243D01*
X433474Y334197D01*
X433556Y334147D01*
X433637Y334093D01*
X433715Y334037D01*
X433791Y333977D01*
X433865Y333915D01*
X433936Y333849D01*
X434004Y333781D01*
X434070Y333710D01*
X434132Y333636D01*
X434192Y333560D01*
X434248Y333482D01*
X434302Y333401D01*
X434352Y333319D01*
X434398Y333234D01*
X434441Y333147D01*
X434481Y333059D01*
X434517Y332970D01*
X434550Y332879D01*
X434578Y332786D01*
X434603Y332693D01*
X434625Y332599D01*
X434642Y332504D01*
X434656Y332408D01*
X434665Y332312D01*
X434671Y332216D01*
X434673Y332119D01*
X434671Y332022D01*
X434665Y331926D01*
X434656Y331830D01*
X434642Y331734D01*
X434625Y331639D01*
X434603Y331545D01*
X434578Y331452D01*
X434550Y331359D01*
X434517Y331268D01*
X434481Y331179D01*
X434441Y331091D01*
X434398Y331004D01*
X434352Y330920D01*
X434302Y330837D01*
X434248Y330756D01*
X434192Y330678D01*
X434132Y330602D01*
X434070Y330528D01*
X434004Y330457D01*
X433936Y330389D01*
X433865Y330323D01*
X433791Y330261D01*
X433715Y330201D01*
X433637Y330145D01*
X433556Y330091D01*
X433474Y330041D01*
X433389Y329995D01*
X433302Y329952D01*
X433214Y329912D01*
X433125Y329876D01*
X433034Y329843D01*
X432941Y329815D01*
X432848Y329790D01*
X432754Y329768D01*
X432659Y329751D01*
X432563Y329737D01*
X432467Y329728D01*
X432371Y329722D01*
X432274Y329720D01*
X429875Y329720D01*
X432754Y329720D02*
X434673Y325882D01*
X439265Y325882D02*
X443103Y325882D01*
X439265Y325882D02*
X439265Y334518D01*
X443103Y334518D01*
X442144Y330680D02*
X439265Y330680D01*
X447190Y334518D02*
X447190Y325882D01*
X447190Y334518D02*
X451028Y334518D01*
X451028Y330680D02*
X447190Y330680D01*
X419862Y459599D02*
X422261Y461518D01*
X422261Y452882D01*
X419862Y452882D02*
X424660Y452882D01*
X429006Y457200D02*
X429008Y457370D01*
X429014Y457540D01*
X429024Y457709D01*
X429038Y457879D01*
X429057Y458048D01*
X429079Y458216D01*
X429105Y458384D01*
X429135Y458551D01*
X429170Y458717D01*
X429208Y458883D01*
X429250Y459048D01*
X429296Y459211D01*
X429346Y459374D01*
X429400Y459535D01*
X429457Y459695D01*
X429519Y459853D01*
X429584Y460010D01*
X429653Y460165D01*
X429726Y460319D01*
X429754Y460395D01*
X429786Y460470D01*
X429821Y460544D01*
X429859Y460616D01*
X429901Y460686D01*
X429946Y460754D01*
X429994Y460820D01*
X430045Y460884D01*
X430099Y460945D01*
X430155Y461004D01*
X430215Y461060D01*
X430276Y461113D01*
X430340Y461163D01*
X430407Y461211D01*
X430475Y461255D01*
X430546Y461296D01*
X430618Y461334D01*
X430692Y461368D01*
X430767Y461399D01*
X430844Y461427D01*
X430922Y461451D01*
X431001Y461471D01*
X431081Y461488D01*
X431161Y461501D01*
X431242Y461511D01*
X431323Y461516D01*
X431405Y461518D01*
X431487Y461516D01*
X431568Y461511D01*
X431649Y461501D01*
X431729Y461488D01*
X431809Y461471D01*
X431888Y461451D01*
X431966Y461427D01*
X432043Y461399D01*
X432118Y461368D01*
X432192Y461334D01*
X432264Y461296D01*
X432335Y461255D01*
X432403Y461211D01*
X432470Y461163D01*
X432534Y461113D01*
X432595Y461060D01*
X432655Y461004D01*
X432711Y460945D01*
X432765Y460884D01*
X432816Y460820D01*
X432864Y460754D01*
X432909Y460686D01*
X432951Y460616D01*
X432989Y460544D01*
X433024Y460470D01*
X433056Y460395D01*
X433084Y460319D01*
X433157Y460165D01*
X433226Y460010D01*
X433291Y459853D01*
X433353Y459695D01*
X433410Y459535D01*
X433464Y459374D01*
X433514Y459211D01*
X433560Y459048D01*
X433602Y458883D01*
X433640Y458717D01*
X433675Y458551D01*
X433705Y458384D01*
X433731Y458216D01*
X433753Y458048D01*
X433772Y457879D01*
X433786Y457709D01*
X433796Y457540D01*
X433802Y457370D01*
X433804Y457200D01*
X429006Y457200D02*
X429008Y457030D01*
X429014Y456860D01*
X429024Y456691D01*
X429038Y456521D01*
X429057Y456352D01*
X429079Y456184D01*
X429105Y456016D01*
X429135Y455849D01*
X429170Y455683D01*
X429208Y455517D01*
X429250Y455352D01*
X429296Y455189D01*
X429346Y455027D01*
X429400Y454865D01*
X429457Y454706D01*
X429519Y454547D01*
X429584Y454390D01*
X429653Y454235D01*
X429726Y454081D01*
X429754Y454005D01*
X429786Y453930D01*
X429821Y453856D01*
X429859Y453784D01*
X429901Y453714D01*
X429946Y453646D01*
X429994Y453580D01*
X430045Y453516D01*
X430099Y453455D01*
X430155Y453396D01*
X430215Y453340D01*
X430276Y453287D01*
X430340Y453237D01*
X430407Y453189D01*
X430475Y453145D01*
X430546Y453104D01*
X430618Y453066D01*
X430692Y453032D01*
X430767Y453001D01*
X430844Y452973D01*
X430922Y452949D01*
X431001Y452929D01*
X431081Y452912D01*
X431161Y452899D01*
X431242Y452889D01*
X431323Y452884D01*
X431405Y452882D01*
X433084Y454081D02*
X433157Y454235D01*
X433226Y454390D01*
X433291Y454547D01*
X433353Y454706D01*
X433410Y454865D01*
X433464Y455027D01*
X433514Y455189D01*
X433560Y455352D01*
X433602Y455517D01*
X433640Y455683D01*
X433675Y455849D01*
X433705Y456016D01*
X433731Y456184D01*
X433753Y456352D01*
X433772Y456521D01*
X433786Y456691D01*
X433796Y456860D01*
X433802Y457030D01*
X433804Y457200D01*
X433084Y454081D02*
X433056Y454005D01*
X433024Y453930D01*
X432989Y453856D01*
X432951Y453784D01*
X432909Y453714D01*
X432864Y453646D01*
X432816Y453580D01*
X432765Y453516D01*
X432711Y453455D01*
X432655Y453396D01*
X432595Y453340D01*
X432534Y453287D01*
X432470Y453237D01*
X432403Y453189D01*
X432335Y453145D01*
X432264Y453104D01*
X432192Y453066D01*
X432118Y453032D01*
X432043Y453001D01*
X431966Y452973D01*
X431888Y452949D01*
X431809Y452929D01*
X431729Y452912D01*
X431649Y452899D01*
X431568Y452889D01*
X431487Y452884D01*
X431405Y452882D01*
X429486Y454801D02*
X433324Y459599D01*
X424660Y482120D02*
X421781Y482120D01*
X421695Y482122D01*
X421609Y482128D01*
X421523Y482137D01*
X421438Y482151D01*
X421354Y482168D01*
X421270Y482189D01*
X421188Y482214D01*
X421107Y482242D01*
X421027Y482274D01*
X420948Y482310D01*
X420872Y482349D01*
X420797Y482392D01*
X420724Y482437D01*
X420653Y482486D01*
X420585Y482539D01*
X420518Y482594D01*
X420455Y482652D01*
X420394Y482713D01*
X420336Y482776D01*
X420281Y482843D01*
X420228Y482911D01*
X420179Y482982D01*
X420134Y483055D01*
X420091Y483130D01*
X420052Y483206D01*
X420016Y483285D01*
X419984Y483365D01*
X419956Y483446D01*
X419931Y483528D01*
X419910Y483612D01*
X419893Y483696D01*
X419879Y483781D01*
X419870Y483867D01*
X419864Y483953D01*
X419862Y484039D01*
X419862Y484519D01*
X419864Y484616D01*
X419870Y484712D01*
X419879Y484808D01*
X419893Y484904D01*
X419910Y484999D01*
X419932Y485093D01*
X419957Y485186D01*
X419985Y485279D01*
X420018Y485370D01*
X420054Y485459D01*
X420094Y485547D01*
X420137Y485634D01*
X420183Y485719D01*
X420233Y485801D01*
X420287Y485882D01*
X420343Y485960D01*
X420403Y486036D01*
X420465Y486110D01*
X420531Y486181D01*
X420599Y486249D01*
X420670Y486315D01*
X420744Y486377D01*
X420820Y486437D01*
X420898Y486493D01*
X420979Y486547D01*
X421062Y486597D01*
X421146Y486643D01*
X421233Y486686D01*
X421321Y486726D01*
X421410Y486762D01*
X421501Y486795D01*
X421594Y486823D01*
X421687Y486848D01*
X421781Y486870D01*
X421876Y486887D01*
X421972Y486901D01*
X422068Y486910D01*
X422164Y486916D01*
X422261Y486918D01*
X422358Y486916D01*
X422454Y486910D01*
X422550Y486901D01*
X422646Y486887D01*
X422741Y486870D01*
X422835Y486848D01*
X422928Y486823D01*
X423021Y486795D01*
X423112Y486762D01*
X423201Y486726D01*
X423289Y486686D01*
X423376Y486643D01*
X423461Y486597D01*
X423543Y486547D01*
X423624Y486493D01*
X423702Y486437D01*
X423778Y486377D01*
X423852Y486315D01*
X423923Y486249D01*
X423991Y486181D01*
X424057Y486110D01*
X424119Y486036D01*
X424179Y485960D01*
X424235Y485882D01*
X424289Y485801D01*
X424339Y485719D01*
X424385Y485634D01*
X424428Y485547D01*
X424468Y485459D01*
X424504Y485370D01*
X424537Y485279D01*
X424565Y485186D01*
X424590Y485093D01*
X424612Y484999D01*
X424629Y484904D01*
X424643Y484808D01*
X424652Y484712D01*
X424658Y484616D01*
X424660Y484519D01*
X424660Y482120D01*
X424658Y481997D01*
X424652Y481874D01*
X424642Y481751D01*
X424628Y481629D01*
X424611Y481507D01*
X424589Y481386D01*
X424564Y481266D01*
X424534Y481146D01*
X424501Y481028D01*
X424464Y480911D01*
X424424Y480794D01*
X424380Y480680D01*
X424332Y480566D01*
X424280Y480455D01*
X424225Y480345D01*
X424166Y480237D01*
X424104Y480130D01*
X424039Y480026D01*
X423970Y479924D01*
X423898Y479824D01*
X423823Y479727D01*
X423744Y479632D01*
X423663Y479540D01*
X423579Y479450D01*
X423492Y479363D01*
X423402Y479279D01*
X423310Y479198D01*
X423215Y479119D01*
X423118Y479044D01*
X423018Y478972D01*
X422916Y478903D01*
X422812Y478838D01*
X422705Y478776D01*
X422597Y478717D01*
X422487Y478662D01*
X422376Y478610D01*
X422262Y478563D01*
X422148Y478518D01*
X422031Y478478D01*
X421914Y478441D01*
X421796Y478408D01*
X421676Y478378D01*
X421556Y478353D01*
X421435Y478331D01*
X421313Y478314D01*
X421191Y478300D01*
X421068Y478290D01*
X420945Y478284D01*
X420822Y478282D01*
X419862Y506081D02*
X419864Y506178D01*
X419870Y506274D01*
X419879Y506370D01*
X419893Y506466D01*
X419910Y506561D01*
X419932Y506655D01*
X419957Y506748D01*
X419985Y506841D01*
X420018Y506932D01*
X420054Y507021D01*
X420094Y507109D01*
X420137Y507196D01*
X420183Y507281D01*
X420233Y507363D01*
X420287Y507444D01*
X420343Y507522D01*
X420403Y507598D01*
X420465Y507672D01*
X420531Y507743D01*
X420599Y507811D01*
X420670Y507877D01*
X420744Y507939D01*
X420820Y507999D01*
X420898Y508055D01*
X420979Y508109D01*
X421062Y508159D01*
X421146Y508205D01*
X421233Y508248D01*
X421321Y508288D01*
X421410Y508324D01*
X421501Y508357D01*
X421594Y508385D01*
X421687Y508410D01*
X421781Y508432D01*
X421876Y508449D01*
X421972Y508463D01*
X422068Y508472D01*
X422164Y508478D01*
X422261Y508480D01*
X422358Y508478D01*
X422454Y508472D01*
X422550Y508463D01*
X422646Y508449D01*
X422741Y508432D01*
X422835Y508410D01*
X422928Y508385D01*
X423021Y508357D01*
X423112Y508324D01*
X423201Y508288D01*
X423289Y508248D01*
X423376Y508205D01*
X423461Y508159D01*
X423543Y508109D01*
X423624Y508055D01*
X423702Y507999D01*
X423778Y507939D01*
X423852Y507877D01*
X423923Y507811D01*
X423991Y507743D01*
X424057Y507672D01*
X424119Y507598D01*
X424179Y507522D01*
X424235Y507444D01*
X424289Y507363D01*
X424339Y507281D01*
X424385Y507196D01*
X424428Y507109D01*
X424468Y507021D01*
X424504Y506932D01*
X424537Y506841D01*
X424565Y506748D01*
X424590Y506655D01*
X424612Y506561D01*
X424629Y506466D01*
X424643Y506370D01*
X424652Y506274D01*
X424658Y506178D01*
X424660Y506081D01*
X424658Y505984D01*
X424652Y505888D01*
X424643Y505792D01*
X424629Y505696D01*
X424612Y505601D01*
X424590Y505507D01*
X424565Y505414D01*
X424537Y505321D01*
X424504Y505230D01*
X424468Y505141D01*
X424428Y505053D01*
X424385Y504966D01*
X424339Y504882D01*
X424289Y504799D01*
X424235Y504718D01*
X424179Y504640D01*
X424119Y504564D01*
X424057Y504490D01*
X423991Y504419D01*
X423923Y504351D01*
X423852Y504285D01*
X423778Y504223D01*
X423702Y504163D01*
X423624Y504107D01*
X423543Y504053D01*
X423461Y504003D01*
X423376Y503957D01*
X423289Y503914D01*
X423201Y503874D01*
X423112Y503838D01*
X423021Y503805D01*
X422928Y503777D01*
X422835Y503752D01*
X422741Y503730D01*
X422646Y503713D01*
X422550Y503699D01*
X422454Y503690D01*
X422358Y503684D01*
X422261Y503682D01*
X422164Y503684D01*
X422068Y503690D01*
X421972Y503699D01*
X421876Y503713D01*
X421781Y503730D01*
X421687Y503752D01*
X421594Y503777D01*
X421501Y503805D01*
X421410Y503838D01*
X421321Y503874D01*
X421233Y503914D01*
X421146Y503957D01*
X421062Y504003D01*
X420979Y504053D01*
X420898Y504107D01*
X420820Y504163D01*
X420744Y504223D01*
X420670Y504285D01*
X420599Y504351D01*
X420531Y504419D01*
X420465Y504490D01*
X420403Y504564D01*
X420343Y504640D01*
X420287Y504718D01*
X420233Y504799D01*
X420183Y504882D01*
X420137Y504966D01*
X420094Y505053D01*
X420054Y505141D01*
X420018Y505230D01*
X419985Y505321D01*
X419957Y505414D01*
X419932Y505507D01*
X419910Y505601D01*
X419893Y505696D01*
X419879Y505792D01*
X419870Y505888D01*
X419864Y505984D01*
X419862Y506081D01*
X420342Y510399D02*
X420344Y510485D01*
X420350Y510571D01*
X420359Y510657D01*
X420373Y510742D01*
X420390Y510826D01*
X420411Y510910D01*
X420436Y510992D01*
X420464Y511073D01*
X420496Y511153D01*
X420532Y511232D01*
X420571Y511308D01*
X420614Y511383D01*
X420659Y511456D01*
X420708Y511527D01*
X420761Y511595D01*
X420816Y511662D01*
X420874Y511725D01*
X420935Y511786D01*
X420998Y511844D01*
X421065Y511899D01*
X421133Y511952D01*
X421204Y512001D01*
X421277Y512046D01*
X421352Y512089D01*
X421428Y512128D01*
X421507Y512164D01*
X421587Y512196D01*
X421668Y512224D01*
X421750Y512249D01*
X421834Y512270D01*
X421918Y512287D01*
X422003Y512301D01*
X422089Y512310D01*
X422175Y512316D01*
X422261Y512318D01*
X422347Y512316D01*
X422433Y512310D01*
X422519Y512301D01*
X422604Y512287D01*
X422688Y512270D01*
X422772Y512249D01*
X422854Y512224D01*
X422935Y512196D01*
X423015Y512164D01*
X423094Y512128D01*
X423170Y512089D01*
X423245Y512046D01*
X423318Y512001D01*
X423389Y511952D01*
X423457Y511899D01*
X423524Y511844D01*
X423587Y511786D01*
X423648Y511725D01*
X423706Y511662D01*
X423761Y511595D01*
X423814Y511527D01*
X423863Y511456D01*
X423908Y511383D01*
X423951Y511308D01*
X423990Y511232D01*
X424026Y511153D01*
X424058Y511073D01*
X424086Y510992D01*
X424111Y510910D01*
X424132Y510826D01*
X424149Y510742D01*
X424163Y510657D01*
X424172Y510571D01*
X424178Y510485D01*
X424180Y510399D01*
X424178Y510313D01*
X424172Y510227D01*
X424163Y510141D01*
X424149Y510056D01*
X424132Y509972D01*
X424111Y509888D01*
X424086Y509806D01*
X424058Y509725D01*
X424026Y509645D01*
X423990Y509566D01*
X423951Y509490D01*
X423908Y509415D01*
X423863Y509342D01*
X423814Y509271D01*
X423761Y509203D01*
X423706Y509136D01*
X423648Y509073D01*
X423587Y509012D01*
X423524Y508954D01*
X423457Y508899D01*
X423389Y508846D01*
X423318Y508797D01*
X423245Y508752D01*
X423170Y508709D01*
X423094Y508670D01*
X423015Y508634D01*
X422935Y508602D01*
X422854Y508574D01*
X422772Y508549D01*
X422688Y508528D01*
X422604Y508511D01*
X422519Y508497D01*
X422433Y508488D01*
X422347Y508482D01*
X422261Y508480D01*
X422175Y508482D01*
X422089Y508488D01*
X422003Y508497D01*
X421918Y508511D01*
X421834Y508528D01*
X421750Y508549D01*
X421668Y508574D01*
X421587Y508602D01*
X421507Y508634D01*
X421428Y508670D01*
X421352Y508709D01*
X421277Y508752D01*
X421204Y508797D01*
X421133Y508846D01*
X421065Y508899D01*
X420998Y508954D01*
X420935Y509012D01*
X420874Y509073D01*
X420816Y509136D01*
X420761Y509203D01*
X420708Y509271D01*
X420659Y509342D01*
X420614Y509415D01*
X420571Y509490D01*
X420532Y509566D01*
X420496Y509645D01*
X420464Y509725D01*
X420436Y509806D01*
X420411Y509888D01*
X420390Y509972D01*
X420373Y510056D01*
X420359Y510141D01*
X420350Y510227D01*
X420344Y510313D01*
X420342Y510399D01*
X419862Y549458D02*
X419862Y550418D01*
X424660Y550418D01*
X422261Y541782D01*
X422741Y571980D02*
X419862Y571980D01*
X422741Y571980D02*
X422827Y571978D01*
X422913Y571972D01*
X422999Y571963D01*
X423084Y571949D01*
X423168Y571932D01*
X423252Y571911D01*
X423334Y571886D01*
X423415Y571858D01*
X423495Y571826D01*
X423574Y571790D01*
X423650Y571751D01*
X423725Y571708D01*
X423798Y571663D01*
X423869Y571614D01*
X423937Y571561D01*
X424004Y571506D01*
X424067Y571448D01*
X424128Y571387D01*
X424186Y571324D01*
X424241Y571257D01*
X424294Y571189D01*
X424343Y571118D01*
X424388Y571045D01*
X424431Y570970D01*
X424470Y570894D01*
X424506Y570815D01*
X424538Y570735D01*
X424566Y570654D01*
X424591Y570572D01*
X424612Y570488D01*
X424629Y570404D01*
X424643Y570319D01*
X424652Y570233D01*
X424658Y570147D01*
X424660Y570061D01*
X424660Y569581D01*
X424658Y569484D01*
X424652Y569388D01*
X424643Y569292D01*
X424629Y569196D01*
X424612Y569101D01*
X424590Y569007D01*
X424565Y568914D01*
X424537Y568821D01*
X424504Y568730D01*
X424468Y568641D01*
X424428Y568553D01*
X424385Y568466D01*
X424339Y568382D01*
X424289Y568299D01*
X424235Y568218D01*
X424179Y568140D01*
X424119Y568064D01*
X424057Y567990D01*
X423991Y567919D01*
X423923Y567851D01*
X423852Y567785D01*
X423778Y567723D01*
X423702Y567663D01*
X423624Y567607D01*
X423543Y567553D01*
X423461Y567503D01*
X423376Y567457D01*
X423289Y567414D01*
X423201Y567374D01*
X423112Y567338D01*
X423021Y567305D01*
X422928Y567277D01*
X422835Y567252D01*
X422741Y567230D01*
X422646Y567213D01*
X422550Y567199D01*
X422454Y567190D01*
X422358Y567184D01*
X422261Y567182D01*
X422164Y567184D01*
X422068Y567190D01*
X421972Y567199D01*
X421876Y567213D01*
X421781Y567230D01*
X421687Y567252D01*
X421594Y567277D01*
X421501Y567305D01*
X421410Y567338D01*
X421321Y567374D01*
X421233Y567414D01*
X421146Y567457D01*
X421062Y567503D01*
X420979Y567553D01*
X420898Y567607D01*
X420820Y567663D01*
X420744Y567723D01*
X420670Y567785D01*
X420599Y567851D01*
X420531Y567919D01*
X420465Y567990D01*
X420403Y568064D01*
X420343Y568140D01*
X420287Y568218D01*
X420233Y568299D01*
X420183Y568382D01*
X420137Y568466D01*
X420094Y568553D01*
X420054Y568641D01*
X420018Y568730D01*
X419985Y568821D01*
X419957Y568914D01*
X419932Y569007D01*
X419910Y569101D01*
X419893Y569196D01*
X419879Y569292D01*
X419870Y569388D01*
X419864Y569484D01*
X419862Y569581D01*
X419862Y571980D01*
X419864Y572103D01*
X419870Y572226D01*
X419880Y572349D01*
X419894Y572471D01*
X419911Y572593D01*
X419933Y572714D01*
X419958Y572834D01*
X419988Y572954D01*
X420021Y573072D01*
X420058Y573189D01*
X420098Y573306D01*
X420142Y573420D01*
X420190Y573534D01*
X420242Y573645D01*
X420297Y573755D01*
X420356Y573863D01*
X420418Y573970D01*
X420483Y574074D01*
X420552Y574176D01*
X420624Y574276D01*
X420699Y574373D01*
X420778Y574468D01*
X420859Y574560D01*
X420943Y574650D01*
X421030Y574737D01*
X421120Y574821D01*
X421212Y574902D01*
X421307Y574981D01*
X421404Y575056D01*
X421504Y575128D01*
X421606Y575197D01*
X421710Y575262D01*
X421817Y575324D01*
X421925Y575383D01*
X422035Y575438D01*
X422146Y575490D01*
X422260Y575537D01*
X422374Y575582D01*
X422491Y575622D01*
X422608Y575659D01*
X422726Y575692D01*
X422846Y575722D01*
X422966Y575747D01*
X423087Y575769D01*
X423209Y575786D01*
X423331Y575800D01*
X423454Y575810D01*
X423577Y575816D01*
X423700Y575818D01*
X422741Y592582D02*
X419862Y592582D01*
X422741Y592582D02*
X422827Y592584D01*
X422913Y592590D01*
X422999Y592599D01*
X423084Y592613D01*
X423168Y592630D01*
X423252Y592651D01*
X423334Y592676D01*
X423415Y592704D01*
X423495Y592736D01*
X423574Y592772D01*
X423650Y592811D01*
X423725Y592854D01*
X423798Y592899D01*
X423869Y592949D01*
X423937Y593001D01*
X424004Y593056D01*
X424067Y593114D01*
X424128Y593175D01*
X424186Y593238D01*
X424241Y593305D01*
X424294Y593373D01*
X424343Y593444D01*
X424388Y593517D01*
X424431Y593592D01*
X424470Y593668D01*
X424506Y593747D01*
X424538Y593827D01*
X424566Y593908D01*
X424591Y593991D01*
X424612Y594074D01*
X424629Y594158D01*
X424643Y594243D01*
X424652Y594329D01*
X424658Y594415D01*
X424660Y594501D01*
X424660Y595461D01*
X424658Y595547D01*
X424652Y595633D01*
X424643Y595719D01*
X424629Y595804D01*
X424612Y595888D01*
X424591Y595972D01*
X424566Y596054D01*
X424538Y596135D01*
X424506Y596215D01*
X424470Y596294D01*
X424431Y596370D01*
X424388Y596445D01*
X424343Y596518D01*
X424294Y596589D01*
X424241Y596657D01*
X424186Y596724D01*
X424128Y596787D01*
X424067Y596848D01*
X424004Y596906D01*
X423937Y596961D01*
X423869Y597014D01*
X423798Y597063D01*
X423725Y597108D01*
X423650Y597151D01*
X423574Y597190D01*
X423495Y597226D01*
X423415Y597258D01*
X423334Y597286D01*
X423252Y597311D01*
X423168Y597332D01*
X423084Y597349D01*
X422999Y597363D01*
X422913Y597372D01*
X422827Y597378D01*
X422741Y597380D01*
X419862Y597380D01*
X419862Y601218D01*
X424660Y601218D01*
X419862Y619901D02*
X421781Y626618D01*
X419862Y619901D02*
X424660Y619901D01*
X423220Y621820D02*
X423220Y617982D01*
X422261Y643382D02*
X419862Y643382D01*
X422261Y643382D02*
X422358Y643384D01*
X422454Y643390D01*
X422550Y643399D01*
X422646Y643413D01*
X422741Y643430D01*
X422835Y643452D01*
X422928Y643477D01*
X423021Y643505D01*
X423112Y643538D01*
X423201Y643574D01*
X423289Y643614D01*
X423376Y643657D01*
X423461Y643703D01*
X423543Y643753D01*
X423624Y643807D01*
X423702Y643863D01*
X423778Y643923D01*
X423852Y643985D01*
X423923Y644051D01*
X423991Y644119D01*
X424057Y644190D01*
X424119Y644264D01*
X424179Y644340D01*
X424235Y644418D01*
X424289Y644499D01*
X424339Y644582D01*
X424385Y644666D01*
X424428Y644753D01*
X424468Y644841D01*
X424504Y644930D01*
X424537Y645021D01*
X424565Y645114D01*
X424590Y645207D01*
X424612Y645301D01*
X424629Y645396D01*
X424643Y645492D01*
X424652Y645588D01*
X424658Y645684D01*
X424660Y645781D01*
X424658Y645878D01*
X424652Y645974D01*
X424643Y646070D01*
X424629Y646166D01*
X424612Y646261D01*
X424590Y646355D01*
X424565Y646448D01*
X424537Y646541D01*
X424504Y646632D01*
X424468Y646721D01*
X424428Y646809D01*
X424385Y646896D01*
X424339Y646981D01*
X424289Y647063D01*
X424235Y647144D01*
X424179Y647222D01*
X424119Y647298D01*
X424057Y647372D01*
X423991Y647443D01*
X423923Y647511D01*
X423852Y647577D01*
X423778Y647639D01*
X423702Y647699D01*
X423624Y647755D01*
X423543Y647809D01*
X423461Y647859D01*
X423376Y647905D01*
X423289Y647948D01*
X423201Y647988D01*
X423112Y648024D01*
X423021Y648057D01*
X422928Y648085D01*
X422835Y648110D01*
X422741Y648132D01*
X422646Y648149D01*
X422550Y648163D01*
X422454Y648172D01*
X422358Y648178D01*
X422261Y648180D01*
X422741Y652018D02*
X419862Y652018D01*
X422741Y652018D02*
X422827Y652016D01*
X422913Y652010D01*
X422999Y652001D01*
X423084Y651987D01*
X423168Y651970D01*
X423252Y651949D01*
X423334Y651924D01*
X423415Y651896D01*
X423495Y651864D01*
X423574Y651828D01*
X423650Y651789D01*
X423725Y651746D01*
X423798Y651701D01*
X423869Y651652D01*
X423937Y651599D01*
X424004Y651544D01*
X424067Y651486D01*
X424128Y651425D01*
X424186Y651362D01*
X424241Y651295D01*
X424294Y651227D01*
X424343Y651156D01*
X424388Y651083D01*
X424431Y651008D01*
X424470Y650932D01*
X424506Y650853D01*
X424538Y650773D01*
X424566Y650692D01*
X424591Y650610D01*
X424612Y650526D01*
X424629Y650442D01*
X424643Y650357D01*
X424652Y650271D01*
X424658Y650185D01*
X424660Y650099D01*
X424658Y650013D01*
X424652Y649927D01*
X424643Y649841D01*
X424629Y649756D01*
X424612Y649672D01*
X424591Y649588D01*
X424566Y649506D01*
X424538Y649425D01*
X424506Y649345D01*
X424470Y649266D01*
X424431Y649190D01*
X424388Y649115D01*
X424343Y649042D01*
X424294Y648971D01*
X424241Y648903D01*
X424186Y648836D01*
X424128Y648773D01*
X424067Y648712D01*
X424004Y648654D01*
X423937Y648599D01*
X423869Y648546D01*
X423798Y648497D01*
X423725Y648452D01*
X423650Y648409D01*
X423574Y648370D01*
X423495Y648334D01*
X423415Y648302D01*
X423334Y648274D01*
X423252Y648249D01*
X423168Y648228D01*
X423084Y648211D01*
X422999Y648197D01*
X422913Y648188D01*
X422827Y648182D01*
X422741Y648180D01*
X420822Y648180D01*
X424660Y675259D02*
X424658Y675351D01*
X424652Y675442D01*
X424643Y675533D01*
X424629Y675624D01*
X424612Y675714D01*
X424590Y675803D01*
X424565Y675891D01*
X424537Y675978D01*
X424504Y676064D01*
X424468Y676148D01*
X424429Y676231D01*
X424386Y676312D01*
X424339Y676391D01*
X424290Y676468D01*
X424237Y676543D01*
X424181Y676615D01*
X424122Y676685D01*
X424060Y676753D01*
X423995Y676818D01*
X423927Y676880D01*
X423857Y676939D01*
X423785Y676995D01*
X423710Y677048D01*
X423633Y677097D01*
X423554Y677144D01*
X423473Y677187D01*
X423390Y677226D01*
X423306Y677262D01*
X423220Y677295D01*
X423133Y677323D01*
X423045Y677348D01*
X422956Y677370D01*
X422866Y677387D01*
X422775Y677401D01*
X422684Y677410D01*
X422593Y677416D01*
X422501Y677418D01*
X422398Y677416D01*
X422296Y677410D01*
X422194Y677401D01*
X422092Y677388D01*
X421991Y677371D01*
X421890Y677350D01*
X421791Y677326D01*
X421692Y677297D01*
X421595Y677266D01*
X421498Y677230D01*
X421403Y677192D01*
X421310Y677149D01*
X421218Y677103D01*
X421128Y677054D01*
X421040Y677002D01*
X420953Y676946D01*
X420869Y676887D01*
X420788Y676826D01*
X420708Y676761D01*
X420631Y676693D01*
X420556Y676622D01*
X420485Y676549D01*
X420416Y676473D01*
X420349Y676395D01*
X420286Y676314D01*
X420226Y676231D01*
X420169Y676146D01*
X420115Y676059D01*
X420064Y675969D01*
X420017Y675878D01*
X419973Y675786D01*
X419932Y675691D01*
X419895Y675596D01*
X419862Y675499D01*
X423940Y673580D02*
X424007Y673646D01*
X424071Y673715D01*
X424132Y673786D01*
X424190Y673860D01*
X424245Y673936D01*
X424297Y674014D01*
X424346Y674094D01*
X424392Y674176D01*
X424434Y674260D01*
X424473Y674346D01*
X424508Y674433D01*
X424539Y674521D01*
X424567Y674611D01*
X424592Y674701D01*
X424613Y674793D01*
X424630Y674885D01*
X424643Y674978D01*
X424652Y675071D01*
X424658Y675165D01*
X424660Y675259D01*
X423940Y673580D02*
X419862Y668782D01*
X424660Y668782D01*
X422261Y694182D02*
X422261Y702818D01*
X419862Y702818D02*
X424660Y702818D01*
X433674Y702818D02*
X427917Y694182D01*
X433674Y694182D02*
X427917Y702818D01*
X419862Y719582D02*
X419862Y728218D01*
X422261Y728218D01*
X422358Y728216D01*
X422454Y728210D01*
X422550Y728201D01*
X422646Y728187D01*
X422741Y728170D01*
X422835Y728148D01*
X422928Y728123D01*
X423021Y728095D01*
X423112Y728062D01*
X423201Y728026D01*
X423289Y727986D01*
X423376Y727943D01*
X423461Y727897D01*
X423543Y727847D01*
X423624Y727793D01*
X423702Y727737D01*
X423778Y727677D01*
X423852Y727615D01*
X423923Y727549D01*
X423991Y727481D01*
X424057Y727410D01*
X424119Y727336D01*
X424179Y727260D01*
X424235Y727182D01*
X424289Y727101D01*
X424339Y727019D01*
X424385Y726934D01*
X424428Y726847D01*
X424468Y726759D01*
X424504Y726670D01*
X424537Y726579D01*
X424565Y726486D01*
X424590Y726393D01*
X424612Y726299D01*
X424629Y726204D01*
X424643Y726108D01*
X424652Y726012D01*
X424658Y725916D01*
X424660Y725819D01*
X424658Y725722D01*
X424652Y725626D01*
X424643Y725530D01*
X424629Y725434D01*
X424612Y725339D01*
X424590Y725245D01*
X424565Y725152D01*
X424537Y725059D01*
X424504Y724968D01*
X424468Y724879D01*
X424428Y724791D01*
X424385Y724704D01*
X424339Y724620D01*
X424289Y724537D01*
X424235Y724456D01*
X424179Y724378D01*
X424119Y724302D01*
X424057Y724228D01*
X423991Y724157D01*
X423923Y724089D01*
X423852Y724023D01*
X423778Y723961D01*
X423702Y723901D01*
X423624Y723845D01*
X423543Y723791D01*
X423461Y723741D01*
X423376Y723695D01*
X423289Y723652D01*
X423201Y723612D01*
X423112Y723576D01*
X423021Y723543D01*
X422928Y723515D01*
X422835Y723490D01*
X422741Y723468D01*
X422646Y723451D01*
X422550Y723437D01*
X422454Y723428D01*
X422358Y723422D01*
X422261Y723420D01*
X419862Y723420D01*
X422741Y723420D02*
X424660Y719582D01*
X428442Y719582D02*
X434199Y728218D01*
X428442Y728218D02*
X434199Y719582D01*
X424660Y302401D02*
X424658Y302315D01*
X424652Y302229D01*
X424643Y302143D01*
X424629Y302058D01*
X424612Y301974D01*
X424591Y301890D01*
X424566Y301808D01*
X424538Y301727D01*
X424506Y301647D01*
X424470Y301568D01*
X424431Y301492D01*
X424388Y301417D01*
X424343Y301344D01*
X424294Y301273D01*
X424241Y301205D01*
X424186Y301138D01*
X424128Y301075D01*
X424067Y301014D01*
X424004Y300956D01*
X423937Y300901D01*
X423869Y300849D01*
X423798Y300799D01*
X423725Y300754D01*
X423650Y300711D01*
X423574Y300672D01*
X423495Y300636D01*
X423415Y300604D01*
X423334Y300576D01*
X423252Y300551D01*
X423168Y300530D01*
X423084Y300513D01*
X422999Y300499D01*
X422913Y300490D01*
X422827Y300484D01*
X422741Y300482D01*
X422618Y300484D01*
X422495Y300489D01*
X422372Y300499D01*
X422250Y300512D01*
X422128Y300529D01*
X422006Y300549D01*
X421886Y300573D01*
X421766Y300601D01*
X421647Y300632D01*
X421529Y300667D01*
X421412Y300706D01*
X421296Y300748D01*
X421182Y300794D01*
X421069Y300843D01*
X420958Y300895D01*
X420848Y300951D01*
X420740Y301010D01*
X420634Y301073D01*
X420529Y301138D01*
X420427Y301207D01*
X420327Y301279D01*
X420230Y301354D01*
X420134Y301431D01*
X420041Y301512D01*
X419950Y301595D01*
X419862Y301681D01*
X420102Y307199D02*
X420104Y307285D01*
X420110Y307371D01*
X420119Y307457D01*
X420133Y307542D01*
X420150Y307626D01*
X420171Y307710D01*
X420196Y307792D01*
X420224Y307873D01*
X420256Y307953D01*
X420292Y308032D01*
X420331Y308108D01*
X420374Y308183D01*
X420419Y308256D01*
X420468Y308327D01*
X420521Y308395D01*
X420576Y308462D01*
X420634Y308525D01*
X420695Y308586D01*
X420758Y308644D01*
X420825Y308699D01*
X420893Y308752D01*
X420964Y308801D01*
X421037Y308846D01*
X421112Y308889D01*
X421188Y308928D01*
X421267Y308964D01*
X421347Y308996D01*
X421428Y309024D01*
X421510Y309049D01*
X421594Y309070D01*
X421678Y309087D01*
X421763Y309101D01*
X421849Y309110D01*
X421935Y309116D01*
X422021Y309118D01*
X422137Y309116D01*
X422252Y309111D01*
X422368Y309101D01*
X422483Y309088D01*
X422597Y309072D01*
X422711Y309051D01*
X422825Y309027D01*
X422937Y308999D01*
X423048Y308968D01*
X423159Y308933D01*
X423268Y308895D01*
X423376Y308853D01*
X423482Y308808D01*
X423588Y308759D01*
X423691Y308707D01*
X423793Y308652D01*
X423892Y308593D01*
X423990Y308531D01*
X424086Y308466D01*
X424180Y308398D01*
X421061Y305520D02*
X420987Y305566D01*
X420914Y305616D01*
X420844Y305669D01*
X420776Y305725D01*
X420711Y305784D01*
X420648Y305846D01*
X420589Y305911D01*
X420532Y305978D01*
X420478Y306048D01*
X420428Y306120D01*
X420381Y306194D01*
X420337Y306270D01*
X420297Y306349D01*
X420261Y306429D01*
X420228Y306510D01*
X420199Y306593D01*
X420173Y306678D01*
X420151Y306763D01*
X420134Y306849D01*
X420120Y306936D01*
X420110Y307023D01*
X420104Y307111D01*
X420102Y307199D01*
X423701Y304080D02*
X423775Y304034D01*
X423848Y303984D01*
X423918Y303931D01*
X423986Y303875D01*
X424051Y303816D01*
X424114Y303754D01*
X424173Y303689D01*
X424230Y303622D01*
X424284Y303552D01*
X424334Y303480D01*
X424381Y303406D01*
X424425Y303330D01*
X424465Y303251D01*
X424501Y303171D01*
X424534Y303090D01*
X424563Y303007D01*
X424589Y302922D01*
X424611Y302837D01*
X424628Y302751D01*
X424642Y302664D01*
X424652Y302577D01*
X424658Y302489D01*
X424660Y302401D01*
X423700Y304080D02*
X421061Y305520D01*
X429006Y309118D02*
X429006Y300482D01*
X429006Y309118D02*
X431405Y309118D01*
X431502Y309116D01*
X431598Y309110D01*
X431694Y309101D01*
X431790Y309087D01*
X431885Y309070D01*
X431979Y309048D01*
X432072Y309023D01*
X432165Y308995D01*
X432256Y308962D01*
X432345Y308926D01*
X432433Y308886D01*
X432520Y308843D01*
X432605Y308797D01*
X432687Y308747D01*
X432768Y308693D01*
X432846Y308637D01*
X432922Y308577D01*
X432996Y308515D01*
X433067Y308449D01*
X433135Y308381D01*
X433201Y308310D01*
X433263Y308236D01*
X433323Y308160D01*
X433379Y308082D01*
X433433Y308001D01*
X433483Y307919D01*
X433529Y307834D01*
X433572Y307747D01*
X433612Y307659D01*
X433648Y307570D01*
X433681Y307479D01*
X433709Y307386D01*
X433734Y307293D01*
X433756Y307199D01*
X433773Y307104D01*
X433787Y307008D01*
X433796Y306912D01*
X433802Y306816D01*
X433804Y306719D01*
X433804Y302881D01*
X433802Y302784D01*
X433796Y302688D01*
X433787Y302592D01*
X433773Y302496D01*
X433756Y302401D01*
X433734Y302307D01*
X433709Y302214D01*
X433681Y302121D01*
X433648Y302030D01*
X433612Y301941D01*
X433572Y301853D01*
X433529Y301766D01*
X433483Y301682D01*
X433433Y301599D01*
X433379Y301518D01*
X433323Y301440D01*
X433263Y301364D01*
X433201Y301290D01*
X433135Y301219D01*
X433067Y301151D01*
X432996Y301085D01*
X432922Y301023D01*
X432846Y300963D01*
X432768Y300907D01*
X432687Y300853D01*
X432605Y300803D01*
X432520Y300757D01*
X432433Y300714D01*
X432345Y300674D01*
X432256Y300638D01*
X432165Y300605D01*
X432072Y300577D01*
X431979Y300552D01*
X431885Y300530D01*
X431790Y300513D01*
X431694Y300499D01*
X431598Y300490D01*
X431502Y300484D01*
X431405Y300482D01*
X429006Y300482D01*
X437975Y300482D02*
X440854Y309118D01*
X443732Y300482D01*
X443013Y302641D02*
X438695Y302641D01*
X424660Y277001D02*
X424658Y276915D01*
X424652Y276829D01*
X424643Y276743D01*
X424629Y276658D01*
X424612Y276574D01*
X424591Y276490D01*
X424566Y276408D01*
X424538Y276327D01*
X424506Y276247D01*
X424470Y276168D01*
X424431Y276092D01*
X424388Y276017D01*
X424343Y275944D01*
X424294Y275873D01*
X424241Y275805D01*
X424186Y275738D01*
X424128Y275675D01*
X424067Y275614D01*
X424004Y275556D01*
X423937Y275501D01*
X423869Y275449D01*
X423798Y275399D01*
X423725Y275354D01*
X423650Y275311D01*
X423574Y275272D01*
X423495Y275236D01*
X423415Y275204D01*
X423334Y275176D01*
X423252Y275151D01*
X423168Y275130D01*
X423084Y275113D01*
X422999Y275099D01*
X422913Y275090D01*
X422827Y275084D01*
X422741Y275082D01*
X422618Y275084D01*
X422495Y275089D01*
X422372Y275099D01*
X422250Y275112D01*
X422128Y275129D01*
X422006Y275149D01*
X421886Y275173D01*
X421766Y275201D01*
X421647Y275232D01*
X421529Y275267D01*
X421412Y275306D01*
X421296Y275348D01*
X421182Y275394D01*
X421069Y275443D01*
X420958Y275495D01*
X420848Y275551D01*
X420740Y275610D01*
X420634Y275673D01*
X420529Y275738D01*
X420427Y275807D01*
X420327Y275879D01*
X420230Y275954D01*
X420134Y276031D01*
X420041Y276112D01*
X419950Y276195D01*
X419862Y276281D01*
X420102Y281799D02*
X420104Y281885D01*
X420110Y281971D01*
X420119Y282057D01*
X420133Y282142D01*
X420150Y282226D01*
X420171Y282310D01*
X420196Y282392D01*
X420224Y282473D01*
X420256Y282553D01*
X420292Y282632D01*
X420331Y282708D01*
X420374Y282783D01*
X420419Y282856D01*
X420468Y282927D01*
X420521Y282995D01*
X420576Y283062D01*
X420634Y283125D01*
X420695Y283186D01*
X420758Y283244D01*
X420825Y283299D01*
X420893Y283352D01*
X420964Y283401D01*
X421037Y283446D01*
X421112Y283489D01*
X421188Y283528D01*
X421267Y283564D01*
X421347Y283596D01*
X421428Y283624D01*
X421510Y283649D01*
X421594Y283670D01*
X421678Y283687D01*
X421763Y283701D01*
X421849Y283710D01*
X421935Y283716D01*
X422021Y283718D01*
X422137Y283716D01*
X422252Y283711D01*
X422368Y283701D01*
X422483Y283688D01*
X422597Y283672D01*
X422711Y283651D01*
X422825Y283627D01*
X422937Y283599D01*
X423048Y283568D01*
X423159Y283533D01*
X423268Y283495D01*
X423376Y283453D01*
X423482Y283408D01*
X423588Y283359D01*
X423691Y283307D01*
X423793Y283252D01*
X423892Y283193D01*
X423990Y283131D01*
X424086Y283066D01*
X424180Y282998D01*
X421061Y280120D02*
X420987Y280166D01*
X420914Y280216D01*
X420844Y280269D01*
X420776Y280325D01*
X420711Y280384D01*
X420648Y280446D01*
X420589Y280511D01*
X420532Y280578D01*
X420478Y280648D01*
X420428Y280720D01*
X420381Y280794D01*
X420337Y280870D01*
X420297Y280949D01*
X420261Y281029D01*
X420228Y281110D01*
X420199Y281193D01*
X420173Y281278D01*
X420151Y281363D01*
X420134Y281449D01*
X420120Y281536D01*
X420110Y281623D01*
X420104Y281711D01*
X420102Y281799D01*
X423701Y278680D02*
X423775Y278634D01*
X423848Y278584D01*
X423918Y278531D01*
X423986Y278475D01*
X424051Y278416D01*
X424114Y278354D01*
X424173Y278289D01*
X424230Y278222D01*
X424284Y278152D01*
X424334Y278080D01*
X424381Y278006D01*
X424425Y277930D01*
X424465Y277851D01*
X424501Y277771D01*
X424534Y277690D01*
X424563Y277607D01*
X424589Y277522D01*
X424611Y277437D01*
X424628Y277351D01*
X424642Y277264D01*
X424652Y277177D01*
X424658Y277089D01*
X424660Y277001D01*
X423700Y278680D02*
X421061Y280120D01*
X430582Y275082D02*
X432501Y275082D01*
X430582Y275082D02*
X430496Y275084D01*
X430410Y275090D01*
X430324Y275099D01*
X430239Y275113D01*
X430155Y275130D01*
X430071Y275151D01*
X429989Y275176D01*
X429908Y275204D01*
X429828Y275236D01*
X429749Y275272D01*
X429673Y275311D01*
X429598Y275354D01*
X429525Y275399D01*
X429454Y275448D01*
X429386Y275501D01*
X429319Y275556D01*
X429256Y275614D01*
X429195Y275675D01*
X429137Y275738D01*
X429082Y275805D01*
X429029Y275873D01*
X428980Y275944D01*
X428935Y276017D01*
X428892Y276092D01*
X428853Y276168D01*
X428817Y276247D01*
X428785Y276327D01*
X428757Y276408D01*
X428732Y276490D01*
X428711Y276574D01*
X428694Y276658D01*
X428680Y276743D01*
X428671Y276829D01*
X428665Y276915D01*
X428663Y277001D01*
X428663Y281799D01*
X428665Y281885D01*
X428671Y281971D01*
X428680Y282057D01*
X428694Y282142D01*
X428711Y282226D01*
X428732Y282310D01*
X428757Y282392D01*
X428785Y282473D01*
X428817Y282553D01*
X428853Y282632D01*
X428892Y282708D01*
X428935Y282783D01*
X428980Y282856D01*
X429029Y282927D01*
X429082Y282995D01*
X429137Y283062D01*
X429195Y283125D01*
X429256Y283186D01*
X429319Y283244D01*
X429386Y283299D01*
X429454Y283351D01*
X429525Y283401D01*
X429598Y283446D01*
X429673Y283489D01*
X429749Y283528D01*
X429828Y283564D01*
X429908Y283596D01*
X429989Y283624D01*
X430071Y283649D01*
X430155Y283670D01*
X430239Y283687D01*
X430324Y283701D01*
X430410Y283710D01*
X430496Y283716D01*
X430582Y283718D01*
X432501Y283718D01*
X436652Y283718D02*
X436652Y275082D01*
X440490Y275082D01*
X838792Y389382D02*
X838792Y398018D01*
X837833Y389382D02*
X839752Y389382D01*
X839752Y398018D02*
X837833Y398018D01*
X843709Y395619D02*
X843709Y391781D01*
X843708Y395619D02*
X843710Y395716D01*
X843716Y395812D01*
X843725Y395908D01*
X843739Y396004D01*
X843756Y396099D01*
X843778Y396193D01*
X843803Y396286D01*
X843831Y396379D01*
X843864Y396470D01*
X843900Y396559D01*
X843940Y396647D01*
X843983Y396734D01*
X844029Y396819D01*
X844079Y396901D01*
X844133Y396982D01*
X844189Y397060D01*
X844249Y397136D01*
X844311Y397210D01*
X844377Y397281D01*
X844445Y397349D01*
X844516Y397415D01*
X844590Y397477D01*
X844666Y397537D01*
X844744Y397593D01*
X844825Y397647D01*
X844908Y397697D01*
X844992Y397743D01*
X845079Y397786D01*
X845167Y397826D01*
X845256Y397862D01*
X845347Y397895D01*
X845440Y397923D01*
X845533Y397948D01*
X845627Y397970D01*
X845722Y397987D01*
X845818Y398001D01*
X845914Y398010D01*
X846010Y398016D01*
X846107Y398018D01*
X846204Y398016D01*
X846300Y398010D01*
X846396Y398001D01*
X846492Y397987D01*
X846587Y397970D01*
X846681Y397948D01*
X846774Y397923D01*
X846867Y397895D01*
X846958Y397862D01*
X847047Y397826D01*
X847135Y397786D01*
X847222Y397743D01*
X847307Y397697D01*
X847389Y397647D01*
X847470Y397593D01*
X847548Y397537D01*
X847624Y397477D01*
X847698Y397415D01*
X847769Y397349D01*
X847837Y397281D01*
X847903Y397210D01*
X847965Y397136D01*
X848025Y397060D01*
X848081Y396982D01*
X848135Y396901D01*
X848185Y396819D01*
X848231Y396734D01*
X848274Y396647D01*
X848314Y396559D01*
X848350Y396470D01*
X848383Y396379D01*
X848411Y396286D01*
X848436Y396193D01*
X848458Y396099D01*
X848475Y396004D01*
X848489Y395908D01*
X848498Y395812D01*
X848504Y395716D01*
X848506Y395619D01*
X848506Y391781D01*
X848504Y391684D01*
X848498Y391588D01*
X848489Y391492D01*
X848475Y391396D01*
X848458Y391301D01*
X848436Y391207D01*
X848411Y391114D01*
X848383Y391021D01*
X848350Y390930D01*
X848314Y390841D01*
X848274Y390753D01*
X848231Y390666D01*
X848185Y390582D01*
X848135Y390499D01*
X848081Y390418D01*
X848025Y390340D01*
X847965Y390264D01*
X847903Y390190D01*
X847837Y390119D01*
X847769Y390051D01*
X847698Y389985D01*
X847624Y389923D01*
X847548Y389863D01*
X847470Y389807D01*
X847389Y389753D01*
X847307Y389703D01*
X847222Y389657D01*
X847135Y389614D01*
X847047Y389574D01*
X846958Y389538D01*
X846867Y389505D01*
X846774Y389477D01*
X846681Y389452D01*
X846587Y389430D01*
X846492Y389413D01*
X846396Y389399D01*
X846300Y389390D01*
X846204Y389384D01*
X846107Y389382D01*
X846010Y389384D01*
X845914Y389390D01*
X845818Y389399D01*
X845722Y389413D01*
X845627Y389430D01*
X845533Y389452D01*
X845440Y389477D01*
X845347Y389505D01*
X845256Y389538D01*
X845167Y389574D01*
X845079Y389614D01*
X844992Y389657D01*
X844908Y389703D01*
X844825Y389753D01*
X844744Y389807D01*
X844666Y389863D01*
X844590Y389923D01*
X844516Y389985D01*
X844445Y390051D01*
X844377Y390119D01*
X844311Y390190D01*
X844249Y390264D01*
X844189Y390340D01*
X844133Y390418D01*
X844079Y390499D01*
X844029Y390582D01*
X843983Y390666D01*
X843940Y390753D01*
X843900Y390841D01*
X843864Y390930D01*
X843831Y391021D01*
X843803Y391114D01*
X843778Y391207D01*
X843756Y391301D01*
X843739Y391396D01*
X843725Y391492D01*
X843716Y391588D01*
X843710Y391684D01*
X843708Y391781D01*
X853242Y389382D02*
X853242Y398018D01*
X855641Y398018D01*
X855738Y398016D01*
X855834Y398010D01*
X855930Y398001D01*
X856026Y397987D01*
X856121Y397970D01*
X856215Y397948D01*
X856308Y397923D01*
X856401Y397895D01*
X856492Y397862D01*
X856581Y397826D01*
X856669Y397786D01*
X856756Y397743D01*
X856841Y397697D01*
X856923Y397647D01*
X857004Y397593D01*
X857082Y397537D01*
X857158Y397477D01*
X857232Y397415D01*
X857303Y397349D01*
X857371Y397281D01*
X857437Y397210D01*
X857499Y397136D01*
X857559Y397060D01*
X857615Y396982D01*
X857669Y396901D01*
X857719Y396819D01*
X857765Y396734D01*
X857808Y396647D01*
X857848Y396559D01*
X857884Y396470D01*
X857917Y396379D01*
X857945Y396286D01*
X857970Y396193D01*
X857992Y396099D01*
X858009Y396004D01*
X858023Y395908D01*
X858032Y395812D01*
X858038Y395716D01*
X858040Y395619D01*
X858038Y395522D01*
X858032Y395426D01*
X858023Y395330D01*
X858009Y395234D01*
X857992Y395139D01*
X857970Y395045D01*
X857945Y394952D01*
X857917Y394859D01*
X857884Y394768D01*
X857848Y394679D01*
X857808Y394591D01*
X857765Y394504D01*
X857719Y394420D01*
X857669Y394337D01*
X857615Y394256D01*
X857559Y394178D01*
X857499Y394102D01*
X857437Y394028D01*
X857371Y393957D01*
X857303Y393889D01*
X857232Y393823D01*
X857158Y393761D01*
X857082Y393701D01*
X857004Y393645D01*
X856923Y393591D01*
X856841Y393541D01*
X856756Y393495D01*
X856669Y393452D01*
X856581Y393412D01*
X856492Y393376D01*
X856401Y393343D01*
X856308Y393315D01*
X856215Y393290D01*
X856121Y393268D01*
X856026Y393251D01*
X855930Y393237D01*
X855834Y393228D01*
X855738Y393222D01*
X855641Y393220D01*
X853242Y393220D01*
X856121Y393220D02*
X858040Y389382D01*
X862632Y389382D02*
X866470Y389382D01*
X862632Y389382D02*
X862632Y398018D01*
X866470Y398018D01*
X865511Y394180D02*
X862632Y394180D01*
X870557Y398018D02*
X870557Y389382D01*
X870557Y398018D02*
X874395Y398018D01*
X874395Y394180D02*
X870557Y394180D01*
M02*
