G04 EAGLE Gerber X2 export*
%TF.Part,Single*%
%TF.FileFunction,Soldermask,Bot,1*%
%TF.FilePolarity,Negative*%
%TF.GenerationSoftware,Autodesk,EAGLE,9.0.0*%
%TF.CreationDate,2018-10-21T06:38:59Z*%
G75*
%MOMM*%
%FSLAX34Y34*%
%LPD*%
%AMOC8*
5,1,8,0,0,1.08239X$1,22.5*%
G01*
%ADD10C,2.203200*%
%ADD11C,0.553200*%
%ADD12C,2.082800*%
%ADD13C,1.727200*%
%ADD14P,1.649562X8X112.500000*%
%ADD15C,1.854200*%


D10*
X228600Y857250D03*
D11*
X228600Y76200D03*
X990600Y76200D03*
X990600Y857250D03*
D12*
X889000Y419100D03*
X889000Y444500D03*
X889000Y469900D03*
X889000Y495300D03*
X889000Y520700D03*
X889000Y546100D03*
X889000Y596900D03*
X889000Y622300D03*
X889000Y647700D03*
X889000Y673100D03*
X889000Y698500D03*
X889000Y723900D03*
X406400Y723900D03*
X406400Y698500D03*
X406400Y673100D03*
X406400Y647700D03*
X406400Y622300D03*
X406400Y596900D03*
X406400Y571500D03*
X406400Y546100D03*
X406400Y508000D03*
X406400Y482600D03*
X406400Y457200D03*
X406400Y431800D03*
X406400Y406400D03*
X406400Y381000D03*
X406400Y355600D03*
X406400Y330200D03*
X406400Y304800D03*
X406400Y279400D03*
X889000Y393700D03*
X889000Y368300D03*
D13*
X331470Y819150D02*
X316230Y819150D01*
X316230Y793750D02*
X331470Y793750D01*
X331470Y768350D02*
X316230Y768350D01*
X316230Y742950D02*
X331470Y742950D01*
X331470Y717550D02*
X316230Y717550D01*
X316230Y692150D02*
X331470Y692150D01*
X331470Y666750D02*
X316230Y666750D01*
X316230Y641350D02*
X331470Y641350D01*
X970280Y469900D02*
X985520Y469900D01*
X985520Y444500D02*
X970280Y444500D01*
X970280Y419100D02*
X985520Y419100D01*
X985520Y393700D02*
X970280Y393700D01*
X331470Y146050D02*
X316230Y146050D01*
X316230Y171450D02*
X331470Y171450D01*
X331470Y196850D02*
X316230Y196850D01*
X316230Y222250D02*
X331470Y222250D01*
X331470Y247650D02*
X316230Y247650D01*
X316230Y273050D02*
X331470Y273050D01*
X331470Y298450D02*
X316230Y298450D01*
X316230Y323850D02*
X331470Y323850D01*
X331470Y393700D02*
X316230Y393700D01*
X316230Y419100D02*
X331470Y419100D01*
X331470Y444500D02*
X316230Y444500D01*
X316230Y469900D02*
X331470Y469900D01*
X331470Y495300D02*
X316230Y495300D01*
X316230Y520700D02*
X331470Y520700D01*
X331470Y546100D02*
X316230Y546100D01*
X316230Y571500D02*
X331470Y571500D01*
D14*
X977900Y266700D03*
X977900Y292100D03*
D12*
X812800Y342900D03*
X812800Y469900D03*
D15*
X679450Y565023D03*
X571500Y641350D03*
X679450Y419100D03*
X895350Y292100D03*
X692150Y393700D03*
X508000Y628650D03*
X653923Y596900D03*
X469900Y368300D03*
X565150Y419100D03*
X527050Y457200D03*
X641350Y736600D03*
X450850Y628650D03*
X692150Y679577D03*
X501650Y679323D03*
X298450Y609600D03*
X482600Y660400D03*
X292100Y692150D03*
X488950Y342900D03*
X361950Y717550D03*
X469900Y254000D03*
X565023Y279400D03*
X635000Y279400D03*
X679450Y311150D03*
X450850Y482600D03*
X444500Y520700D03*
X355600Y546100D03*
X495300Y508000D03*
X488950Y450850D03*
X292100Y520700D03*
X609600Y431800D03*
X355600Y469900D03*
X698500Y514223D03*
X755650Y419100D03*
X292100Y304800D03*
X292100Y425450D03*
X635000Y431800D03*
X355600Y419100D03*
X660400Y514350D03*
X355600Y393700D03*
X431800Y431800D03*
X647700Y488950D03*
X444500Y304800D03*
X933450Y419100D03*
X952500Y209550D03*
X431800Y254000D03*
M02*
