G04 EAGLE Gerber X2 export*
%TF.Part,Single*%
%TF.FileFunction,Paste,Top*%
%TF.FilePolarity,Positive*%
%TF.GenerationSoftware,Autodesk,EAGLE,9.0.0*%
%TF.CreationDate,2018-10-21T06:38:59Z*%
G75*
%MOMM*%
%FSLAX34Y34*%
%LPD*%
%AMOC8*
5,1,8,0,0,1.08239X$1,22.5*%
G01*
%ADD10R,2.032000X0.660400*%


D10*
X602234Y298450D03*
X540766Y298450D03*
X602234Y311150D03*
X602234Y323850D03*
X540766Y311150D03*
X540766Y323850D03*
X602234Y336550D03*
X540766Y336550D03*
X602234Y349250D03*
X540766Y349250D03*
X602234Y361950D03*
X602234Y374650D03*
X540766Y361950D03*
X540766Y374650D03*
X602234Y387350D03*
X540766Y387350D03*
X602234Y488950D03*
X540766Y488950D03*
X602234Y501650D03*
X602234Y514350D03*
X540766Y501650D03*
X540766Y514350D03*
X602234Y527050D03*
X540766Y527050D03*
X602234Y539750D03*
X540766Y539750D03*
X602234Y552450D03*
X602234Y565150D03*
X540766Y552450D03*
X540766Y565150D03*
X602234Y577850D03*
X540766Y577850D03*
X540766Y717550D03*
X602234Y717550D03*
X540766Y704850D03*
X540766Y692150D03*
X602234Y704850D03*
X602234Y692150D03*
X540766Y679450D03*
X602234Y679450D03*
X540766Y666750D03*
X602234Y666750D03*
X540766Y654050D03*
X540766Y641350D03*
X602234Y654050D03*
X602234Y641350D03*
X540766Y628650D03*
X602234Y628650D03*
M02*
